<?xml version="1.0" encoding="utf-8"?>
<!-- Generator: Adobe Illustrator 17.1.0, SVG Export Plug-In . SVG Version: 6.00 Build 0)  -->
<!DOCTYPE svg PUBLIC "-//W3C//DTD SVG 1.1//EN" "http://www.w3.org/Graphics/SVG/1.1/DTD/svg11.dtd">
<svg version="1.1" id="Layer_1" xmlns="http://www.w3.org/2000/svg" xmlns:xlink="http://www.w3.org/1999/xlink" x="0px" y="0px"
	 viewBox="0 0 248.1 240.6" enable-background="new 0 0 248.1 240.6" xml:space="preserve">
<path id="path7_12_" fill="#FFFFFF" d="M62,20.1v-20H41.3v20H62L62,20.1z"/>
<path id="path9_12_" opacity="0.27" fill="#D11209" d="M82.8,20.1v-20H62.2v20H82.8z"/>
<path id="path11_12_" fill="#FFFFFF" d="M82.8,40.1v-20H62.2v20H82.8z"/>
<path id="path13_12_" opacity="0.27" fill="#D11209" d="M62,40.1v-20H41.3v20H62L62,40.1z"/>
<path id="path15_12_" fill="#FFFFFF" d="M20.8,60.1v-20H0.2v20H20.8L20.8,60.1z"/>
<path id="path17_12_" opacity="0.27" fill="#D11209" d="M41.5,60.1v-20H20.8v20H41.5L41.5,60.1z"/>
<path id="path19_12_" fill="#FFFFFF" d="M62,60.1v-20H41.3v20H62L62,60.1z"/>
<path id="path21_12_" opacity="0.27" fill="#D11209" d="M82.8,60.1v-20H62.2v20H82.8L82.8,60.1z"/>
<path id="path23_12_" fill="#FFFFFF" d="M41.5,40.1v-20H20.8v20H41.5L41.5,40.1z"/>
<path id="path25_12_" opacity="0.27" fill="#D11209" d="M20.8,40.1v-20H0.2v20H20.8z"/>
<path id="path27_12_" fill="#FFFFFF" d="M20.8,20.1v-20H0.2v20H20.8z"/>
<path id="path29_12_" opacity="0.27" fill="#D11209" d="M41.5,20.1v-20H20.8v20H41.5L41.5,20.1z"/>
<path id="path31_12_" fill="#FFFFFF" d="M41.5,120.1v-20H20.8v20H41.5L41.5,120.1z"/>
<path id="path33_12_" opacity="0.27" fill="#D11209" d="M20.8,120.1v-20H0.2v20H20.8z"/>
<path id="path35_12_" fill="#FFFFFF" d="M20.8,100.1v-20H0.2v20H20.8z"/>
<path id="path37_12_" opacity="0.27" fill="#D11209" d="M41.5,100.1v-20H20.8v20H41.5L41.5,100.1z"/>
<path id="path39_12_" fill="#FFFFFF" d="M82.8,80.1v-20H62.2v20H82.8z"/>
<path id="path41_12_" opacity="0.27" fill="#D11209" d="M62,80.1v-20H41.3v20H62L62,80.1z"/>
<path id="path43_12_" fill="#FFFFFF" d="M41.5,80.1v-20H20.8v20H41.5L41.5,80.1z"/>
<path id="path45_12_" opacity="0.27" fill="#D11209" d="M20.8,80.1v-20H0.2v20H20.8z"/>
<path id="path47_12_" fill="#FFFFFF" d="M62,100.1v-20H41.3v20H62L62,100.1z"/>
<path id="path49_12_" opacity="0.27" fill="#D11209" d="M82.8,100.1v-20H62.2v20H82.8z"/>
<path id="path51_12_" fill="#FFFFFF" d="M82.8,120.1v-20H62.2v20H82.8z"/>
<path id="path53_12_" opacity="0.27" fill="#D11209" d="M62,120.1v-20H41.3v20H62L62,120.1z"/>
<path id="path55_12_" opacity="0.27" fill="#D11209" d="M59.5,0L62,2.5L43.9,20l-2.6-2.5L59.5,0L59.5,0z"/>
<path id="path57_12_" fill="#FFFFFF" d="M80.2,0l2.6,2.5L64.6,20L62,17.5L80.2,0"/>
<path id="path59_12_" opacity="0.27" fill="#D11209" d="M64.6,20.1L62,22.6l18.1,17.5l2.6-2.5L64.6,20.1L64.6,20.1z"/>
<path id="path61_12_" fill="#FFFFFF" d="M43.9,20.1l-2.6,2.5l18.1,17.5l2.6-2.5L43.9,20.1"/>
<path id="path63_12_" opacity="0.27" fill="#D11209" d="M18.2,40.1l2.6,2.5L2.7,60.1l-2.6-2.5L18.2,40.1L18.2,40.1z"/>
<path id="path65_12_" fill="#FFFFFF" d="M38.9,40.1l2.6,2.5L23.4,60.1l-2.6-2.5L38.9,40.1"/>
<path id="path67_12_" opacity="0.27" fill="#D11209" d="M59.5,40.1l2.6,2.5L43.9,60.1l-2.6-2.5L59.5,40.1L59.5,40.1z"/>
<path id="path69_12_" fill="#FFFFFF" d="M80.2,40.1l2.6,2.5L64.6,60.1L62,57.6L80.2,40.1"/>
<path id="path71_12_" opacity="0.27" fill="#D11209" d="M23.4,20.1l-2.6,2.5l18.1,17.5l2.6-2.5L23.4,20.1z"/>
<path id="path73_12_" fill="#FFFFFF" d="M2.7,20.1l-2.6,2.5l18.1,17.5l2.6-2.5L2.7,20.1"/>
<path id="path75_12_" opacity="0.27" fill="#D11209" d="M18.2,0l2.6,2.5L2.7,20l-2.6-2.5L18.2,0L18.2,0z"/>
<path id="path77_12_" fill="#FFFFFF" d="M38.9,0l2.6,2.5L23.4,20l-2.6-2.5L38.9,0"/>
<path id="path79_12_" opacity="0.27" fill="#D11209" d="M23.4,120.1l-2.6-2.5l18.1-17.5l2.6,2.5L23.4,120.1L23.4,120.1z"/>
<path id="path81_12_" fill="#FFFFFF" d="M2.7,120.1l-2.6-2.5l18.1-17.5l2.6,2.5L2.7,120.1"/>
<path id="path83_12_" opacity="0.27" fill="#D11209" d="M18.2,100.1l2.6-2.5L2.7,80.1l-2.6,2.5L18.2,100.1z"/>
<path id="path85_12_" fill="#FFFFFF" d="M38.9,100.1l2.6-2.5L23.4,80.1l-2.6,2.5L38.9,100.1"/>
<path id="path87_12_" opacity="0.27" fill="#D11209" d="M64.6,80.1L62,77.6l18.1-17.5l2.6,2.5L64.6,80.1L64.6,80.1z"/>
<path id="path89_12_" fill="#FFFFFF" d="M43.9,80.1l-2.6-2.5l18.1-17.5l2.6,2.5L43.9,80.1"/>
<path id="path91_12_" opacity="0.27" fill="#D11209" d="M23.4,80.1l-2.6-2.5l18.1-17.5l2.6,2.5L23.4,80.1z"/>
<path id="path93_12_" fill="#FFFFFF" d="M2.7,80.1l-2.6-2.5l18.1-17.5l2.6,2.5L2.7,80.1"/>
<path id="path95_12_" opacity="0.27" fill="#D11209" d="M59.5,100.1l2.6-2.5L43.9,80.1l-2.6,2.5L59.5,100.1z"/>
<path id="path97_12_" fill="#FFFFFF" d="M80.2,100.1l2.6-2.5L64.6,80.1L62,82.5L80.2,100.1"/>
<path id="path99_12_" opacity="0.27" fill="#D11209" d="M64.6,120.1l-2.6-2.5l18.1-17.5l2.6,2.5L64.6,120.1L64.6,120.1z"/>
<path id="path101_12_" fill="#FFFFFF" d="M43.9,120.1l-2.6-2.5l18.1-17.5l2.6,2.5L43.9,120.1"/>
<path id="path103_12_" opacity="0.27" fill="#D11209" d="M43.9,0l-2.6,2.5L59.5,20l2.6-2.5L43.9,0z"/>
<path id="path105_12_" opacity="0.27" fill="#D11209" d="M51.7,0L41.3,10l10.4,10L62,10L51.7,0z"/>
<path id="path107_12_" fill="#FFFFFF" d="M64.6,0L62,2.5L80.2,20l2.6-2.5L64.6,0"/>
<path id="path109_12_" fill="#FFFFFF" d="M72.4,0L62,10l10.4,10l10.4-10L72.4,0"/>
<path id="path111_12_" opacity="0.27" fill="#D11209" d="M80.2,20.1l2.6,2.5L64.6,40.1L62,37.6L80.2,20.1L80.2,20.1z"/>
<path id="path113_12_" opacity="0.27" fill="#D11209" d="M72.4,20.1l10.4,10l-10.4,10L62,30.1L72.4,20.1z"/>
<path id="path115_12_" fill="#FFFFFF" d="M59.5,20.1l2.6,2.5L43.9,40.1l-2.6-2.5L59.5,20.1"/>
<path id="path117_12_" fill="#FFFFFF" d="M51.7,20.1l10.4,10l-10.4,10l-10.4-10L51.7,20.1"/>
<path id="path119_12_" opacity="0.27" fill="#D11209" d="M2.7,40.1l-2.6,2.5l18.1,17.5l2.6-2.5L2.7,40.1z"/>
<path id="path121_12_" opacity="0.27" fill="#D11209" d="M10.4,40.1l-10.4,10l10.4,10l10.4-10L10.4,40.1z"/>
<path id="path123_12_" fill="#FFFFFF" d="M23.4,40.1l-2.6,2.5l18.1,17.5l2.6-2.5L23.4,40.1"/>
<path id="path125_12_" fill="#FFFFFF" d="M31.1,40.1l-10.4,10l10.4,10l10.4-10L31.1,40.1"/>
<path id="path127_12_" opacity="0.27" fill="#D11209" d="M43.9,40.1l-2.6,2.5l18.1,17.5l2.6-2.5L43.9,40.1z"/>
<path id="path129_12_" opacity="0.27" fill="#D11209" d="M51.7,40.1l-10.4,10l10.4,10l10.4-10L51.7,40.1z"/>
<path id="path131_12_" fill="#FFFFFF" d="M64.6,40.1L62,42.6l18.1,17.5l2.6-2.5L64.6,40.1"/>
<path id="path133_12_" fill="#FFFFFF" d="M72.4,40.1L62,50.1l10.4,10l10.4-10L72.4,40.1"/>
<path id="path135_12_" opacity="0.27" fill="#D11209" d="M38.9,20.1l2.6,2.5L23.4,40.1l-2.6-2.5L38.9,20.1L38.9,20.1z"/>
<path id="path137_12_" opacity="0.27" fill="#D11209" d="M31.1,20.1l10.4,10l-10.4,10l-10.4-10L31.1,20.1z"/>
<path id="path139_12_" fill="#FFFFFF" d="M18.2,20.1l2.6,2.5L2.7,40.1l-2.6-2.5L18.2,20.1"/>
<path id="path141_12_" fill="#FFFFFF" d="M10.4,20.1l10.4,10l-10.4,10l-10.4-10L10.4,20.1"/>
<path id="path143_12_" opacity="0.27" fill="#D11209" d="M2.7,0L0.1,2.5L18.2,20l2.6-2.5L2.7,0z"/>
<path id="path145_12_" opacity="0.27" fill="#D11209" d="M10.4,0L0.1,10l10.4,10l10.4-10L10.4,0z"/>
<path id="path147_12_" fill="#FFFFFF" d="M23.4,0l-2.6,2.5L38.9,20l2.6-2.5L23.4,0"/>
<path id="path149_12_" fill="#FFFFFF" d="M31.1,0L20.8,10l10.4,10l10.4-10L31.1,0"/>
<path id="path151_12_" opacity="0.27" fill="#D11209" d="M38.9,120.1l2.6-2.5l-18.1-17.5l-2.6,2.5L38.9,120.1L38.9,120.1z"/>
<path id="path153_12_" opacity="0.27" fill="#D11209" d="M31.1,120.1l10.4-10l-10.4-10l-10.4,10L31.1,120.1z"/>
<path id="path155_12_" fill="#FFFFFF" d="M18.2,120.1l2.6-2.5L2.7,100.1l-2.6,2.5L18.2,120.1"/>
<path id="path157_12_" fill="#FFFFFF" d="M10.4,120.1l10.4-10l-10.4-10l-10.4,10L10.4,120.1"/>
<path id="path159_12_" opacity="0.27" fill="#D11209" d="M10.4,100.1l-10.4-10l10.4-10l10.4,10L10.4,100.1z"/>
<path id="path161_12_" fill="#FFFFFF" d="M23.4,100.1l-2.6-2.5l18.1-17.5l2.6,2.5L23.4,100.1"/>
<path id="path163_12_" fill="#FFFFFF" d="M31.1,100.1l-10.4-10l10.4-10l10.4,10L31.1,100.1"/>
<path id="path165_12_" opacity="0.27" fill="#D11209" d="M80.2,80.1l2.6-2.5L64.6,60.1L62,62.6L80.2,80.1L80.2,80.1z"/>
<path id="path167_12_" opacity="0.27" fill="#D11209" d="M72.4,80.1l10.4-10l-10.4-10L62,70.1L72.4,80.1z"/>
<path id="path169_12_" fill="#FFFFFF" d="M59.5,80.1l2.6-2.5L43.9,60.1l-2.6,2.5L59.5,80.1"/>
<path id="path171_12_" fill="#FFFFFF" d="M51.7,80.1l10.4-10l-10.4-10l-10.4,10L51.7,80.1"/>
<path id="path173_12_" opacity="0.27" fill="#D11209" d="M38.9,80.1l2.6-2.5L23.4,60.1l-2.6,2.5L38.9,80.1L38.9,80.1z"/>
<path id="path175_12_" opacity="0.27" fill="#D11209" d="M31.1,80.1l10.4-10l-10.4-10l-10.4,10L31.1,80.1z"/>
<path id="path177_12_" fill="#FFFFFF" d="M18.2,80.1l2.6-2.5L2.7,60.1l-2.6,2.5L18.2,80.1"/>
<path id="path179_12_" fill="#FFFFFF" d="M10.4,80.1l10.4-10l-10.4-10l-10.4,10L10.4,80.1"/>
<path id="path181_12_" opacity="0.27" fill="#D11209" d="M43.9,100.1l-2.6-2.5l18.1-17.5l2.6,2.5L43.9,100.1z"/>
<path id="path183_12_" opacity="0.27" fill="#D11209" d="M51.7,100.1l-10.4-10l10.4-10l10.4,10L51.7,100.1z"/>
<path id="path185_12_" fill="#FFFFFF" d="M64.6,100.1L62,97.6l18.1-17.5l2.6,2.5L64.6,100.1"/>
<path id="path187_12_" fill="#FFFFFF" d="M72.4,100.1L62,90.1l10.4-10l10.4,10L72.4,100.1"/>
<path id="path189_12_" opacity="0.27" fill="#D11209" d="M80.2,120.1l2.6-2.5l-18.1-17.5l-2.6,2.5L80.2,120.1L80.2,120.1z"/>
<path id="path191_12_" opacity="0.27" fill="#D11209" d="M72.4,120.1l10.4-10l-10.4-10l-10.4,10L72.4,120.1z"/>
<path id="path193_12_" fill="#FFFFFF" d="M59.5,120.1l2.6-2.5l-18.1-17.5l-2.6,2.5L59.5,120.1"/>
<path id="path195_12_" fill="#FFFFFF" d="M51.7,120.1l10.4-10l-10.4-10l-10.4,10L51.7,120.1"/>
<path id="path197_12_" fill="#FFFFFF" d="M56.9,15.1V4.8H46.5v10.3H56.9L56.9,15.1z"/>
<path id="path199_12_" opacity="0.27" fill="#D11209" d="M77.6,15.1V4.8H67.2v10.3H77.6z"/>
<path id="path201_12_" opacity="0.27" fill="#D11209" d="M51.7,6.4l-3.9,3.8l3.9,3.8l3.9-3.8L51.7,6.4"/>
<path id="path203_12_" fill="#FFFFFF" d="M72.4,6.4l-3.9,3.8l3.9,3.8l3.9-3.8L72.4,6.4"/>
<path id="path205_12_" fill="#FFFFFF" d="M77.6,35V24.8H67.2V35H77.6z"/>
<path id="path207_12_" opacity="0.27" fill="#D11209" d="M56.9,35V24.8H46.5V35H56.9L56.9,35z"/>
<path id="path209_12_" opacity="0.27" fill="#D11209" d="M72.4,26.3l3.9,3.8l-3.9,3.8l-3.9-3.8L72.4,26.3"/>
<path id="path211_12_" fill="#FFFFFF" d="M51.7,26.3l3.9,3.8l-3.9,3.8l-3.9-3.8L51.7,26.3"/>
<path id="path213_12_" fill="#FFFFFF" d="M15.6,55V44.8H5.2V55H15.6L15.6,55z"/>
<path id="path215_12_" opacity="0.27" fill="#D11209" d="M36.3,55V44.8H25.9V55H36.3L36.3,55z"/>
<path id="path217_12_" opacity="0.27" fill="#D11209" d="M10.4,46.3l-3.9,3.8l3.9,3.8l3.9-3.8L10.4,46.3"/>
<path id="path219_12_" fill="#FFFFFF" d="M31.1,46.3l-3.9,3.8l3.9,3.8l3.9-3.8L31.1,46.3"/>
<path id="path221_12_" fill="#FFFFFF" d="M56.9,55V44.8H46.5V55H56.9L56.9,55z"/>
<path id="path223_12_" opacity="0.27" fill="#D11209" d="M77.6,55V44.8H67.2V55H77.6L77.6,55z"/>
<path id="path225_12_" opacity="0.27" fill="#D11209" d="M51.7,46.3l-3.9,3.8l3.9,3.8l3.9-3.8L51.7,46.3"/>
<path id="path227_12_" fill="#FFFFFF" d="M72.4,46.3l-3.9,3.8l3.9,3.8l3.9-3.8L72.4,46.3"/>
<path id="path229_12_" fill="#FFFFFF" d="M36.3,35V24.8H25.9V35H36.3L36.3,35z"/>
<path id="path231_12_" opacity="0.27" fill="#D11209" d="M15.6,35V24.8H5.2V35H15.6z"/>
<path id="path233_12_" opacity="0.27" fill="#D11209" d="M31.1,26.3l3.9,3.8l-3.9,3.8l-3.9-3.8L31.1,26.3"/>
<path id="path235_12_" fill="#FFFFFF" d="M10.4,26.3l3.9,3.8l-3.9,3.8l-3.9-3.8L10.4,26.3"/>
<path id="path237_12_" fill="#FFFFFF" d="M15.6,15.1V4.8H5.2v10.3H15.6z"/>
<path id="path239_12_" opacity="0.27" fill="#D11209" d="M36.3,15.1V4.8H25.9v10.3H36.3L36.3,15.1z"/>
<path id="path241_12_" opacity="0.27" fill="#D11209" d="M10.4,6.4l-3.9,3.8l3.9,3.8l3.9-3.8L10.4,6.4"/>
<path id="path243_12_" fill="#FFFFFF" d="M31.1,6.4l-3.9,3.8l3.9,3.8l3.9-3.8L31.1,6.4"/>
<path id="path245_12_" fill="#FFFFFF" d="M36.3,115.4v-10.3H25.9v10.3H36.3L36.3,115.4z"/>
<path id="path247_12_" opacity="0.27" fill="#D11209" d="M15.6,115.4v-10.3H5.2v10.3H15.6z"/>
<path id="path249_12_" opacity="0.27" fill="#D11209" d="M31.1,113.8l3.9-3.8l-3.9-3.8l-3.9,3.8L31.1,113.8"/>
<path id="path251_12_" fill="#FFFFFF" d="M10.4,113.8l3.9-3.8l-3.9-3.8l-3.9,3.8L10.4,113.8"/>
<path id="path253_12_" opacity="0.27" fill="#D11209" d="M36.3,95.4V85.1H25.9v10.3H36.3L36.3,95.4z"/>
<path id="path255_12_" fill="#FFFFFF" d="M31.1,93.8l-3.9-3.8l3.9-3.8l3.9,3.8L31.1,93.8"/>
<path id="path257_12_" fill="#FFFFFF" d="M77.6,75.4V65H67.2v10.4H77.6z"/>
<path id="path259_12_" opacity="0.27" fill="#D11209" d="M56.9,75.4V65H46.5v10.4H56.9L56.9,75.4z"/>
<path id="path261_12_" opacity="0.27" fill="#D11209" d="M72.4,73.9l3.9-3.8l-3.9-3.8l-3.9,3.8L72.4,73.9"/>
<path id="path263_12_" fill="#FFFFFF" d="M51.7,73.9l3.9-3.8l-3.9-3.8l-3.9,3.8L51.7,73.9"/>
<path id="path265_12_" fill="#FFFFFF" d="M36.3,75.4V65H25.9v10.4H36.3L36.3,75.4z"/>
<path id="path267_12_" opacity="0.27" fill="#D11209" d="M15.6,75.4V65H5.2v10.4H15.6z"/>
<path id="path269_12_" opacity="0.27" fill="#D11209" d="M31.1,73.9l3.9-3.8l-3.9-3.8l-3.9,3.8L31.1,73.9"/>
<path id="path271_12_" fill="#FFFFFF" d="M10.4,73.9l3.9-3.8l-3.9-3.8l-3.9,3.8L10.4,73.9"/>
<path id="path273_12_" fill="#FFFFFF" d="M56.9,95.4V85.1H46.5v10.3H56.9L56.9,95.4z"/>
<path id="path275_12_" opacity="0.27" fill="#D11209" d="M77.6,95.4V85.1H67.2v10.3H77.6z"/>
<path id="path277_12_" opacity="0.27" fill="#D11209" d="M51.7,93.8l-3.9-3.8l3.9-3.8l3.9,3.8L51.7,93.8"/>
<path id="path279_12_" fill="#FFFFFF" d="M72.4,93.8l-3.9-3.8l3.9-3.8l3.9,3.8L72.4,93.8"/>
<path id="path281_12_" fill="#FFFFFF" d="M77.6,115.4v-10.3H67.2v10.3H77.6z"/>
<path id="path283_12_" opacity="0.27" fill="#D11209" d="M56.9,115.4v-10.3H46.5v10.3H56.9L56.9,115.4z"/>
<path id="path285_12_" opacity="0.27" fill="#D11209" d="M72.4,113.8l3.9-3.8l-3.9-3.8l-3.9,3.8L72.4,113.8"/>
<path id="path287_12_" fill="#FFFFFF" d="M51.7,113.8l3.9-3.8l-3.9-3.8l-3.9,3.8L51.7,113.8"/>
<path id="path289_12_" opacity="0.27" fill="#D11209" d="M2.7,100.1l-2.6-2.5l18.1-17.5l2.6,2.5L2.7,100.1z"/>
<path id="path291_12_" fill="#FFFFFF" d="M15.6,95.4V85.1H5.2v10.3H15.6z"/>
<path id="path293_12_" opacity="0.27" fill="#D11209" d="M10.4,93.8l-3.9-3.8l3.9-3.8l3.9,3.8L10.4,93.8"/>
<path id="path7_11_" fill="#FFFFFF" d="M144.7,20.1v-20H124v20H144.7L144.7,20.1z"/>
<path id="path9_11_" opacity="0.27" fill="#D11209" d="M165.4,20.1v-20h-20.6v20H165.4z"/>
<path id="path11_11_" fill="#FFFFFF" d="M165.4,40.1v-20h-20.6v20H165.4z"/>
<path id="path13_11_" opacity="0.27" fill="#D11209" d="M144.7,40.1v-20H124v20H144.7L144.7,40.1z"/>
<path id="path15_11_" fill="#FFFFFF" d="M103.5,60.1v-20H82.9v20H103.5L103.5,60.1z"/>
<path id="path17_11_" opacity="0.27" fill="#D11209" d="M124.2,60.1v-20h-20.7v20H124.2L124.2,60.1z"/>
<path id="path19_11_" fill="#FFFFFF" d="M144.7,60.1v-20H124v20H144.7L144.7,60.1z"/>
<path id="path21_11_" opacity="0.27" fill="#D11209" d="M165.4,60.1v-20h-20.6v20H165.4L165.4,60.1z"/>
<path id="path23_11_" fill="#FFFFFF" d="M124.2,40.1v-20h-20.7v20H124.2L124.2,40.1z"/>
<path id="path25_11_" opacity="0.27" fill="#D11209" d="M103.5,40.1v-20H82.9v20H103.5z"/>
<path id="path27_11_" fill="#FFFFFF" d="M103.5,20.1v-20H82.9v20H103.5z"/>
<path id="path29_11_" opacity="0.27" fill="#D11209" d="M124.2,20.1v-20h-20.7v20H124.2L124.2,20.1z"/>
<path id="path31_11_" fill="#FFFFFF" d="M124.2,120.1v-20h-20.7v20H124.2L124.2,120.1z"/>
<path id="path33_11_" opacity="0.27" fill="#D11209" d="M103.5,120.1v-20H82.9v20H103.5z"/>
<path id="path35_11_" fill="#FFFFFF" d="M103.5,100.1v-20H82.9v20H103.5z"/>
<path id="path37_11_" opacity="0.27" fill="#D11209" d="M124.2,100.1v-20h-20.7v20H124.2L124.2,100.1z"/>
<path id="path39_11_" fill="#FFFFFF" d="M165.4,80.1v-20h-20.6v20H165.4z"/>
<path id="path41_11_" opacity="0.27" fill="#D11209" d="M144.7,80.1v-20H124v20H144.7L144.7,80.1z"/>
<path id="path43_11_" fill="#FFFFFF" d="M124.2,80.1v-20h-20.7v20H124.2L124.2,80.1z"/>
<path id="path45_11_" opacity="0.27" fill="#D11209" d="M103.5,80.1v-20H82.9v20H103.5z"/>
<path id="path47_11_" fill="#FFFFFF" d="M144.7,100.1v-20H124v20H144.7L144.7,100.1z"/>
<path id="path49_11_" opacity="0.27" fill="#D11209" d="M165.4,100.1v-20h-20.6v20H165.4z"/>
<path id="path51_11_" fill="#FFFFFF" d="M165.4,120.1v-20h-20.6v20H165.4z"/>
<path id="path53_11_" opacity="0.27" fill="#D11209" d="M144.7,120.1v-20H124v20H144.7L144.7,120.1z"/>
<path id="path55_11_" opacity="0.27" fill="#D11209" d="M142.1,0l2.6,2.5L126.6,20l-2.6-2.5L142.1,0L142.1,0z"/>
<path id="path57_11_" fill="#FFFFFF" d="M162.9,0l2.6,2.5L147.3,20l-2.6-2.5L162.9,0"/>
<path id="path59_11_" opacity="0.27" fill="#D11209" d="M147.3,20.1l-2.6,2.5l18.1,17.5l2.6-2.5L147.3,20.1L147.3,20.1z"/>
<path id="path61_11_" fill="#FFFFFF" d="M126.6,20.1l-2.6,2.5l18.1,17.5l2.6-2.5L126.6,20.1"/>
<path id="path63_11_" opacity="0.27" fill="#D11209" d="M100.9,40.1l2.6,2.5L85.3,60.1l-2.6-2.5L100.9,40.1L100.9,40.1z"/>
<path id="path65_11_" fill="#FFFFFF" d="M121.6,40.1l2.6,2.5L106,60.1l-2.6-2.5L121.6,40.1"/>
<path id="path67_11_" opacity="0.27" fill="#D11209" d="M142.1,40.1l2.6,2.5l-18.1,17.5l-2.6-2.5L142.1,40.1L142.1,40.1z"/>
<path id="path69_11_" fill="#FFFFFF" d="M162.9,40.1l2.6,2.5l-18.1,17.5l-2.6-2.5L162.9,40.1"/>
<path id="path71_11_" opacity="0.27" fill="#D11209" d="M106,20.1l-2.6,2.5l18.1,17.5l2.6-2.5L106,20.1z"/>
<path id="path73_11_" fill="#FFFFFF" d="M85.3,20.1l-2.6,2.5l18.1,17.5l2.6-2.5L85.3,20.1"/>
<path id="path75_11_" opacity="0.27" fill="#D11209" d="M100.9,0l2.6,2.5L85.3,20l-2.6-2.5L100.9,0L100.9,0z"/>
<path id="path77_11_" fill="#FFFFFF" d="M121.6,0l2.6,2.5L106,20l-2.6-2.5L121.6,0"/>
<path id="path79_11_" opacity="0.27" fill="#D11209" d="M106,120.1l-2.6-2.5l18.1-17.5l2.6,2.5L106,120.1L106,120.1z"/>
<path id="path81_11_" fill="#FFFFFF" d="M85.3,120.1l-2.6-2.5l18.1-17.5l2.6,2.5L85.3,120.1"/>
<path id="path83_11_" opacity="0.27" fill="#D11209" d="M100.9,100.1l2.6-2.5L85.3,80.1l-2.6,2.5L100.9,100.1z"/>
<path id="path85_11_" fill="#FFFFFF" d="M121.6,100.1l2.6-2.5L106,80.1l-2.6,2.5L121.6,100.1"/>
<path id="path87_11_" opacity="0.27" fill="#D11209" d="M147.3,80.1l-2.6-2.5l18.1-17.5l2.6,2.5L147.3,80.1L147.3,80.1z"/>
<path id="path89_11_" fill="#FFFFFF" d="M126.6,80.1l-2.6-2.5l18.1-17.5l2.6,2.5L126.6,80.1"/>
<path id="path91_11_" opacity="0.27" fill="#D11209" d="M106,80.1l-2.6-2.5l18.1-17.5l2.6,2.5L106,80.1z"/>
<path id="path93_11_" fill="#FFFFFF" d="M85.3,80.1l-2.6-2.5l18.1-17.5l2.6,2.5L85.3,80.1"/>
<path id="path95_11_" opacity="0.27" fill="#D11209" d="M142.1,100.1l2.6-2.5l-18.1-17.5l-2.6,2.5L142.1,100.1z"/>
<path id="path97_11_" fill="#FFFFFF" d="M162.9,100.1l2.6-2.5l-18.1-17.5l-2.6,2.5L162.9,100.1"/>
<path id="path99_11_" opacity="0.27" fill="#D11209" d="M147.3,120.1l-2.6-2.5l18.1-17.5l2.6,2.5L147.3,120.1L147.3,120.1z"/>
<path id="path101_11_" fill="#FFFFFF" d="M126.6,120.1l-2.6-2.5l18.1-17.5l2.6,2.5L126.6,120.1"/>
<path id="path103_11_" opacity="0.27" fill="#D11209" d="M126.6,0L124,2.5L142.1,20l2.6-2.5L126.6,0z"/>
<path id="path105_11_" opacity="0.27" fill="#D11209" d="M134.4,0L124,10l10.4,10l10.4-10L134.4,0z"/>
<path id="path107_11_" fill="#FFFFFF" d="M147.3,0l-2.6,2.5L162.9,20l2.6-2.5L147.3,0"/>
<path id="path109_11_" fill="#FFFFFF" d="M155.1,0l-10.4,10l10.4,10l10.4-10L155.1,0"/>
<path id="path111_11_" opacity="0.27" fill="#D11209" d="M162.9,20.1l2.6,2.5l-18.1,17.5l-2.6-2.5L162.9,20.1L162.9,20.1z"/>
<path id="path113_11_" opacity="0.27" fill="#D11209" d="M155.1,20.1l10.4,10l-10.4,10l-10.4-10L155.1,20.1z"/>
<path id="path115_11_" fill="#FFFFFF" d="M142.1,20.1l2.6,2.5l-18.1,17.5l-2.6-2.5L142.1,20.1"/>
<path id="path117_11_" fill="#FFFFFF" d="M134.4,20.1l10.4,10l-10.4,10l-10.4-10L134.4,20.1"/>
<path id="path119_11_" opacity="0.27" fill="#D11209" d="M85.3,40.1l-2.6,2.5l18.1,17.5l2.6-2.5L85.3,40.1z"/>
<path id="path121_11_" opacity="0.27" fill="#D11209" d="M93.1,40.1l-10.4,10l10.4,10l10.4-10L93.1,40.1z"/>
<path id="path123_11_" fill="#FFFFFF" d="M106,40.1l-2.6,2.5l18.1,17.5l2.6-2.5L106,40.1"/>
<path id="path125_11_" fill="#FFFFFF" d="M113.8,40.1l-10.4,10l10.4,10l10.4-10L113.8,40.1"/>
<path id="path127_11_" opacity="0.27" fill="#D11209" d="M126.6,40.1l-2.6,2.5l18.1,17.5l2.6-2.5L126.6,40.1z"/>
<path id="path129_11_" opacity="0.27" fill="#D11209" d="M134.4,40.1l-10.4,10l10.4,10l10.4-10L134.4,40.1z"/>
<path id="path131_11_" fill="#FFFFFF" d="M147.3,40.1l-2.6,2.5l18.1,17.5l2.6-2.5L147.3,40.1"/>
<path id="path133_11_" fill="#FFFFFF" d="M155.1,40.1l-10.4,10l10.4,10l10.4-10L155.1,40.1"/>
<path id="path135_11_" opacity="0.27" fill="#D11209" d="M121.6,20.1l2.6,2.5L106,40.1l-2.6-2.5L121.6,20.1L121.6,20.1z"/>
<path id="path137_11_" opacity="0.27" fill="#D11209" d="M113.8,20.1l10.4,10l-10.4,10l-10.4-10L113.8,20.1z"/>
<path id="path139_11_" fill="#FFFFFF" d="M100.9,20.1l2.6,2.5L85.3,40.1l-2.6-2.5L100.9,20.1"/>
<path id="path141_11_" fill="#FFFFFF" d="M93.1,20.1l10.4,10l-10.4,10l-10.4-10L93.1,20.1"/>
<path id="path143_11_" opacity="0.27" fill="#D11209" d="M85.3,0l-2.6,2.5L100.9,20l2.6-2.5L85.3,0z"/>
<path id="path145_11_" opacity="0.27" fill="#D11209" d="M93.1,0L82.8,10l10.4,10l10.4-10L93.1,0z"/>
<path id="path147_11_" fill="#FFFFFF" d="M106,0l-2.6,2.5L121.6,20l2.6-2.5L106,0"/>
<path id="path149_11_" fill="#FFFFFF" d="M113.8,0l-10.4,10l10.4,10l10.4-10L113.8,0"/>
<path id="path151_11_" opacity="0.27" fill="#D11209" d="M121.6,120.1l2.6-2.5L106,100.1l-2.6,2.5L121.6,120.1L121.6,120.1z"/>
<path id="path153_11_" opacity="0.27" fill="#D11209" d="M113.8,120.1l10.4-10l-10.4-10l-10.4,10L113.8,120.1z"/>
<path id="path155_11_" fill="#FFFFFF" d="M100.9,120.1l2.6-2.5l-18.1-17.5l-2.6,2.5L100.9,120.1"/>
<path id="path157_11_" fill="#FFFFFF" d="M93.1,120.1l10.4-10l-10.4-10l-10.4,10L93.1,120.1"/>
<path id="path159_11_" opacity="0.27" fill="#D11209" d="M93.1,100.1l-10.4-10l10.4-10l10.4,10L93.1,100.1z"/>
<path id="path161_11_" fill="#FFFFFF" d="M106,100.1l-2.6-2.5l18.1-17.5l2.6,2.5L106,100.1"/>
<path id="path163_11_" fill="#FFFFFF" d="M113.8,100.1l-10.4-10l10.4-10l10.4,10L113.8,100.1"/>
<path id="path165_11_" opacity="0.27" fill="#D11209" d="M162.9,80.1l2.6-2.5l-18.1-17.5l-2.6,2.5L162.9,80.1L162.9,80.1z"/>
<path id="path167_11_" opacity="0.27" fill="#D11209" d="M155.1,80.1l10.4-10l-10.4-10l-10.4,10L155.1,80.1z"/>
<path id="path169_11_" fill="#FFFFFF" d="M142.1,80.1l2.6-2.5l-18.1-17.5l-2.6,2.5L142.1,80.1"/>
<path id="path171_11_" fill="#FFFFFF" d="M134.4,80.1l10.4-10l-10.4-10l-10.4,10L134.4,80.1"/>
<path id="path173_11_" opacity="0.27" fill="#D11209" d="M121.6,80.1l2.6-2.5L106,60.1l-2.6,2.5L121.6,80.1L121.6,80.1z"/>
<path id="path175_11_" opacity="0.27" fill="#D11209" d="M113.8,80.1l10.4-10l-10.4-10l-10.4,10L113.8,80.1z"/>
<path id="path177_11_" fill="#FFFFFF" d="M100.9,80.1l2.6-2.5L85.3,60.1l-2.6,2.5L100.9,80.1"/>
<path id="path179_11_" fill="#FFFFFF" d="M93.1,80.1l10.4-10l-10.4-10l-10.4,10L93.1,80.1"/>
<path id="path181_11_" opacity="0.27" fill="#D11209" d="M126.6,100.1l-2.6-2.5l18.1-17.5l2.6,2.5L126.6,100.1z"/>
<path id="path183_11_" opacity="0.27" fill="#D11209" d="M134.4,100.1l-10.4-10l10.4-10l10.4,10L134.4,100.1z"/>
<path id="path185_11_" fill="#FFFFFF" d="M147.3,100.1l-2.6-2.5l18.1-17.5l2.6,2.5L147.3,100.1"/>
<path id="path187_11_" fill="#FFFFFF" d="M155.1,100.1l-10.4-10l10.4-10l10.4,10L155.1,100.1"/>
<path id="path189_11_" opacity="0.27" fill="#D11209" d="M162.9,120.1l2.6-2.5l-18.1-17.5l-2.6,2.5L162.9,120.1L162.9,120.1z"/>
<path id="path191_11_" opacity="0.27" fill="#D11209" d="M155.1,120.1l10.4-10l-10.4-10l-10.4,10L155.1,120.1z"/>
<path id="path193_11_" fill="#FFFFFF" d="M142.1,120.1l2.6-2.5l-18.1-17.5l-2.6,2.5L142.1,120.1"/>
<path id="path195_11_" fill="#FFFFFF" d="M134.4,120.1l10.4-10l-10.4-10l-10.4,10L134.4,120.1"/>
<path id="path197_11_" fill="#FFFFFF" d="M139.6,15.1V4.8h-10.4v10.3H139.6L139.6,15.1z"/>
<path id="path199_11_" opacity="0.27" fill="#D11209" d="M160.3,15.1V4.8h-10.4v10.3H160.3z"/>
<path id="path201_11_" opacity="0.27" fill="#D11209" d="M134.4,6.4l-3.9,3.8l3.9,3.8l3.9-3.8L134.4,6.4"/>
<path id="path203_11_" fill="#FFFFFF" d="M155.1,6.4l-3.9,3.8l3.9,3.8l3.9-3.8L155.1,6.4"/>
<path id="path205_11_" fill="#FFFFFF" d="M160.3,35V24.8h-10.4V35H160.3z"/>
<path id="path207_11_" opacity="0.27" fill="#D11209" d="M139.6,35V24.8h-10.4V35H139.6L139.6,35z"/>
<path id="path209_11_" opacity="0.27" fill="#D11209" d="M155.1,26.3l3.9,3.8l-3.9,3.8l-3.9-3.8L155.1,26.3"/>
<path id="path211_11_" fill="#FFFFFF" d="M134.4,26.3l3.9,3.8l-3.9,3.8l-3.9-3.8L134.4,26.3"/>
<path id="path213_11_" fill="#FFFFFF" d="M98.3,55V44.8H87.9V55H98.3L98.3,55z"/>
<path id="path215_11_" opacity="0.27" fill="#D11209" d="M119,55V44.8h-10.4V55H119L119,55z"/>
<path id="path217_11_" opacity="0.27" fill="#D11209" d="M93.1,46.3l-3.9,3.8l3.9,3.8l3.9-3.8L93.1,46.3"/>
<path id="path219_11_" fill="#FFFFFF" d="M113.8,46.3l-3.9,3.8l3.9,3.8l3.9-3.8L113.8,46.3"/>
<path id="path221_11_" fill="#FFFFFF" d="M139.6,55V44.8h-10.4V55H139.6L139.6,55z"/>
<path id="path223_11_" opacity="0.27" fill="#D11209" d="M160.3,55V44.8h-10.4V55H160.3L160.3,55z"/>
<path id="path225_11_" opacity="0.27" fill="#D11209" d="M134.4,46.3l-3.9,3.8l3.9,3.8l3.9-3.8L134.4,46.3"/>
<path id="path227_11_" fill="#FFFFFF" d="M155.1,46.3l-3.9,3.8l3.9,3.8l3.9-3.8L155.1,46.3"/>
<path id="path229_11_" fill="#FFFFFF" d="M119,35V24.8h-10.4V35H119L119,35z"/>
<path id="path231_11_" opacity="0.27" fill="#D11209" d="M98.3,35V24.8H87.9V35H98.3z"/>
<path id="path233_11_" opacity="0.27" fill="#D11209" d="M113.8,26.3l3.9,3.8l-3.9,3.8l-3.9-3.8L113.8,26.3"/>
<path id="path235_11_" fill="#FFFFFF" d="M93.1,26.3l3.9,3.8l-3.9,3.8l-3.9-3.8L93.1,26.3"/>
<path id="path237_11_" fill="#FFFFFF" d="M98.3,15.1V4.8H87.9v10.3H98.3z"/>
<path id="path239_11_" opacity="0.27" fill="#D11209" d="M119,15.1V4.8h-10.4v10.3H119L119,15.1z"/>
<path id="path241_11_" opacity="0.27" fill="#D11209" d="M93.1,6.4l-3.9,3.8l3.9,3.8l3.9-3.8L93.1,6.4"/>
<path id="path243_11_" fill="#FFFFFF" d="M113.8,6.4l-3.9,3.8l3.9,3.8l3.9-3.8L113.8,6.4"/>
<path id="path245_11_" fill="#FFFFFF" d="M119,115.4v-10.3h-10.4v10.3H119L119,115.4z"/>
<path id="path247_11_" opacity="0.27" fill="#D11209" d="M98.3,115.4v-10.3H87.9v10.3H98.3z"/>
<path id="path249_11_" opacity="0.27" fill="#D11209" d="M113.8,113.8l3.9-3.8l-3.9-3.8l-3.9,3.8L113.8,113.8"/>
<path id="path251_11_" fill="#FFFFFF" d="M93.1,113.8l3.9-3.8l-3.9-3.8l-3.9,3.8L93.1,113.8"/>
<path id="path253_11_" opacity="0.27" fill="#D11209" d="M119,95.4V85.1h-10.4v10.3H119L119,95.4z"/>
<path id="path255_11_" fill="#FFFFFF" d="M113.8,93.8l-3.9-3.8l3.9-3.8l3.9,3.8L113.8,93.8"/>
<path id="path257_11_" fill="#FFFFFF" d="M160.3,75.4V65h-10.4v10.4H160.3z"/>
<path id="path259_11_" opacity="0.27" fill="#D11209" d="M139.6,75.4V65h-10.4v10.4H139.6L139.6,75.4z"/>
<path id="path261_11_" opacity="0.27" fill="#D11209" d="M155.1,73.9l3.9-3.8l-3.9-3.8l-3.9,3.8L155.1,73.9"/>
<path id="path263_11_" fill="#FFFFFF" d="M134.4,73.9l3.9-3.8l-3.9-3.8l-3.9,3.8L134.4,73.9"/>
<path id="path265_11_" fill="#FFFFFF" d="M119,75.4V65h-10.4v10.4H119L119,75.4z"/>
<path id="path267_11_" opacity="0.27" fill="#D11209" d="M98.3,75.4V65H87.9v10.4H98.3z"/>
<path id="path269_11_" opacity="0.27" fill="#D11209" d="M113.8,73.9l3.9-3.8l-3.9-3.8l-3.9,3.8L113.8,73.9"/>
<path id="path271_11_" fill="#FFFFFF" d="M93.1,73.9l3.9-3.8l-3.9-3.8l-3.9,3.8L93.1,73.9"/>
<path id="path273_11_" fill="#FFFFFF" d="M139.6,95.4V85.1h-10.4v10.3H139.6L139.6,95.4z"/>
<path id="path275_11_" opacity="0.27" fill="#D11209" d="M160.3,95.4V85.1h-10.4v10.3H160.3z"/>
<path id="path277_11_" opacity="0.27" fill="#D11209" d="M134.4,93.8l-3.9-3.8l3.9-3.8l3.9,3.8L134.4,93.8"/>
<path id="path279_11_" fill="#FFFFFF" d="M155.1,93.8l-3.9-3.8l3.9-3.8l3.9,3.8L155.1,93.8"/>
<path id="path281_11_" fill="#FFFFFF" d="M160.3,115.4v-10.3h-10.4v10.3H160.3z"/>
<path id="path283_11_" opacity="0.27" fill="#D11209" d="M139.6,115.4v-10.3h-10.4v10.3H139.6L139.6,115.4z"/>
<path id="path285_11_" opacity="0.27" fill="#D11209" d="M155.1,113.8l3.9-3.8l-3.9-3.8l-3.9,3.8L155.1,113.8"/>
<path id="path287_11_" fill="#FFFFFF" d="M134.4,113.8l3.9-3.8l-3.9-3.8l-3.9,3.8L134.4,113.8"/>
<path id="path289_11_" opacity="0.27" fill="#D11209" d="M85.3,100.1l-2.6-2.5l18.1-17.5l2.6,2.5L85.3,100.1z"/>
<path id="path291_11_" fill="#FFFFFF" d="M98.3,95.4V85.1H87.9v10.3H98.3z"/>
<path id="path293_11_" opacity="0.27" fill="#D11209" d="M93.1,93.8l-3.9-3.8l3.9-3.8l3.9,3.8L93.1,93.8"/>
<path id="path7_10_" fill="#FFFFFF" d="M144.7,140.6v-20H124v20H144.7L144.7,140.6z"/>
<path id="path9_10_" opacity="0.27" fill="#D11209" d="M165.4,140.6v-20h-20.6v20H165.4z"/>
<path id="path11_10_" fill="#FFFFFF" d="M165.4,160.5v-20h-20.6v20H165.4z"/>
<path id="path13_10_" opacity="0.27" fill="#D11209" d="M144.7,160.5v-20H124v20H144.7L144.7,160.5z"/>
<path id="path15_10_" fill="#FFFFFF" d="M103.4,180.5v-20H82.8v20H103.4L103.4,180.5z"/>
<path id="path17_10_" opacity="0.27" fill="#D11209" d="M124.1,180.5v-20h-20.7v20H124.1L124.1,180.5z"/>
<path id="path19_10_" fill="#FFFFFF" d="M144.7,180.5v-20H124v20H144.7L144.7,180.5z"/>
<path id="path21_10_" opacity="0.27" fill="#D11209" d="M165.4,180.5v-20h-20.6v20H165.4L165.4,180.5z"/>
<path id="path23_10_" fill="#FFFFFF" d="M124.1,160.5v-20h-20.7v20H124.1L124.1,160.5z"/>
<path id="path25_10_" opacity="0.27" fill="#D11209" d="M103.4,160.5v-20H82.8v20H103.4z"/>
<path id="path27_10_" fill="#FFFFFF" d="M103.4,140.6v-20H82.8v20H103.4z"/>
<path id="path29_10_" opacity="0.27" fill="#D11209" d="M124.1,140.6v-20h-20.7v20H124.1L124.1,140.6z"/>
<path id="path31_10_" fill="#FFFFFF" d="M124.1,240.5v-20h-20.7v20H124.1L124.1,240.5z"/>
<path id="path33_10_" opacity="0.27" fill="#D11209" d="M103.4,240.5v-20H82.8v20H103.4z"/>
<path id="path35_10_" fill="#FFFFFF" d="M103.4,220.5v-20H82.8v20H103.4z"/>
<path id="path37_10_" opacity="0.27" fill="#D11209" d="M124.1,220.5v-20h-20.7v20H124.1L124.1,220.5z"/>
<path id="path39_10_" fill="#FFFFFF" d="M165.4,200.5v-20h-20.6v20H165.4z"/>
<path id="path41_10_" opacity="0.27" fill="#D11209" d="M144.7,200.5v-20H124v20H144.7L144.7,200.5z"/>
<path id="path43_10_" fill="#FFFFFF" d="M124.1,200.5v-20h-20.7v20H124.1L124.1,200.5z"/>
<path id="path45_10_" opacity="0.27" fill="#D11209" d="M103.4,200.5v-20H82.8v20H103.4z"/>
<path id="path47_10_" fill="#FFFFFF" d="M144.7,220.5v-20H124v20H144.7L144.7,220.5z"/>
<path id="path49_10_" opacity="0.27" fill="#D11209" d="M165.4,220.5v-20h-20.6v20H165.4z"/>
<path id="path51_10_" fill="#FFFFFF" d="M165.4,240.5v-20h-20.6v20H165.4z"/>
<path id="path53_10_" opacity="0.27" fill="#D11209" d="M144.7,240.5v-20H124v20H144.7L144.7,240.5z"/>
<path id="path55_10_" opacity="0.27" fill="#D11209" d="M142.1,120.4l2.6,2.5l-18.1,17.5L124,138L142.1,120.4L142.1,120.4z"/>
<path id="path57_10_" fill="#FFFFFF" d="M162.8,120.4l2.6,2.5l-18.1,17.5l-2.6-2.5L162.8,120.4"/>
<path id="path59_10_" opacity="0.27" fill="#D11209" d="M147.3,140.6l-2.6,2.5l18.1,17.5l2.6-2.5L147.3,140.6L147.3,140.6z"/>
<path id="path61_10_" fill="#FFFFFF" d="M126.6,140.6L124,143l18.1,17.5l2.6-2.5L126.6,140.6"/>
<path id="path63_10_" opacity="0.27" fill="#D11209" d="M100.8,160.5l2.6,2.5l-18.1,17.5l-2.6-2.5L100.8,160.5L100.8,160.5z"/>
<path id="path65_10_" fill="#FFFFFF" d="M121.5,160.5l2.6,2.5L106,180.5l-2.6-2.5L121.5,160.5"/>
<path id="path67_10_" opacity="0.27" fill="#D11209" d="M142.1,160.5l2.6,2.5l-18.1,17.5l-2.6-2.5L142.1,160.5L142.1,160.5z"/>
<path id="path69_10_" fill="#FFFFFF" d="M162.8,160.5l2.6,2.5l-18.1,17.5l-2.6-2.5L162.8,160.5"/>
<path id="path71_10_" opacity="0.27" fill="#D11209" d="M106,140.6l-2.6,2.5l18.1,17.5l2.6-2.5L106,140.6z"/>
<path id="path73_10_" fill="#FFFFFF" d="M85.3,140.6l-2.6,2.5l18.1,17.5l2.6-2.5L85.3,140.6"/>
<path id="path75_10_" opacity="0.27" fill="#D11209" d="M100.8,120.4l2.6,2.5l-18.1,17.5l-2.6-2.5L100.8,120.4L100.8,120.4z"/>
<path id="path77_10_" fill="#FFFFFF" d="M121.5,120.4l2.6,2.5L106,140.4l-2.6-2.5L121.5,120.4"/>
<path id="path79_10_" opacity="0.27" fill="#D11209" d="M106,240.5l-2.6-2.5l18.1-17.5l2.6,2.5L106,240.5L106,240.5z"/>
<path id="path81_10_" fill="#FFFFFF" d="M85.3,240.5l-2.6-2.5l18.1-17.5l2.6,2.5L85.3,240.5"/>
<path id="path83_10_" opacity="0.27" fill="#D11209" d="M100.8,220.5l2.6-2.5l-18.1-17.5l-2.6,2.5L100.8,220.5z"/>
<path id="path85_10_" fill="#FFFFFF" d="M121.5,220.5l2.6-2.5L106,200.5l-2.6,2.5L121.5,220.5"/>
<path id="path87_10_" opacity="0.27" fill="#D11209" d="M147.3,200.5l-2.6-2.5l18.1-17.5l2.6,2.5L147.3,200.5L147.3,200.5z"/>
<path id="path89_10_" fill="#FFFFFF" d="M126.6,200.5l-2.6-2.5l18.1-17.5l2.6,2.5L126.6,200.5"/>
<path id="path91_10_" opacity="0.27" fill="#D11209" d="M106,200.5l-2.6-2.5l18.1-17.5l2.6,2.5L106,200.5z"/>
<path id="path93_10_" fill="#FFFFFF" d="M85.3,200.5l-2.6-2.5l18.1-17.5l2.6,2.5L85.3,200.5"/>
<path id="path95_10_" opacity="0.27" fill="#D11209" d="M142.1,220.5l2.6-2.5l-18.1-17.5L124,203L142.1,220.5z"/>
<path id="path97_10_" fill="#FFFFFF" d="M162.8,220.5l2.6-2.5l-18.1-17.5l-2.6,2.5L162.8,220.5"/>
<path id="path99_10_" opacity="0.27" fill="#D11209" d="M147.3,240.5l-2.6-2.5l18.1-17.5l2.6,2.5L147.3,240.5L147.3,240.5z"/>
<path id="path101_10_" fill="#FFFFFF" d="M126.6,240.5L124,238l18.1-17.5l2.6,2.5L126.6,240.5"/>
<path id="path103_10_" opacity="0.27" fill="#D11209" d="M126.6,120.4l-2.6,2.5l18.1,17.5l2.6-2.5L126.6,120.4z"/>
<path id="path105_10_" opacity="0.27" fill="#D11209" d="M134.3,120.4l-10.4,10l10.4,10l10.4-10L134.3,120.4z"/>
<path id="path107_10_" fill="#FFFFFF" d="M147.3,120.4l-2.6,2.5l18.1,17.5l2.6-2.5L147.3,120.4"/>
<path id="path109_10_" fill="#FFFFFF" d="M155,120.4l-10.4,10l10.4,10l10.4-10L155,120.4"/>
<path id="path111_10_" opacity="0.27" fill="#D11209" d="M162.8,140.6l2.6,2.5l-18.1,17.5l-2.6-2.5L162.8,140.6L162.8,140.6z"/>
<path id="path113_10_" opacity="0.27" fill="#D11209" d="M155,140.6l10.4,10l-10.4,10l-10.4-10L155,140.6z"/>
<path id="path115_10_" fill="#FFFFFF" d="M142.1,140.6l2.6,2.5l-18.1,17.5l-2.6-2.5L142.1,140.6"/>
<path id="path117_10_" fill="#FFFFFF" d="M134.3,140.6l10.4,10l-10.4,10l-10.4-10L134.3,140.6"/>
<path id="path119_10_" opacity="0.27" fill="#D11209" d="M85.3,160.5l-2.6,2.5l18.1,17.5l2.6-2.5L85.3,160.5z"/>
<path id="path121_10_" opacity="0.27" fill="#D11209" d="M93,160.5l-10.4,10l10.4,10l10.4-10L93,160.5z"/>
<path id="path123_10_" fill="#FFFFFF" d="M106,160.5l-2.6,2.5l18.1,17.5l2.6-2.5L106,160.5"/>
<path id="path125_10_" fill="#FFFFFF" d="M113.7,160.5l-10.4,10l10.4,10l10.4-10L113.7,160.5"/>
<path id="path127_10_" opacity="0.27" fill="#D11209" d="M126.6,160.5L124,163l18.1,17.5l2.6-2.5L126.6,160.5z"/>
<path id="path129_10_" opacity="0.27" fill="#D11209" d="M134.3,160.5l-10.4,10l10.4,10l10.4-10L134.3,160.5z"/>
<path id="path131_10_" fill="#FFFFFF" d="M147.3,160.5l-2.6,2.5l18.1,17.5l2.6-2.5L147.3,160.5"/>
<path id="path133_10_" fill="#FFFFFF" d="M155,160.5l-10.4,10l10.4,10l10.4-10L155,160.5"/>
<path id="path135_10_" opacity="0.27" fill="#D11209" d="M121.5,140.6l2.6,2.5L106,160.5l-2.6-2.5L121.5,140.6L121.5,140.6z"/>
<path id="path137_10_" opacity="0.27" fill="#D11209" d="M113.7,140.6l10.4,10l-10.4,10l-10.4-10L113.7,140.6z"/>
<path id="path139_10_" fill="#FFFFFF" d="M100.8,140.6l2.6,2.5l-18.1,17.5l-2.6-2.5L100.8,140.6"/>
<path id="path141_10_" fill="#FFFFFF" d="M93,140.6l10.4,10l-10.4,10l-10.4-10L93,140.6"/>
<path id="path143_10_" opacity="0.27" fill="#D11209" d="M85.3,120.4l-2.6,2.5l18.1,17.5l2.6-2.5L85.3,120.4z"/>
<path id="path145_10_" opacity="0.27" fill="#D11209" d="M93,120.4l-10.4,10l10.4,10l10.4-10L93,120.4z"/>
<path id="path147_10_" fill="#FFFFFF" d="M106,120.4l-2.6,2.5l18.1,17.5l2.6-2.5L106,120.4"/>
<path id="path149_10_" fill="#FFFFFF" d="M113.7,120.4l-10.4,10l10.4,10l10.4-10L113.7,120.4"/>
<path id="path151_10_" opacity="0.27" fill="#D11209" d="M121.5,240.5l2.6-2.5L106,220.5l-2.6,2.5L121.5,240.5L121.5,240.5z"/>
<path id="path153_10_" opacity="0.27" fill="#D11209" d="M113.7,240.5l10.4-10l-10.4-10l-10.4,10L113.7,240.5z"/>
<path id="path155_10_" fill="#FFFFFF" d="M100.8,240.5l2.6-2.5l-18.1-17.5l-2.6,2.5L100.8,240.5"/>
<path id="path157_10_" fill="#FFFFFF" d="M93,240.5l10.4-10l-10.4-10l-10.4,10L93,240.5"/>
<path id="path159_10_" opacity="0.27" fill="#D11209" d="M93,220.5l-10.4-10l10.4-10l10.4,10L93,220.5z"/>
<path id="path161_10_" fill="#FFFFFF" d="M106,220.5l-2.6-2.5l18.1-17.5l2.6,2.5L106,220.5"/>
<path id="path163_10_" fill="#FFFFFF" d="M113.7,220.5l-10.4-10l10.4-10l10.4,10L113.7,220.5"/>
<path id="path165_10_" opacity="0.27" fill="#D11209" d="M162.8,200.5l2.6-2.5l-18.1-17.5l-2.6,2.5L162.8,200.5L162.8,200.5z"/>
<path id="path167_10_" opacity="0.27" fill="#D11209" d="M155,200.5l10.4-10l-10.4-10l-10.4,10L155,200.5z"/>
<path id="path169_10_" fill="#FFFFFF" d="M142.1,200.5l2.6-2.5l-18.1-17.5L124,183L142.1,200.5"/>
<path id="path171_10_" fill="#FFFFFF" d="M134.3,200.5l10.4-10l-10.4-10l-10.4,10L134.3,200.5"/>
<path id="path173_10_" opacity="0.27" fill="#D11209" d="M121.5,200.5l2.6-2.5L106,180.5l-2.6,2.5L121.5,200.5L121.5,200.5z"/>
<path id="path175_10_" opacity="0.27" fill="#D11209" d="M113.7,200.5l10.4-10l-10.4-10l-10.4,10L113.7,200.5z"/>
<path id="path177_10_" fill="#FFFFFF" d="M100.8,200.5l2.6-2.5l-18.1-17.5l-2.6,2.5L100.8,200.5"/>
<path id="path179_10_" fill="#FFFFFF" d="M93,200.5l10.4-10l-10.4-10l-10.4,10L93,200.5"/>
<path id="path181_10_" opacity="0.27" fill="#D11209" d="M126.6,220.5L124,218l18.1-17.5l2.6,2.5L126.6,220.5z"/>
<path id="path183_10_" opacity="0.27" fill="#D11209" d="M134.3,220.5l-10.4-10l10.4-10l10.4,10L134.3,220.5z"/>
<path id="path185_10_" fill="#FFFFFF" d="M147.3,220.5l-2.6-2.5l18.1-17.5l2.6,2.5L147.3,220.5"/>
<path id="path187_10_" fill="#FFFFFF" d="M155,220.5l-10.4-10l10.4-10l10.4,10L155,220.5"/>
<path id="path189_10_" opacity="0.27" fill="#D11209" d="M162.8,240.5l2.6-2.5l-18.1-17.5l-2.6,2.5L162.8,240.5L162.8,240.5z"/>
<path id="path191_10_" opacity="0.27" fill="#D11209" d="M155,240.5l10.4-10l-10.4-10l-10.4,10L155,240.5z"/>
<path id="path193_10_" fill="#FFFFFF" d="M142.1,240.5l2.6-2.5l-18.1-17.5L124,223L142.1,240.5"/>
<path id="path195_10_" fill="#FFFFFF" d="M134.3,240.5l10.4-10l-10.4-10l-10.4,10L134.3,240.5"/>
<path id="path197_10_" fill="#FFFFFF" d="M139.5,135.5v-10.3h-10.4v10.3H139.5L139.5,135.5z"/>
<path id="path199_10_" opacity="0.27" fill="#D11209" d="M160.2,135.5v-10.3h-10.4v10.3H160.2z"/>
<path id="path201_10_" opacity="0.27" fill="#D11209" d="M134.3,126.8l-3.9,3.8l3.9,3.8l3.9-3.8L134.3,126.8"/>
<path id="path203_10_" fill="#FFFFFF" d="M155,126.8l-3.9,3.8l3.9,3.8l3.9-3.8L155,126.8"/>
<path id="path205_10_" fill="#FFFFFF" d="M160.2,155.5v-10.3h-10.4v10.3H160.2z"/>
<path id="path207_10_" opacity="0.27" fill="#D11209" d="M139.5,155.5v-10.3h-10.4v10.3H139.5L139.5,155.5z"/>
<path id="path209_10_" opacity="0.27" fill="#D11209" d="M155,146.8l3.9,3.8l-3.9,3.8l-3.9-3.8L155,146.8"/>
<path id="path211_10_" fill="#FFFFFF" d="M134.3,146.8l3.9,3.8l-3.9,3.8l-3.9-3.8L134.3,146.8"/>
<path id="path213_10_" fill="#FFFFFF" d="M98.2,175.5v-10.3H87.9v10.3H98.2L98.2,175.5z"/>
<path id="path215_10_" opacity="0.27" fill="#D11209" d="M118.9,175.5v-10.3h-10.4v10.3H118.9L118.9,175.5z"/>
<path id="path217_10_" opacity="0.27" fill="#D11209" d="M93,166.8l-3.9,3.8l3.9,3.8l3.9-3.8L93,166.8"/>
<path id="path219_10_" fill="#FFFFFF" d="M113.7,166.8l-3.9,3.8l3.9,3.8l3.9-3.8L113.7,166.8"/>
<path id="path221_10_" fill="#FFFFFF" d="M139.5,175.5v-10.3h-10.4v10.3H139.5L139.5,175.5z"/>
<path id="path223_10_" opacity="0.27" fill="#D11209" d="M160.2,175.5v-10.3h-10.4v10.3H160.2L160.2,175.5z"/>
<path id="path225_10_" opacity="0.27" fill="#D11209" d="M134.3,166.8l-3.9,3.8l3.9,3.8l3.9-3.8L134.3,166.8"/>
<path id="path227_10_" fill="#FFFFFF" d="M155,166.8l-3.9,3.8l3.9,3.8l3.9-3.8L155,166.8"/>
<path id="path229_10_" fill="#FFFFFF" d="M118.9,155.5v-10.3h-10.4v10.3H118.9L118.9,155.5z"/>
<path id="path231_10_" opacity="0.27" fill="#D11209" d="M98.2,155.5v-10.3H87.9v10.3H98.2z"/>
<path id="path233_10_" opacity="0.27" fill="#D11209" d="M113.7,146.8l3.9,3.8l-3.9,3.8l-3.9-3.8L113.7,146.8"/>
<path id="path235_10_" fill="#FFFFFF" d="M93,146.8l3.9,3.8l-3.9,3.8l-3.9-3.8L93,146.8"/>
<path id="path237_10_" fill="#FFFFFF" d="M98.2,135.5v-10.3H87.9v10.3H98.2z"/>
<path id="path239_10_" opacity="0.27" fill="#D11209" d="M118.9,135.5v-10.3h-10.4v10.3H118.9L118.9,135.5z"/>
<path id="path241_10_" opacity="0.27" fill="#D11209" d="M93,126.8l-3.9,3.8l3.9,3.8l3.9-3.8L93,126.8"/>
<path id="path243_10_" fill="#FFFFFF" d="M113.7,126.8l-3.9,3.8l3.9,3.8l3.9-3.8L113.7,126.8"/>
<path id="path245_10_" fill="#FFFFFF" d="M118.9,235.8v-10.3h-10.4v10.3H118.9L118.9,235.8z"/>
<path id="path247_10_" opacity="0.27" fill="#D11209" d="M98.2,235.8v-10.3H87.9v10.3H98.2z"/>
<path id="path249_10_" opacity="0.27" fill="#D11209" d="M113.7,234.3l3.9-3.8l-3.9-3.8l-3.9,3.8L113.7,234.3"/>
<path id="path251_10_" fill="#FFFFFF" d="M93,234.3l3.9-3.8l-3.9-3.8l-3.9,3.8L93,234.3"/>
<path id="path253_10_" opacity="0.27" fill="#D11209" d="M118.9,215.8v-10.3h-10.4v10.3H118.9L118.9,215.8z"/>
<path id="path255_10_" fill="#FFFFFF" d="M113.7,214.3l-3.9-3.8l3.9-3.8l3.9,3.8L113.7,214.3"/>
<path id="path257_10_" fill="#FFFFFF" d="M160.2,195.8v-10.4h-10.4v10.4H160.2z"/>
<path id="path259_10_" opacity="0.27" fill="#D11209" d="M139.5,195.8v-10.4h-10.4v10.4H139.5L139.5,195.8z"/>
<path id="path261_10_" opacity="0.27" fill="#D11209" d="M155,194.3l3.9-3.8l-3.9-3.8l-3.9,3.8L155,194.3"/>
<path id="path263_10_" fill="#FFFFFF" d="M134.3,194.3l3.9-3.8l-3.9-3.8l-3.9,3.8L134.3,194.3"/>
<path id="path265_10_" fill="#FFFFFF" d="M118.9,195.8v-10.4h-10.4v10.4H118.9L118.9,195.8z"/>
<path id="path267_10_" opacity="0.27" fill="#D11209" d="M98.2,195.8v-10.4H87.9v10.4H98.2z"/>
<path id="path269_10_" opacity="0.27" fill="#D11209" d="M113.7,194.3l3.9-3.8l-3.9-3.8l-3.9,3.8L113.7,194.3"/>
<path id="path271_10_" fill="#FFFFFF" d="M93,194.3l3.9-3.8l-3.9-3.8l-3.9,3.8L93,194.3"/>
<path id="path273_10_" fill="#FFFFFF" d="M139.5,215.8v-10.3h-10.4v10.3H139.5L139.5,215.8z"/>
<path id="path275_10_" opacity="0.27" fill="#D11209" d="M160.2,215.8v-10.3h-10.4v10.3H160.2z"/>
<path id="path277_10_" opacity="0.27" fill="#D11209" d="M134.3,214.3l-3.9-3.8l3.9-3.8l3.9,3.8L134.3,214.3"/>
<path id="path279_10_" fill="#FFFFFF" d="M155,214.3l-3.9-3.8l3.9-3.8l3.9,3.8L155,214.3"/>
<path id="path281_10_" fill="#FFFFFF" d="M160.2,235.8v-10.3h-10.4v10.3H160.2z"/>
<path id="path283_10_" opacity="0.27" fill="#D11209" d="M139.5,235.8v-10.3h-10.4v10.3H139.5L139.5,235.8z"/>
<path id="path285_10_" opacity="0.27" fill="#D11209" d="M155,234.3l3.9-3.8l-3.9-3.8l-3.9,3.8L155,234.3"/>
<path id="path287_10_" fill="#FFFFFF" d="M134.3,234.3l3.9-3.8l-3.9-3.8l-3.9,3.8L134.3,234.3"/>
<path id="path289_10_" opacity="0.27" fill="#D11209" d="M85.3,220.5l-2.6-2.5l18.1-17.5l2.6,2.5L85.3,220.5z"/>
<path id="path291_10_" fill="#FFFFFF" d="M98.2,215.8v-10.3H87.9v10.3H98.2z"/>
<path id="path293_10_" opacity="0.27" fill="#D11209" d="M93,214.3l-3.9-3.8l3.9-3.8l3.9,3.8L93,214.3"/>
<path id="path7_9_" fill="#FFFFFF" d="M62,140.6v-20H41.3v20H62L62,140.6z"/>
<path id="path9_9_" opacity="0.27" fill="#D11209" d="M82.7,140.6v-20H62.1v20H82.7z"/>
<path id="path11_9_" fill="#FFFFFF" d="M82.7,160.5v-20H62.1v20H82.7z"/>
<path id="path13_9_" opacity="0.27" fill="#D11209" d="M62,160.5v-20H41.3v20H62L62,160.5z"/>
<path id="path15_9_" fill="#FFFFFF" d="M20.7,180.5v-20H0.1v20H20.7L20.7,180.5z"/>
<path id="path17_9_" opacity="0.27" fill="#D11209" d="M41.4,180.5v-20H20.7v20H41.4L41.4,180.5z"/>
<path id="path19_9_" fill="#FFFFFF" d="M62,180.5v-20H41.3v20H62L62,180.5z"/>
<path id="path21_9_" opacity="0.27" fill="#D11209" d="M82.7,180.5v-20H62.1v20H82.7L82.7,180.5z"/>
<path id="path23_9_" fill="#FFFFFF" d="M41.4,160.5v-20H20.7v20H41.4L41.4,160.5z"/>
<path id="path25_9_" opacity="0.27" fill="#D11209" d="M20.7,160.5v-20H0.1v20H20.7z"/>
<path id="path27_9_" fill="#FFFFFF" d="M20.7,140.6v-20H0.1v20H20.7z"/>
<path id="path29_9_" opacity="0.27" fill="#D11209" d="M41.4,140.6v-20H20.7v20H41.4L41.4,140.6z"/>
<path id="path31_9_" fill="#FFFFFF" d="M41.4,240.5v-20H20.7v20H41.4L41.4,240.5z"/>
<path id="path33_9_" opacity="0.27" fill="#D11209" d="M20.7,240.5v-20H0.1v20H20.7z"/>
<path id="path35_9_" fill="#FFFFFF" d="M20.7,220.5v-20H0.1v20H20.7z"/>
<path id="path37_9_" opacity="0.27" fill="#D11209" d="M41.4,220.5v-20H20.7v20H41.4L41.4,220.5z"/>
<path id="path39_9_" fill="#FFFFFF" d="M82.7,200.5v-20H62.1v20H82.7z"/>
<path id="path41_9_" opacity="0.27" fill="#D11209" d="M62,200.5v-20H41.3v20H62L62,200.5z"/>
<path id="path43_9_" fill="#FFFFFF" d="M41.4,200.5v-20H20.7v20H41.4L41.4,200.5z"/>
<path id="path45_9_" opacity="0.27" fill="#D11209" d="M20.7,200.5v-20H0.1v20H20.7z"/>
<path id="path47_9_" fill="#FFFFFF" d="M62,220.5v-20H41.3v20H62L62,220.5z"/>
<path id="path49_9_" opacity="0.27" fill="#D11209" d="M82.7,220.5v-20H62.1v20H82.7z"/>
<path id="path51_9_" fill="#FFFFFF" d="M82.7,240.5v-20H62.1v20H82.7z"/>
<path id="path53_9_" opacity="0.27" fill="#D11209" d="M62,240.5v-20H41.3v20H62L62,240.5z"/>
<path id="path55_9_" opacity="0.27" fill="#D11209" d="M59.4,120.4l2.6,2.5l-18.1,17.5l-2.6-2.5L59.4,120.4L59.4,120.4z"/>
<path id="path57_9_" fill="#FFFFFF" d="M80.1,120.4l2.6,2.5l-18.1,17.5L62,138L80.1,120.4"/>
<path id="path59_9_" opacity="0.27" fill="#D11209" d="M64.6,140.6L62,143l18.1,17.5l2.6-2.5L64.6,140.6L64.6,140.6z"/>
<path id="path61_9_" fill="#FFFFFF" d="M43.9,140.6l-2.6,2.5l18.1,17.5l2.6-2.5L43.9,140.6"/>
<path id="path63_9_" opacity="0.27" fill="#D11209" d="M18.1,160.5l2.6,2.5L2.6,180.5L0,178.1L18.1,160.5L18.1,160.5z"/>
<path id="path65_9_" fill="#FFFFFF" d="M38.8,160.5l2.6,2.5l-18.1,17.5l-2.6-2.5L38.8,160.5"/>
<path id="path67_9_" opacity="0.27" fill="#D11209" d="M59.4,160.5L62,163l-18.1,17.5l-2.6-2.5L59.4,160.5L59.4,160.5z"/>
<path id="path69_9_" fill="#FFFFFF" d="M80.1,160.5l2.6,2.5l-18.1,17.5l-2.6-2.5L80.1,160.5"/>
<path id="path71_9_" opacity="0.27" fill="#D11209" d="M23.3,140.6l-2.6,2.5l18.1,17.5l2.6-2.5L23.3,140.6z"/>
<path id="path73_9_" fill="#FFFFFF" d="M2.6,140.6L0,143l18.1,17.5l2.6-2.5L2.6,140.6"/>
<path id="path75_9_" opacity="0.27" fill="#D11209" d="M18.1,120.4l2.6,2.5L2.6,140.4L0,138L18.1,120.4L18.1,120.4z"/>
<path id="path77_9_" fill="#FFFFFF" d="M38.8,120.4l2.6,2.5l-18.1,17.5l-2.6-2.5L38.8,120.4"/>
<path id="path79_9_" opacity="0.27" fill="#D11209" d="M23.3,240.5l-2.6-2.5l18.1-17.5l2.6,2.5L23.3,240.5L23.3,240.5z"/>
<path id="path81_9_" fill="#FFFFFF" d="M2.6,240.5L0,238l18.1-17.5l2.6,2.5L2.6,240.5"/>
<path id="path83_9_" opacity="0.27" fill="#D11209" d="M18.1,220.5l2.6-2.5L2.6,200.5L0,203L18.1,220.5z"/>
<path id="path85_9_" fill="#FFFFFF" d="M38.8,220.5l2.6-2.5l-18.1-17.5l-2.6,2.5L38.8,220.5"/>
<path id="path87_9_" opacity="0.27" fill="#D11209" d="M64.6,200.5l-2.6-2.5l18.1-17.5l2.6,2.5L64.6,200.5L64.6,200.5z"/>
<path id="path89_9_" fill="#FFFFFF" d="M43.9,200.5l-2.6-2.5l18.1-17.5L62,183L43.9,200.5"/>
<path id="path91_9_" opacity="0.27" fill="#D11209" d="M23.3,200.5l-2.6-2.5l18.1-17.5l2.6,2.5L23.3,200.5z"/>
<path id="path93_9_" fill="#FFFFFF" d="M2.6,200.5L0,198.1l18.1-17.5l2.6,2.5L2.6,200.5"/>
<path id="path95_9_" opacity="0.27" fill="#D11209" d="M59.4,220.5L62,218l-18.1-17.5l-2.6,2.5L59.4,220.5z"/>
<path id="path97_9_" fill="#FFFFFF" d="M80.1,220.5l2.6-2.5l-18.1-17.5L62,203L80.1,220.5"/>
<path id="path99_9_" opacity="0.27" fill="#D11209" d="M64.6,240.5L62,238l18.1-17.5l2.6,2.5L64.6,240.5L64.6,240.5z"/>
<path id="path101_9_" fill="#FFFFFF" d="M43.9,240.5l-2.6-2.5l18.1-17.5L62,223L43.9,240.5"/>
<path id="path103_9_" opacity="0.27" fill="#D11209" d="M43.9,120.4l-2.6,2.5l18.1,17.5L62,138L43.9,120.4z"/>
<path id="path105_9_" opacity="0.27" fill="#D11209" d="M51.6,120.4l-10.4,10l10.4,10l10.4-10L51.6,120.4z"/>
<path id="path107_9_" fill="#FFFFFF" d="M64.6,120.4l-2.6,2.5l18.1,17.5l2.6-2.5L64.6,120.4"/>
<path id="path109_9_" fill="#FFFFFF" d="M72.3,120.4l-10.4,10l10.4,10l10.4-10L72.3,120.4"/>
<path id="path111_9_" opacity="0.27" fill="#D11209" d="M80.1,140.6l2.6,2.5l-18.1,17.5l-2.6-2.5L80.1,140.6L80.1,140.6z"/>
<path id="path113_9_" opacity="0.27" fill="#D11209" d="M72.3,140.6l10.4,10l-10.4,10l-10.4-10L72.3,140.6z"/>
<path id="path115_9_" fill="#FFFFFF" d="M59.4,140.6L62,143l-18.1,17.5l-2.6-2.5L59.4,140.6"/>
<path id="path117_9_" fill="#FFFFFF" d="M51.6,140.6l10.4,10l-10.4,10l-10.4-10L51.6,140.6"/>
<path id="path119_9_" opacity="0.27" fill="#D11209" d="M2.6,160.5L0,163l18.1,17.5l2.6-2.5L2.6,160.5z"/>
<path id="path121_9_" opacity="0.27" fill="#D11209" d="M10.4,160.5L0,170.5l10.4,10l10.4-10L10.4,160.5z"/>
<path id="path123_9_" fill="#FFFFFF" d="M23.3,160.5l-2.6,2.5l18.1,17.5l2.6-2.5L23.3,160.5"/>
<path id="path125_9_" fill="#FFFFFF" d="M31.1,160.5l-10.4,10l10.4,10l10.4-10L31.1,160.5"/>
<path id="path127_9_" opacity="0.27" fill="#D11209" d="M43.9,160.5l-2.6,2.5l18.1,17.5l2.6-2.5L43.9,160.5z"/>
<path id="path129_9_" opacity="0.27" fill="#D11209" d="M51.6,160.5l-10.4,10l10.4,10l10.4-10L51.6,160.5z"/>
<path id="path131_9_" fill="#FFFFFF" d="M64.6,160.5L62,163l18.1,17.5l2.6-2.5L64.6,160.5"/>
<path id="path133_9_" fill="#FFFFFF" d="M72.3,160.5l-10.4,10l10.4,10l10.4-10L72.3,160.5"/>
<path id="path135_9_" opacity="0.27" fill="#D11209" d="M38.8,140.6l2.6,2.5l-18.1,17.5l-2.6-2.5L38.8,140.6L38.8,140.6z"/>
<path id="path137_9_" opacity="0.27" fill="#D11209" d="M31.1,140.6l10.4,10l-10.4,10l-10.4-10L31.1,140.6z"/>
<path id="path139_9_" fill="#FFFFFF" d="M18.1,140.6l2.6,2.5L2.6,160.5L0,158.1L18.1,140.6"/>
<path id="path141_9_" fill="#FFFFFF" d="M10.4,140.6l10.4,10l-10.4,10L0,150.5L10.4,140.6"/>
<path id="path143_9_" opacity="0.27" fill="#D11209" d="M2.6,120.4L0,122.9l18.1,17.5l2.6-2.5L2.6,120.4z"/>
<path id="path145_9_" opacity="0.27" fill="#D11209" d="M10.4,120.4L0,130.4l10.4,10l10.4-10L10.4,120.4z"/>
<path id="path147_9_" fill="#FFFFFF" d="M23.3,120.4l-2.6,2.5l18.1,17.5l2.6-2.5L23.3,120.4"/>
<path id="path149_9_" fill="#FFFFFF" d="M31.1,120.4l-10.4,10l10.4,10l10.4-10L31.1,120.4"/>
<path id="path151_9_" opacity="0.27" fill="#D11209" d="M38.8,240.5l2.6-2.5l-18.1-17.5l-2.6,2.5L38.8,240.5L38.8,240.5z"/>
<path id="path153_9_" opacity="0.27" fill="#D11209" d="M31.1,240.5l10.4-10l-10.4-10l-10.4,10L31.1,240.5z"/>
<path id="path155_9_" fill="#FFFFFF" d="M18.1,240.5l2.6-2.5L2.6,220.5L0,223L18.1,240.5"/>
<path id="path157_9_" fill="#FFFFFF" d="M10.4,240.5l10.4-10l-10.4-10L0,230.5L10.4,240.5"/>
<path id="path159_9_" opacity="0.27" fill="#D11209" d="M10.4,220.5L0,210.5l10.4-10l10.4,10L10.4,220.5z"/>
<path id="path161_9_" fill="#FFFFFF" d="M23.3,220.5l-2.6-2.5l18.1-17.5l2.6,2.5L23.3,220.5"/>
<path id="path163_9_" fill="#FFFFFF" d="M31.1,220.5l-10.4-10l10.4-10l10.4,10L31.1,220.5"/>
<path id="path165_9_" opacity="0.27" fill="#D11209" d="M80.1,200.5l2.6-2.5l-18.1-17.5L62,183L80.1,200.5L80.1,200.5z"/>
<path id="path167_9_" opacity="0.27" fill="#D11209" d="M72.3,200.5l10.4-10l-10.4-10l-10.4,10L72.3,200.5z"/>
<path id="path169_9_" fill="#FFFFFF" d="M59.4,200.5l2.6-2.5l-18.1-17.5l-2.6,2.5L59.4,200.5"/>
<path id="path171_9_" fill="#FFFFFF" d="M51.6,200.5l10.4-10l-10.4-10l-10.4,10L51.6,200.5"/>
<path id="path173_9_" opacity="0.27" fill="#D11209" d="M38.8,200.5l2.6-2.5l-18.1-17.5l-2.6,2.5L38.8,200.5L38.8,200.5z"/>
<path id="path175_9_" opacity="0.27" fill="#D11209" d="M31.1,200.5l10.4-10l-10.4-10l-10.4,10L31.1,200.5z"/>
<path id="path177_9_" fill="#FFFFFF" d="M18.1,200.5l2.6-2.5L2.6,180.5L0,183L18.1,200.5"/>
<path id="path179_9_" fill="#FFFFFF" d="M10.4,200.5l10.4-10l-10.4-10L0,190.5L10.4,200.5"/>
<path id="path181_9_" opacity="0.27" fill="#D11209" d="M43.9,220.5l-2.6-2.5l18.1-17.5L62,203L43.9,220.5z"/>
<path id="path183_9_" opacity="0.27" fill="#D11209" d="M51.6,220.5l-10.4-10l10.4-10l10.4,10L51.6,220.5z"/>
<path id="path185_9_" fill="#FFFFFF" d="M64.6,220.5L62,218l18.1-17.5l2.6,2.5L64.6,220.5"/>
<path id="path187_9_" fill="#FFFFFF" d="M72.3,220.5l-10.4-10l10.4-10l10.4,10L72.3,220.5"/>
<path id="path189_9_" opacity="0.27" fill="#D11209" d="M80.1,240.5l2.6-2.5l-18.1-17.5L62,223L80.1,240.5L80.1,240.5z"/>
<path id="path191_9_" opacity="0.27" fill="#D11209" d="M72.3,240.5l10.4-10l-10.4-10l-10.4,10L72.3,240.5z"/>
<path id="path193_9_" fill="#FFFFFF" d="M59.4,240.5L62,238l-18.1-17.5l-2.6,2.5L59.4,240.5"/>
<path id="path195_9_" fill="#FFFFFF" d="M51.6,240.5l10.4-10l-10.4-10l-10.4,10L51.6,240.5"/>
<path id="path197_9_" fill="#FFFFFF" d="M56.8,135.5v-10.3H46.5v10.3H56.8L56.8,135.5z"/>
<path id="path199_9_" opacity="0.27" fill="#D11209" d="M77.5,135.5v-10.3H67.2v10.3H77.5z"/>
<path id="path201_9_" opacity="0.27" fill="#D11209" d="M51.6,126.8l-3.9,3.8l3.9,3.8l3.9-3.8L51.6,126.8"/>
<path id="path203_9_" fill="#FFFFFF" d="M72.3,126.8l-3.9,3.8l3.9,3.8l3.9-3.8L72.3,126.8"/>
<path id="path205_9_" fill="#FFFFFF" d="M77.5,155.5v-10.3H67.2v10.3H77.5z"/>
<path id="path207_9_" opacity="0.27" fill="#D11209" d="M56.8,155.5v-10.3H46.5v10.3H56.8L56.8,155.5z"/>
<path id="path209_9_" opacity="0.27" fill="#D11209" d="M72.3,146.8l3.9,3.8l-3.9,3.8l-3.9-3.8L72.3,146.8"/>
<path id="path211_9_" fill="#FFFFFF" d="M51.6,146.8l3.9,3.8l-3.9,3.8l-3.9-3.8L51.6,146.8"/>
<path id="path213_9_" fill="#FFFFFF" d="M15.5,175.5v-10.3H5.2v10.3H15.5L15.5,175.5z"/>
<path id="path215_9_" opacity="0.27" fill="#D11209" d="M36.2,175.5v-10.3H25.9v10.3H36.2L36.2,175.5z"/>
<path id="path217_9_" opacity="0.27" fill="#D11209" d="M10.4,166.8l-3.9,3.8l3.9,3.8l3.9-3.8L10.4,166.8"/>
<path id="path219_9_" fill="#FFFFFF" d="M31.1,166.8l-3.9,3.8l3.9,3.8l3.9-3.8L31.1,166.8"/>
<path id="path221_9_" fill="#FFFFFF" d="M56.8,175.5v-10.3H46.5v10.3H56.8L56.8,175.5z"/>
<path id="path223_9_" opacity="0.27" fill="#D11209" d="M77.5,175.5v-10.3H67.2v10.3H77.5L77.5,175.5z"/>
<path id="path225_9_" opacity="0.27" fill="#D11209" d="M51.6,166.8l-3.9,3.8l3.9,3.8l3.9-3.8L51.6,166.8"/>
<path id="path227_9_" fill="#FFFFFF" d="M72.3,166.8l-3.9,3.8l3.9,3.8l3.9-3.8L72.3,166.8"/>
<path id="path229_9_" fill="#FFFFFF" d="M36.2,155.5v-10.3H25.9v10.3H36.2L36.2,155.5z"/>
<path id="path231_9_" opacity="0.27" fill="#D11209" d="M15.5,155.5v-10.3H5.2v10.3H15.5z"/>
<path id="path233_9_" opacity="0.27" fill="#D11209" d="M31.1,146.8l3.9,3.8l-3.9,3.8l-3.9-3.8L31.1,146.8"/>
<path id="path235_9_" fill="#FFFFFF" d="M10.4,146.8l3.9,3.8l-3.9,3.8l-3.9-3.8L10.4,146.8"/>
<path id="path237_9_" fill="#FFFFFF" d="M15.5,135.5v-10.3H5.2v10.3H15.5z"/>
<path id="path239_9_" opacity="0.27" fill="#D11209" d="M36.2,135.5v-10.3H25.9v10.3H36.2L36.2,135.5z"/>
<path id="path241_9_" opacity="0.27" fill="#D11209" d="M10.4,126.8l-3.9,3.8l3.9,3.8l3.9-3.8L10.4,126.8"/>
<path id="path243_9_" fill="#FFFFFF" d="M31.1,126.8l-3.9,3.8l3.9,3.8l3.9-3.8L31.1,126.8"/>
<path id="path245_9_" fill="#FFFFFF" d="M36.2,235.8v-10.3H25.9v10.3H36.2L36.2,235.8z"/>
<path id="path247_9_" opacity="0.27" fill="#D11209" d="M15.5,235.8v-10.3H5.2v10.3H15.5z"/>
<path id="path249_9_" opacity="0.27" fill="#D11209" d="M31.1,234.3l3.9-3.8l-3.9-3.8l-3.9,3.8L31.1,234.3"/>
<path id="path251_9_" fill="#FFFFFF" d="M10.4,234.3l3.9-3.8l-3.9-3.8l-3.9,3.8L10.4,234.3"/>
<path id="path253_9_" opacity="0.27" fill="#D11209" d="M36.2,215.8v-10.3H25.9v10.3H36.2L36.2,215.8z"/>
<path id="path255_9_" fill="#FFFFFF" d="M31.1,214.3l-3.9-3.8l3.9-3.8l3.9,3.8L31.1,214.3"/>
<path id="path257_9_" fill="#FFFFFF" d="M77.5,195.8v-10.4H67.2v10.4H77.5z"/>
<path id="path259_9_" opacity="0.27" fill="#D11209" d="M56.8,195.8v-10.4H46.5v10.4H56.8L56.8,195.8z"/>
<path id="path261_9_" opacity="0.27" fill="#D11209" d="M72.3,194.3l3.9-3.8l-3.9-3.8l-3.9,3.8L72.3,194.3"/>
<path id="path263_9_" fill="#FFFFFF" d="M51.6,194.3l3.9-3.8l-3.9-3.8l-3.9,3.8L51.6,194.3"/>
<path id="path265_9_" fill="#FFFFFF" d="M36.2,195.8v-10.4H25.9v10.4H36.2L36.2,195.8z"/>
<path id="path267_9_" opacity="0.27" fill="#D11209" d="M15.5,195.8v-10.4H5.2v10.4H15.5z"/>
<path id="path269_9_" opacity="0.27" fill="#D11209" d="M31.1,194.3l3.9-3.8l-3.9-3.8l-3.9,3.8L31.1,194.3"/>
<path id="path271_9_" fill="#FFFFFF" d="M10.4,194.3l3.9-3.8l-3.9-3.8l-3.9,3.8L10.4,194.3"/>
<path id="path273_9_" fill="#FFFFFF" d="M56.8,215.8v-10.3H46.5v10.3H56.8L56.8,215.8z"/>
<path id="path275_9_" opacity="0.27" fill="#D11209" d="M77.5,215.8v-10.3H67.2v10.3H77.5z"/>
<path id="path277_9_" opacity="0.27" fill="#D11209" d="M51.6,214.3l-3.9-3.8l3.9-3.8l3.9,3.8L51.6,214.3"/>
<path id="path279_9_" fill="#FFFFFF" d="M72.3,214.3l-3.9-3.8l3.9-3.8l3.9,3.8L72.3,214.3"/>
<path id="path281_9_" fill="#FFFFFF" d="M77.5,235.8v-10.3H67.2v10.3H77.5z"/>
<path id="path283_9_" opacity="0.27" fill="#D11209" d="M56.8,235.8v-10.3H46.5v10.3H56.8L56.8,235.8z"/>
<path id="path285_9_" opacity="0.27" fill="#D11209" d="M72.3,234.3l3.9-3.8l-3.9-3.8l-3.9,3.8L72.3,234.3"/>
<path id="path287_9_" fill="#FFFFFF" d="M51.6,234.3l3.9-3.8l-3.9-3.8l-3.9,3.8L51.6,234.3"/>
<path id="path289_9_" opacity="0.27" fill="#D11209" d="M2.6,220.5L0,218l18.1-17.5l2.6,2.5L2.6,220.5z"/>
<path id="path291_9_" fill="#FFFFFF" d="M15.5,215.8v-10.3H5.2v10.3H15.5z"/>
<path id="path293_9_" opacity="0.27" fill="#D11209" d="M10.4,214.3l-3.9-3.8l3.9-3.8l3.9,3.8L10.4,214.3"/>
<path id="path7_8_" fill="#FFFFFF" d="M227.4,20.2v-20h-20.7v20H227.4L227.4,20.2z"/>
<path id="path9_8_" opacity="0.27" fill="#D11209" d="M248.1,20.2v-20h-20.6v20H248.1z"/>
<path id="path11_8_" fill="#FFFFFF" d="M248.1,40.2v-20h-20.6v20H248.1z"/>
<path id="path13_8_" opacity="0.27" fill="#D11209" d="M227.4,40.2v-20h-20.7v20H227.4L227.4,40.2z"/>
<path id="path15_8_" fill="#FFFFFF" d="M186.1,60.2v-20h-20.6v20H186.1L186.1,60.2z"/>
<path id="path17_8_" opacity="0.27" fill="#D11209" d="M206.9,60.2v-20h-20.7v20H206.9L206.9,60.2z"/>
<path id="path19_8_" fill="#FFFFFF" d="M227.4,60.2v-20h-20.7v20H227.4L227.4,60.2z"/>
<path id="path21_8_" opacity="0.27" fill="#D11209" d="M248.1,60.2v-20h-20.6v20H248.1L248.1,60.2z"/>
<path id="path23_8_" fill="#FFFFFF" d="M206.9,40.2v-20h-20.7v20H206.9L206.9,40.2z"/>
<path id="path25_8_" opacity="0.27" fill="#D11209" d="M186.1,40.2v-20h-20.6v20H186.1z"/>
<path id="path27_8_" fill="#FFFFFF" d="M186.1,20.2v-20h-20.6v20H186.1z"/>
<path id="path29_8_" opacity="0.27" fill="#D11209" d="M206.9,20.2v-20h-20.7v20H206.9L206.9,20.2z"/>
<path id="path31_8_" fill="#FFFFFF" d="M206.9,120.1v-20h-20.7v20H206.9L206.9,120.1z"/>
<path id="path33_8_" opacity="0.27" fill="#D11209" d="M186.1,120.1v-20h-20.6v20H186.1z"/>
<path id="path35_8_" fill="#FFFFFF" d="M186.1,100.1v-20h-20.6v20H186.1z"/>
<path id="path37_8_" opacity="0.27" fill="#D11209" d="M206.9,100.1v-20h-20.7v20H206.9L206.9,100.1z"/>
<path id="path39_8_" fill="#FFFFFF" d="M248.1,80.1v-20h-20.6v20H248.1z"/>
<path id="path41_8_" opacity="0.27" fill="#D11209" d="M227.4,80.1v-20h-20.7v20H227.4L227.4,80.1z"/>
<path id="path43_8_" fill="#FFFFFF" d="M206.9,80.1v-20h-20.7v20H206.9L206.9,80.1z"/>
<path id="path45_8_" opacity="0.27" fill="#D11209" d="M186.1,80.1v-20h-20.6v20H186.1z"/>
<path id="path47_8_" fill="#FFFFFF" d="M227.4,100.1v-20h-20.7v20H227.4L227.4,100.1z"/>
<path id="path49_8_" opacity="0.27" fill="#D11209" d="M248.1,100.1v-20h-20.6v20H248.1z"/>
<path id="path51_8_" fill="#FFFFFF" d="M248.1,120.1v-20h-20.6v20H248.1z"/>
<path id="path53_8_" opacity="0.27" fill="#D11209" d="M227.4,120.1v-20h-20.7v20H227.4L227.4,120.1z"/>
<path id="path55_8_" opacity="0.27" fill="#D11209" d="M224.8,0.1l2.6,2.5l-18.1,17.5l-2.6-2.5L224.8,0.1L224.8,0.1z"/>
<path id="path57_8_" fill="#FFFFFF" d="M245.5,0.1l2.6,2.5L230,20.1l-2.6-2.5L245.5,0.1"/>
<path id="path59_8_" opacity="0.27" fill="#D11209" d="M230,20.2l-2.6,2.5l18.1,17.5l2.6-2.5L230,20.2L230,20.2z"/>
<path id="path61_8_" fill="#FFFFFF" d="M209.3,20.2l-2.6,2.5l18.1,17.5l2.6-2.5L209.3,20.2"/>
<path id="path63_8_" opacity="0.27" fill="#D11209" d="M183.6,40.2l2.6,2.5L168,60.2l-2.6-2.5L183.6,40.2L183.6,40.2z"/>
<path id="path65_8_" fill="#FFFFFF" d="M204.3,40.2l2.6,2.5l-18.1,17.5l-2.6-2.5L204.3,40.2"/>
<path id="path67_8_" opacity="0.27" fill="#D11209" d="M224.8,40.2l2.6,2.5l-18.1,17.5l-2.6-2.5L224.8,40.2L224.8,40.2z"/>
<path id="path69_8_" fill="#FFFFFF" d="M245.5,40.2l2.6,2.5L230,60.2l-2.6-2.5L245.5,40.2"/>
<path id="path71_8_" opacity="0.27" fill="#D11209" d="M188.7,20.2l-2.6,2.5l18.1,17.5l2.6-2.5L188.7,20.2z"/>
<path id="path73_8_" fill="#FFFFFF" d="M168,20.2l-2.6,2.5l18.1,17.5l2.6-2.5L168,20.2"/>
<path id="path75_8_" opacity="0.27" fill="#D11209" d="M183.6,0.1l2.6,2.5L168,20.1l-2.6-2.5L183.6,0.1L183.6,0.1z"/>
<path id="path77_8_" fill="#FFFFFF" d="M204.3,0.1l2.6,2.5l-18.1,17.5l-2.6-2.5L204.3,0.1"/>
<path id="path79_8_" opacity="0.27" fill="#D11209" d="M188.7,120.1l-2.6-2.5l18.1-17.5l2.6,2.5L188.7,120.1L188.7,120.1z"/>
<path id="path81_8_" fill="#FFFFFF" d="M168,120.1l-2.6-2.5l18.1-17.5l2.6,2.5L168,120.1"/>
<path id="path83_8_" opacity="0.27" fill="#D11209" d="M183.6,100.1l2.6-2.5L168,80.1l-2.6,2.5L183.6,100.1z"/>
<path id="path85_8_" fill="#FFFFFF" d="M204.3,100.1l2.6-2.5l-18.1-17.5l-2.6,2.5L204.3,100.1"/>
<path id="path87_8_" opacity="0.27" fill="#D11209" d="M230,80.1l-2.6-2.5l18.1-17.5l2.6,2.5L230,80.1L230,80.1z"/>
<path id="path89_8_" fill="#FFFFFF" d="M209.3,80.1l-2.6-2.5l18.1-17.5l2.6,2.5L209.3,80.1"/>
<path id="path91_8_" opacity="0.27" fill="#D11209" d="M188.7,80.1l-2.6-2.5l18.1-17.5l2.6,2.5L188.7,80.1z"/>
<path id="path93_8_" fill="#FFFFFF" d="M168,80.1l-2.6-2.5l18.1-17.5l2.6,2.5L168,80.1"/>
<path id="path95_8_" opacity="0.27" fill="#D11209" d="M224.8,100.1l2.6-2.5l-18.1-17.5l-2.6,2.5L224.8,100.1z"/>
<path id="path97_8_" fill="#FFFFFF" d="M245.5,100.1l2.6-2.5L230,80.1l-2.6,2.5L245.5,100.1"/>
<path id="path99_8_" opacity="0.27" fill="#D11209" d="M230,120.1l-2.6-2.5l18.1-17.5l2.6,2.5L230,120.1L230,120.1z"/>
<path id="path101_8_" fill="#FFFFFF" d="M209.3,120.1l-2.6-2.5l18.1-17.5l2.6,2.5L209.3,120.1"/>
<path id="path103_8_" opacity="0.27" fill="#D11209" d="M209.3,0.1l-2.6,2.5l18.1,17.5l2.6-2.5L209.3,0.1z"/>
<path id="path105_8_" opacity="0.27" fill="#D11209" d="M217.1,0.1l-10.4,10l10.4,10l10.4-10L217.1,0.1z"/>
<path id="path107_8_" fill="#FFFFFF" d="M230,0.1l-2.6,2.5l18.1,17.5l2.6-2.5L230,0.1"/>
<path id="path109_8_" fill="#FFFFFF" d="M237.8,0.1l-10.4,10l10.4,10l10.4-10L237.8,0.1"/>
<path id="path111_8_" opacity="0.27" fill="#D11209" d="M245.5,20.2l2.6,2.5L230,40.2l-2.6-2.5L245.5,20.2L245.5,20.2z"/>
<path id="path113_8_" opacity="0.27" fill="#D11209" d="M237.8,20.2l10.4,10l-10.4,10l-10.4-10L237.8,20.2z"/>
<path id="path115_8_" fill="#FFFFFF" d="M224.8,20.2l2.6,2.5l-18.1,17.5l-2.6-2.5L224.8,20.2"/>
<path id="path117_8_" fill="#FFFFFF" d="M217.1,20.2l10.4,10l-10.4,10l-10.4-10L217.1,20.2"/>
<path id="path119_8_" opacity="0.27" fill="#D11209" d="M168,40.2l-2.6,2.5l18.1,17.5l2.6-2.5L168,40.2z"/>
<path id="path121_8_" opacity="0.27" fill="#D11209" d="M175.8,40.2l-10.4,10l10.4,10l10.4-10L175.8,40.2z"/>
<path id="path123_8_" fill="#FFFFFF" d="M188.7,40.2l-2.6,2.5l18.1,17.5l2.6-2.5L188.7,40.2"/>
<path id="path125_8_" fill="#FFFFFF" d="M196.5,40.2l-10.4,10l10.4,10l10.4-10L196.5,40.2"/>
<path id="path127_8_" opacity="0.27" fill="#D11209" d="M209.3,40.2l-2.6,2.5l18.1,17.5l2.6-2.5L209.3,40.2z"/>
<path id="path129_8_" opacity="0.27" fill="#D11209" d="M217.1,40.2l-10.4,10l10.4,10l10.4-10L217.1,40.2z"/>
<path id="path131_8_" fill="#FFFFFF" d="M230,40.2l-2.6,2.5l18.1,17.5l2.6-2.5L230,40.2"/>
<path id="path133_8_" fill="#FFFFFF" d="M237.8,40.2l-10.4,10l10.4,10l10.4-10L237.8,40.2"/>
<path id="path135_8_" opacity="0.27" fill="#D11209" d="M204.3,20.2l2.6,2.5l-18.1,17.5l-2.6-2.5L204.3,20.2L204.3,20.2z"/>
<path id="path137_8_" opacity="0.27" fill="#D11209" d="M196.5,20.2l10.4,10l-10.4,10l-10.4-10L196.5,20.2z"/>
<path id="path139_8_" fill="#FFFFFF" d="M183.6,20.2l2.6,2.5L168,40.2l-2.6-2.5L183.6,20.2"/>
<path id="path141_8_" fill="#FFFFFF" d="M175.8,20.2l10.4,10l-10.4,10l-10.4-10L175.8,20.2"/>
<path id="path143_8_" opacity="0.27" fill="#D11209" d="M168,0.1l-2.6,2.5l18.1,17.5l2.6-2.5L168,0.1z"/>
<path id="path145_8_" opacity="0.27" fill="#D11209" d="M175.8,0.1l-10.4,10l10.4,10l10.4-10L175.8,0.1z"/>
<path id="path147_8_" fill="#FFFFFF" d="M188.7,0.1l-2.6,2.5l18.1,17.5l2.6-2.5L188.7,0.1"/>
<path id="path149_8_" fill="#FFFFFF" d="M196.5,0.1l-10.4,10l10.4,10l10.4-10L196.5,0.1"/>
<path id="path151_8_" opacity="0.27" fill="#D11209" d="M204.3,120.1l2.6-2.5l-18.1-17.5l-2.6,2.5L204.3,120.1L204.3,120.1z"/>
<path id="path153_8_" opacity="0.27" fill="#D11209" d="M196.5,120.1l10.4-10l-10.4-10l-10.4,10L196.5,120.1z"/>
<path id="path155_8_" fill="#FFFFFF" d="M183.6,120.1l2.6-2.5L168,100.1l-2.6,2.5L183.6,120.1"/>
<path id="path157_8_" fill="#FFFFFF" d="M175.8,120.1l10.4-10l-10.4-10l-10.4,10L175.8,120.1"/>
<path id="path159_8_" opacity="0.27" fill="#D11209" d="M175.8,100.1l-10.4-10l10.4-10l10.4,10L175.8,100.1z"/>
<path id="path161_8_" fill="#FFFFFF" d="M188.7,100.1l-2.6-2.5l18.1-17.5l2.6,2.5L188.7,100.1"/>
<path id="path163_8_" fill="#FFFFFF" d="M196.5,100.1l-10.4-10l10.4-10l10.4,10L196.5,100.1"/>
<path id="path165_8_" opacity="0.27" fill="#D11209" d="M245.5,80.1l2.6-2.5L230,60.2l-2.6,2.5L245.5,80.1L245.5,80.1z"/>
<path id="path167_8_" opacity="0.27" fill="#D11209" d="M237.8,80.1l10.4-10l-10.4-10l-10.4,10L237.8,80.1z"/>
<path id="path169_8_" fill="#FFFFFF" d="M224.8,80.1l2.6-2.5l-18.1-17.5l-2.6,2.5L224.8,80.1"/>
<path id="path171_8_" fill="#FFFFFF" d="M217.1,80.1l10.4-10l-10.4-10l-10.4,10L217.1,80.1"/>
<path id="path173_8_" opacity="0.27" fill="#D11209" d="M204.3,80.1l2.6-2.5l-18.1-17.5l-2.6,2.5L204.3,80.1L204.3,80.1z"/>
<path id="path175_8_" opacity="0.27" fill="#D11209" d="M196.5,80.1l10.4-10l-10.4-10l-10.4,10L196.5,80.1z"/>
<path id="path177_8_" fill="#FFFFFF" d="M183.6,80.1l2.6-2.5L168,60.2l-2.6,2.5L183.6,80.1"/>
<path id="path179_8_" fill="#FFFFFF" d="M175.8,80.1l10.4-10l-10.4-10l-10.4,10L175.8,80.1"/>
<path id="path181_8_" opacity="0.27" fill="#D11209" d="M209.3,100.1l-2.6-2.5l18.1-17.5l2.6,2.5L209.3,100.1z"/>
<path id="path183_8_" opacity="0.27" fill="#D11209" d="M217.1,100.1l-10.4-10l10.4-10l10.4,10L217.1,100.1z"/>
<path id="path185_8_" fill="#FFFFFF" d="M230,100.1l-2.6-2.5l18.1-17.5l2.6,2.5L230,100.1"/>
<path id="path187_8_" fill="#FFFFFF" d="M237.8,100.1l-10.4-10l10.4-10l10.4,10L237.8,100.1"/>
<path id="path189_8_" opacity="0.27" fill="#D11209" d="M245.5,120.1l2.6-2.5L230,100.1l-2.6,2.5L245.5,120.1L245.5,120.1z"/>
<path id="path191_8_" opacity="0.27" fill="#D11209" d="M237.8,120.1l10.4-10l-10.4-10l-10.4,10L237.8,120.1z"/>
<path id="path193_8_" fill="#FFFFFF" d="M224.8,120.1l2.6-2.5l-18.1-17.5l-2.6,2.5L224.8,120.1"/>
<path id="path195_8_" fill="#FFFFFF" d="M217.1,120.1l10.4-10l-10.4-10l-10.4,10L217.1,120.1"/>
<path id="path197_8_" fill="#FFFFFF" d="M222.3,15.1V4.9h-10.4v10.3H222.3L222.3,15.1z"/>
<path id="path199_8_" opacity="0.27" fill="#D11209" d="M243,15.1V4.9h-10.4v10.3H243z"/>
<path id="path201_8_" opacity="0.27" fill="#D11209" d="M217.1,6.4l-3.9,3.8l3.9,3.8l3.9-3.8L217.1,6.4"/>
<path id="path203_8_" fill="#FFFFFF" d="M237.8,6.4l-3.9,3.8l3.9,3.8l3.9-3.8L237.8,6.4"/>
<path id="path205_8_" fill="#FFFFFF" d="M243,35.1V24.9h-10.4v10.3H243z"/>
<path id="path207_8_" opacity="0.27" fill="#D11209" d="M222.3,35.1V24.9h-10.4v10.3H222.3L222.3,35.1z"/>
<path id="path209_8_" opacity="0.27" fill="#D11209" d="M237.8,26.4l3.9,3.8l-3.9,3.8l-3.9-3.8L237.8,26.4"/>
<path id="path211_8_" fill="#FFFFFF" d="M217.1,26.4l3.9,3.8l-3.9,3.8l-3.9-3.8L217.1,26.4"/>
<path id="path213_8_" fill="#FFFFFF" d="M181,55.1V44.8h-10.4v10.3H181L181,55.1z"/>
<path id="path215_8_" opacity="0.27" fill="#D11209" d="M201.7,55.1V44.8h-10.4v10.3H201.7L201.7,55.1z"/>
<path id="path217_8_" opacity="0.27" fill="#D11209" d="M175.8,46.4l-3.9,3.8l3.9,3.8l3.9-3.8L175.8,46.4"/>
<path id="path219_8_" fill="#FFFFFF" d="M196.5,46.4l-3.9,3.8l3.9,3.8l3.9-3.8L196.5,46.4"/>
<path id="path221_8_" fill="#FFFFFF" d="M222.3,55.1V44.8h-10.4v10.3H222.3L222.3,55.1z"/>
<path id="path223_8_" opacity="0.27" fill="#D11209" d="M243,55.1V44.8h-10.4v10.3H243L243,55.1z"/>
<path id="path225_8_" opacity="0.27" fill="#D11209" d="M217.1,46.4l-3.9,3.8l3.9,3.8l3.9-3.8L217.1,46.4"/>
<path id="path227_8_" fill="#FFFFFF" d="M237.8,46.4l-3.9,3.8l3.9,3.8l3.9-3.8L237.8,46.4"/>
<path id="path229_8_" fill="#FFFFFF" d="M201.7,35.1V24.9h-10.4v10.3H201.7L201.7,35.1z"/>
<path id="path231_8_" opacity="0.27" fill="#D11209" d="M181,35.1V24.9h-10.4v10.3H181z"/>
<path id="path233_8_" opacity="0.27" fill="#D11209" d="M196.5,26.4l3.9,3.8l-3.9,3.8l-3.9-3.8L196.5,26.4"/>
<path id="path235_8_" fill="#FFFFFF" d="M175.8,26.4l3.9,3.8l-3.9,3.8l-3.9-3.8L175.8,26.4"/>
<path id="path237_8_" fill="#FFFFFF" d="M181,15.1V4.9h-10.4v10.3H181z"/>
<path id="path239_8_" opacity="0.27" fill="#D11209" d="M201.7,15.1V4.9h-10.4v10.3H201.7L201.7,15.1z"/>
<path id="path241_8_" opacity="0.27" fill="#D11209" d="M175.8,6.4l-3.9,3.8l3.9,3.8l3.9-3.8L175.8,6.4"/>
<path id="path243_8_" fill="#FFFFFF" d="M196.5,6.4l-3.9,3.8l3.9,3.8l3.9-3.8L196.5,6.4"/>
<path id="path245_8_" fill="#FFFFFF" d="M201.7,115.5v-10.3h-10.4v10.3H201.7L201.7,115.5z"/>
<path id="path247_8_" opacity="0.27" fill="#D11209" d="M181,115.5v-10.3h-10.4v10.3H181z"/>
<path id="path249_8_" opacity="0.27" fill="#D11209" d="M196.5,113.9l3.9-3.8l-3.9-3.8l-3.9,3.8L196.5,113.9"/>
<path id="path251_8_" fill="#FFFFFF" d="M175.8,113.9l3.9-3.8l-3.9-3.8l-3.9,3.8L175.8,113.9"/>
<path id="path253_8_" opacity="0.27" fill="#D11209" d="M201.7,95.5V85.2h-10.4v10.3H201.7L201.7,95.5z"/>
<path id="path255_8_" fill="#FFFFFF" d="M196.5,93.9l-3.9-3.8l3.9-3.8l3.9,3.8L196.5,93.9"/>
<path id="path257_8_" fill="#FFFFFF" d="M243,75.5V65.1h-10.4v10.4H243z"/>
<path id="path259_8_" opacity="0.27" fill="#D11209" d="M222.3,75.5V65.1h-10.4v10.4H222.3L222.3,75.5z"/>
<path id="path261_8_" opacity="0.27" fill="#D11209" d="M237.8,73.9l3.9-3.8l-3.9-3.8l-3.9,3.8L237.8,73.9"/>
<path id="path263_8_" fill="#FFFFFF" d="M217.1,73.9l3.9-3.8l-3.9-3.8l-3.9,3.8L217.1,73.9"/>
<path id="path265_8_" fill="#FFFFFF" d="M201.7,75.5V65.1h-10.4v10.4H201.7L201.7,75.5z"/>
<path id="path267_8_" opacity="0.27" fill="#D11209" d="M181,75.5V65.1h-10.4v10.4H181z"/>
<path id="path269_8_" opacity="0.27" fill="#D11209" d="M196.5,73.9l3.9-3.8l-3.9-3.8l-3.9,3.8L196.5,73.9"/>
<path id="path271_8_" fill="#FFFFFF" d="M175.8,73.9l3.9-3.8l-3.9-3.8l-3.9,3.8L175.8,73.9"/>
<path id="path273_8_" fill="#FFFFFF" d="M222.3,95.5V85.2h-10.4v10.3H222.3L222.3,95.5z"/>
<path id="path275_8_" opacity="0.27" fill="#D11209" d="M243,95.5V85.2h-10.4v10.3H243z"/>
<path id="path277_8_" opacity="0.27" fill="#D11209" d="M217.1,93.9l-3.9-3.8l3.9-3.8l3.9,3.8L217.1,93.9"/>
<path id="path279_8_" fill="#FFFFFF" d="M237.8,93.9l-3.9-3.8l3.9-3.8l3.9,3.8L237.8,93.9"/>
<path id="path281_8_" fill="#FFFFFF" d="M243,115.5v-10.3h-10.4v10.3H243z"/>
<path id="path283_8_" opacity="0.27" fill="#D11209" d="M222.3,115.5v-10.3h-10.4v10.3H222.3L222.3,115.5z"/>
<path id="path285_8_" opacity="0.27" fill="#D11209" d="M237.8,113.9l3.9-3.8l-3.9-3.8l-3.9,3.8L237.8,113.9"/>
<path id="path287_8_" fill="#FFFFFF" d="M217.1,113.9l3.9-3.8l-3.9-3.8l-3.9,3.8L217.1,113.9"/>
<path id="path289_8_" opacity="0.27" fill="#D11209" d="M168,100.1l-2.6-2.5l18.1-17.5l2.6,2.5L168,100.1z"/>
<path id="path291_8_" fill="#FFFFFF" d="M181,95.5V85.2h-10.4v10.3H181z"/>
<path id="path293_8_" opacity="0.27" fill="#D11209" d="M175.8,93.9l-3.9-3.8l3.9-3.8l3.9,3.8L175.8,93.9"/>
<path id="path7_7_" fill="#FFFFFF" d="M227.4,140.6v-20h-20.7v20H227.4L227.4,140.6z"/>
<path id="path9_7_" opacity="0.27" fill="#D11209" d="M248.1,140.6v-20h-20.6v20H248.1z"/>
<path id="path11_7_" fill="#FFFFFF" d="M248.1,160.6v-20h-20.6v20H248.1z"/>
<path id="path13_7_" opacity="0.27" fill="#D11209" d="M227.4,160.6v-20h-20.7v20H227.4L227.4,160.6z"/>
<path id="path15_7_" fill="#FFFFFF" d="M186.1,180.6v-20h-20.6v20H186.1L186.1,180.6z"/>
<path id="path17_7_" opacity="0.27" fill="#D11209" d="M206.8,180.6v-20h-20.7v20H206.8L206.8,180.6z"/>
<path id="path19_7_" fill="#FFFFFF" d="M227.4,180.6v-20h-20.7v20H227.4L227.4,180.6z"/>
<path id="path21_7_" opacity="0.27" fill="#D11209" d="M248.1,180.6v-20h-20.6v20H248.1L248.1,180.6z"/>
<path id="path23_7_" fill="#FFFFFF" d="M206.8,160.6v-20h-20.7v20H206.8L206.8,160.6z"/>
<path id="path25_7_" opacity="0.27" fill="#D11209" d="M186.1,160.6v-20h-20.6v20H186.1z"/>
<path id="path27_7_" fill="#FFFFFF" d="M186.1,140.6v-20h-20.6v20H186.1z"/>
<path id="path29_7_" opacity="0.27" fill="#D11209" d="M206.8,140.6v-20h-20.7v20H206.8L206.8,140.6z"/>
<path id="path31_7_" fill="#FFFFFF" d="M206.8,240.6v-20h-20.7v20H206.8L206.8,240.6z"/>
<path id="path33_7_" opacity="0.27" fill="#D11209" d="M186.1,240.6v-20h-20.6v20H186.1z"/>
<path id="path35_7_" fill="#FFFFFF" d="M186.1,220.6v-20h-20.6v20H186.1z"/>
<path id="path37_7_" opacity="0.27" fill="#D11209" d="M206.8,220.6v-20h-20.7v20H206.8L206.8,220.6z"/>
<path id="path39_7_" fill="#FFFFFF" d="M248.1,200.6v-20h-20.6v20H248.1z"/>
<path id="path41_7_" opacity="0.27" fill="#D11209" d="M227.4,200.6v-20h-20.7v20H227.4L227.4,200.6z"/>
<path id="path43_7_" fill="#FFFFFF" d="M206.8,200.6v-20h-20.7v20H206.8L206.8,200.6z"/>
<path id="path45_7_" opacity="0.27" fill="#D11209" d="M186.1,200.6v-20h-20.6v20H186.1z"/>
<path id="path47_7_" fill="#FFFFFF" d="M227.4,220.6v-20h-20.7v20H227.4L227.4,220.6z"/>
<path id="path49_7_" opacity="0.27" fill="#D11209" d="M248.1,220.6v-20h-20.6v20H248.1z"/>
<path id="path51_7_" fill="#FFFFFF" d="M248.1,240.6v-20h-20.6v20H248.1z"/>
<path id="path53_7_" opacity="0.27" fill="#D11209" d="M227.4,240.6v-20h-20.7v20H227.4L227.4,240.6z"/>
<path id="path55_7_" opacity="0.27" fill="#D11209" d="M224.8,120.5l2.6,2.5l-18.1,17.5l-2.6-2.5L224.8,120.5L224.8,120.5z"/>
<path id="path57_7_" fill="#FFFFFF" d="M245.5,120.5l2.6,2.5L230,140.5l-2.6-2.5L245.5,120.5"/>
<path id="path59_7_" opacity="0.27" fill="#D11209" d="M230,140.6l-2.6,2.5l18.1,17.5l2.6-2.5L230,140.6L230,140.6z"/>
<path id="path61_7_" fill="#FFFFFF" d="M209.2,140.6l-2.6,2.5l18.1,17.5l2.6-2.5L209.2,140.6"/>
<path id="path63_7_" opacity="0.27" fill="#D11209" d="M183.5,160.6l2.6,2.5L168,180.6l-2.6-2.5L183.5,160.6L183.5,160.6z"/>
<path id="path65_7_" fill="#FFFFFF" d="M204.2,160.6l2.6,2.5l-18.1,17.5l-2.6-2.5L204.2,160.6"/>
<path id="path67_7_" opacity="0.27" fill="#D11209" d="M224.8,160.6l2.6,2.5l-18.1,17.5l-2.6-2.5L224.8,160.6L224.8,160.6z"/>
<path id="path69_7_" fill="#FFFFFF" d="M245.5,160.6l2.6,2.5L230,180.6l-2.6-2.5L245.5,160.6"/>
<path id="path71_7_" opacity="0.27" fill="#D11209" d="M188.7,140.6l-2.6,2.5l18.1,17.5l2.6-2.5L188.7,140.6z"/>
<path id="path73_7_" fill="#FFFFFF" d="M168,140.6l-2.6,2.5l18.1,17.5l2.6-2.5L168,140.6"/>
<path id="path75_7_" opacity="0.27" fill="#D11209" d="M183.5,120.5l2.6,2.5L168,140.5l-2.6-2.5L183.5,120.5L183.5,120.5z"/>
<path id="path77_7_" fill="#FFFFFF" d="M204.2,120.5l2.6,2.5l-18.1,17.5l-2.6-2.5L204.2,120.5"/>
<path id="path79_7_" opacity="0.27" fill="#D11209" d="M188.7,240.6l-2.6-2.5l18.1-17.5l2.6,2.5L188.7,240.6L188.7,240.6z"/>
<path id="path81_7_" fill="#FFFFFF" d="M168,240.6l-2.6-2.5l18.1-17.5l2.6,2.5L168,240.6"/>
<path id="path83_7_" opacity="0.27" fill="#D11209" d="M183.5,220.6l2.6-2.5L168,200.6l-2.6,2.5L183.5,220.6z"/>
<path id="path85_7_" fill="#FFFFFF" d="M204.2,220.6l2.6-2.5l-18.1-17.5l-2.6,2.5L204.2,220.6"/>
<path id="path87_7_" opacity="0.27" fill="#D11209" d="M230,200.6l-2.6-2.5l18.1-17.5l2.6,2.5L230,200.6L230,200.6z"/>
<path id="path89_7_" fill="#FFFFFF" d="M209.2,200.6l-2.6-2.5l18.1-17.5l2.6,2.5L209.2,200.6"/>
<path id="path91_7_" opacity="0.27" fill="#D11209" d="M188.7,200.6l-2.6-2.5l18.1-17.5l2.6,2.5L188.7,200.6z"/>
<path id="path93_7_" fill="#FFFFFF" d="M168,200.6l-2.6-2.5l18.1-17.5l2.6,2.5L168,200.6"/>
<path id="path95_7_" opacity="0.27" fill="#D11209" d="M224.8,220.6l2.6-2.5l-18.1-17.5l-2.6,2.5L224.8,220.6z"/>
<path id="path97_7_" fill="#FFFFFF" d="M245.5,220.6l2.6-2.5L230,200.6l-2.6,2.5L245.5,220.6"/>
<path id="path99_7_" opacity="0.27" fill="#D11209" d="M230,240.6l-2.6-2.5l18.1-17.5l2.6,2.5L230,240.6L230,240.6z"/>
<path id="path101_7_" fill="#FFFFFF" d="M209.2,240.6l-2.6-2.5l18.1-17.5l2.6,2.5L209.2,240.6"/>
<path id="path103_7_" opacity="0.27" fill="#D11209" d="M209.2,120.5l-2.6,2.5l18.1,17.5l2.6-2.5L209.2,120.5z"/>
<path id="path105_7_" opacity="0.27" fill="#D11209" d="M217,120.5l-10.4,10l10.4,10l10.4-10L217,120.5z"/>
<path id="path107_7_" fill="#FFFFFF" d="M230,120.5l-2.6,2.5l18.1,17.5l2.6-2.5L230,120.5"/>
<path id="path109_7_" fill="#FFFFFF" d="M237.7,120.5l-10.4,10l10.4,10l10.4-10L237.7,120.5"/>
<path id="path111_7_" opacity="0.27" fill="#D11209" d="M245.5,140.6l2.6,2.5L230,160.6l-2.6-2.5L245.5,140.6L245.5,140.6z"/>
<path id="path113_7_" opacity="0.27" fill="#D11209" d="M237.7,140.6l10.4,10l-10.4,10l-10.4-10L237.7,140.6z"/>
<path id="path115_7_" fill="#FFFFFF" d="M224.8,140.6l2.6,2.5l-18.1,17.5l-2.6-2.5L224.8,140.6"/>
<path id="path117_7_" fill="#FFFFFF" d="M217,140.6l10.4,10l-10.4,10l-10.4-10L217,140.6"/>
<path id="path119_7_" opacity="0.27" fill="#D11209" d="M168,160.6l-2.6,2.5l18.1,17.5l2.6-2.5L168,160.6z"/>
<path id="path121_7_" opacity="0.27" fill="#D11209" d="M175.7,160.6l-10.4,10l10.4,10l10.4-10L175.7,160.6z"/>
<path id="path123_7_" fill="#FFFFFF" d="M188.7,160.6l-2.6,2.5l18.1,17.5l2.6-2.5L188.7,160.6"/>
<path id="path125_7_" fill="#FFFFFF" d="M196.4,160.6l-10.4,10l10.4,10l10.4-10L196.4,160.6"/>
<path id="path127_7_" opacity="0.27" fill="#D11209" d="M209.2,160.6l-2.6,2.5l18.1,17.5l2.6-2.5L209.2,160.6z"/>
<path id="path129_7_" opacity="0.27" fill="#D11209" d="M217,160.6l-10.4,10l10.4,10l10.4-10L217,160.6z"/>
<path id="path131_7_" fill="#FFFFFF" d="M230,160.6l-2.6,2.5l18.1,17.5l2.6-2.5L230,160.6"/>
<path id="path133_7_" fill="#FFFFFF" d="M237.7,160.6l-10.4,10l10.4,10l10.4-10L237.7,160.6"/>
<path id="path135_7_" opacity="0.27" fill="#D11209" d="M204.2,140.6l2.6,2.5l-18.1,17.5l-2.6-2.5L204.2,140.6L204.2,140.6z"/>
<path id="path137_7_" opacity="0.27" fill="#D11209" d="M196.4,140.6l10.4,10l-10.4,10l-10.4-10L196.4,140.6z"/>
<path id="path139_7_" fill="#FFFFFF" d="M183.5,140.6l2.6,2.5L168,160.6l-2.6-2.5L183.5,140.6"/>
<path id="path141_7_" fill="#FFFFFF" d="M175.7,140.6l10.4,10l-10.4,10l-10.4-10L175.7,140.6"/>
<path id="path143_7_" opacity="0.27" fill="#D11209" d="M168,120.5l-2.6,2.5l18.1,17.5l2.6-2.5L168,120.5z"/>
<path id="path145_7_" opacity="0.27" fill="#D11209" d="M175.7,120.5l-10.4,10l10.4,10l10.4-10L175.7,120.5z"/>
<path id="path147_7_" fill="#FFFFFF" d="M188.7,120.5l-2.6,2.5l18.1,17.5l2.6-2.5L188.7,120.5"/>
<path id="path149_7_" fill="#FFFFFF" d="M196.4,120.5l-10.4,10l10.4,10l10.4-10L196.4,120.5"/>
<path id="path151_7_" opacity="0.27" fill="#D11209" d="M204.2,240.6l2.6-2.5l-18.1-17.5l-2.6,2.5L204.2,240.6L204.2,240.6z"/>
<path id="path153_7_" opacity="0.27" fill="#D11209" d="M196.4,240.6l10.4-10l-10.4-10l-10.4,10L196.4,240.6z"/>
<path id="path155_7_" fill="#FFFFFF" d="M183.5,240.6l2.6-2.5L168,220.6l-2.6,2.5L183.5,240.6"/>
<path id="path157_7_" fill="#FFFFFF" d="M175.7,240.6l10.4-10l-10.4-10l-10.4,10L175.7,240.6"/>
<path id="path159_7_" opacity="0.27" fill="#D11209" d="M175.7,220.6l-10.4-10l10.4-10l10.4,10L175.7,220.6z"/>
<path id="path161_7_" fill="#FFFFFF" d="M188.7,220.6l-2.6-2.5l18.1-17.5l2.6,2.5L188.7,220.6"/>
<path id="path163_7_" fill="#FFFFFF" d="M196.4,220.6l-10.4-10l10.4-10l10.4,10L196.4,220.6"/>
<path id="path165_7_" opacity="0.27" fill="#D11209" d="M245.5,200.6l2.6-2.5L230,180.6l-2.6,2.5L245.5,200.6L245.5,200.6z"/>
<path id="path167_7_" opacity="0.27" fill="#D11209" d="M237.7,200.6l10.4-10l-10.4-10l-10.4,10L237.7,200.6z"/>
<path id="path169_7_" fill="#FFFFFF" d="M224.8,200.6l2.6-2.5l-18.1-17.5l-2.6,2.5L224.8,200.6"/>
<path id="path171_7_" fill="#FFFFFF" d="M217,200.6l10.4-10l-10.4-10l-10.4,10L217,200.6"/>
<path id="path173_7_" opacity="0.27" fill="#D11209" d="M204.2,200.6l2.6-2.5l-18.1-17.5l-2.6,2.5L204.2,200.6L204.2,200.6z"/>
<path id="path175_7_" opacity="0.27" fill="#D11209" d="M196.4,200.6l10.4-10l-10.4-10l-10.4,10L196.4,200.6z"/>
<path id="path177_7_" fill="#FFFFFF" d="M183.5,200.6l2.6-2.5L168,180.6l-2.6,2.5L183.5,200.6"/>
<path id="path179_7_" fill="#FFFFFF" d="M175.7,200.6l10.4-10l-10.4-10l-10.4,10L175.7,200.6"/>
<path id="path181_7_" opacity="0.27" fill="#D11209" d="M209.2,220.6l-2.6-2.5l18.1-17.5l2.6,2.5L209.2,220.6z"/>
<path id="path183_7_" opacity="0.27" fill="#D11209" d="M217,220.6l-10.4-10l10.4-10l10.4,10L217,220.6z"/>
<path id="path185_7_" fill="#FFFFFF" d="M230,220.6l-2.6-2.5l18.1-17.5l2.6,2.5L230,220.6"/>
<path id="path187_7_" fill="#FFFFFF" d="M237.7,220.6l-10.4-10l10.4-10l10.4,10L237.7,220.6"/>
<path id="path189_7_" opacity="0.27" fill="#D11209" d="M245.5,240.6l2.6-2.5L230,220.6l-2.6,2.5L245.5,240.6L245.5,240.6z"/>
<path id="path191_7_" opacity="0.27" fill="#D11209" d="M237.7,240.6l10.4-10l-10.4-10l-10.4,10L237.7,240.6z"/>
<path id="path193_7_" fill="#FFFFFF" d="M224.8,240.6l2.6-2.5l-18.1-17.5l-2.6,2.5L224.8,240.6"/>
<path id="path195_7_" fill="#FFFFFF" d="M217,240.6l10.4-10l-10.4-10l-10.4,10L217,240.6"/>
<path id="path197_7_" fill="#FFFFFF" d="M222.2,135.6v-10.3h-10.4v10.3H222.2L222.2,135.6z"/>
<path id="path199_7_" opacity="0.27" fill="#D11209" d="M242.9,135.6v-10.3h-10.4v10.3H242.9z"/>
<path id="path201_7_" opacity="0.27" fill="#D11209" d="M217,126.9l-3.9,3.8l3.9,3.8l3.9-3.8L217,126.9"/>
<path id="path203_7_" fill="#FFFFFF" d="M237.7,126.9l-3.9,3.8l3.9,3.8l3.9-3.8L237.7,126.9"/>
<path id="path205_7_" fill="#FFFFFF" d="M242.9,155.5v-10.3h-10.4v10.3H242.9z"/>
<path id="path207_7_" opacity="0.27" fill="#D11209" d="M222.2,155.5v-10.3h-10.4v10.3H222.2L222.2,155.5z"/>
<path id="path209_7_" opacity="0.27" fill="#D11209" d="M237.7,146.9l3.9,3.8l-3.9,3.8l-3.9-3.8L237.7,146.9"/>
<path id="path211_7_" fill="#FFFFFF" d="M217,146.9l3.9,3.8l-3.9,3.8l-3.9-3.8L217,146.9"/>
<path id="path213_7_" fill="#FFFFFF" d="M180.9,175.5v-10.3h-10.4v10.3H180.9L180.9,175.5z"/>
<path id="path215_7_" opacity="0.27" fill="#D11209" d="M201.6,175.5v-10.3h-10.4v10.3H201.6L201.6,175.5z"/>
<path id="path217_7_" opacity="0.27" fill="#D11209" d="M175.7,166.8l-3.9,3.8l3.9,3.8l3.9-3.8L175.7,166.8"/>
<path id="path219_7_" fill="#FFFFFF" d="M196.4,166.8l-3.9,3.8l3.9,3.8l3.9-3.8L196.4,166.8"/>
<path id="path221_7_" fill="#FFFFFF" d="M222.2,175.5v-10.3h-10.4v10.3H222.2L222.2,175.5z"/>
<path id="path223_7_" opacity="0.27" fill="#D11209" d="M242.9,175.5v-10.3h-10.4v10.3H242.9L242.9,175.5z"/>
<path id="path225_7_" opacity="0.27" fill="#D11209" d="M217,166.8l-3.9,3.8l3.9,3.8l3.9-3.8L217,166.8"/>
<path id="path227_7_" fill="#FFFFFF" d="M237.7,166.8l-3.9,3.8l3.9,3.8l3.9-3.8L237.7,166.8"/>
<path id="path229_7_" fill="#FFFFFF" d="M201.6,155.5v-10.3h-10.4v10.3H201.6L201.6,155.5z"/>
<path id="path231_7_" opacity="0.27" fill="#D11209" d="M180.9,155.5v-10.3h-10.4v10.3H180.9z"/>
<path id="path233_7_" opacity="0.27" fill="#D11209" d="M196.4,146.9l3.9,3.8l-3.9,3.8l-3.9-3.8L196.4,146.9"/>
<path id="path235_7_" fill="#FFFFFF" d="M175.7,146.9l3.9,3.8l-3.9,3.8l-3.9-3.8L175.7,146.9"/>
<path id="path237_7_" fill="#FFFFFF" d="M180.9,135.6v-10.3h-10.4v10.3H180.9z"/>
<path id="path239_7_" opacity="0.27" fill="#D11209" d="M201.6,135.6v-10.3h-10.4v10.3H201.6L201.6,135.6z"/>
<path id="path241_7_" opacity="0.27" fill="#D11209" d="M175.7,126.9l-3.9,3.8l3.9,3.8l3.9-3.8L175.7,126.9"/>
<path id="path243_7_" fill="#FFFFFF" d="M196.4,126.9l-3.9,3.8l3.9,3.8l3.9-3.8L196.4,126.9"/>
<path id="path245_7_" fill="#FFFFFF" d="M201.6,235.9v-10.3h-10.4v10.3H201.6L201.6,235.9z"/>
<path id="path247_7_" opacity="0.27" fill="#D11209" d="M180.9,235.9v-10.3h-10.4v10.3H180.9z"/>
<path id="path249_7_" opacity="0.27" fill="#D11209" d="M196.4,234.3l3.9-3.8l-3.9-3.8l-3.9,3.8L196.4,234.3"/>
<path id="path251_7_" fill="#FFFFFF" d="M175.7,234.3l3.9-3.8l-3.9-3.8l-3.9,3.8L175.7,234.3"/>
<path id="path253_7_" opacity="0.27" fill="#D11209" d="M201.6,215.9v-10.3h-10.4v10.3H201.6L201.6,215.9z"/>
<path id="path255_7_" fill="#FFFFFF" d="M196.4,214.3l-3.9-3.8l3.9-3.8l3.9,3.8L196.4,214.3"/>
<path id="path257_7_" fill="#FFFFFF" d="M242.9,195.9v-10.4h-10.4v10.4H242.9z"/>
<path id="path259_7_" opacity="0.27" fill="#D11209" d="M222.2,195.9v-10.4h-10.4v10.4H222.2L222.2,195.9z"/>
<path id="path261_7_" opacity="0.27" fill="#D11209" d="M237.7,194.4l3.9-3.8l-3.9-3.8l-3.9,3.8L237.7,194.4"/>
<path id="path263_7_" fill="#FFFFFF" d="M217,194.4l3.9-3.8l-3.9-3.8l-3.9,3.8L217,194.4"/>
<path id="path265_7_" fill="#FFFFFF" d="M201.6,195.9v-10.4h-10.4v10.4H201.6L201.6,195.9z"/>
<path id="path267_7_" opacity="0.27" fill="#D11209" d="M180.9,195.9v-10.4h-10.4v10.4H180.9z"/>
<path id="path269_7_" opacity="0.27" fill="#D11209" d="M196.4,194.4l3.9-3.8l-3.9-3.8l-3.9,3.8L196.4,194.4"/>
<path id="path271_7_" fill="#FFFFFF" d="M175.7,194.4l3.9-3.8l-3.9-3.8l-3.9,3.8L175.7,194.4"/>
<path id="path273_7_" fill="#FFFFFF" d="M222.2,215.9v-10.3h-10.4v10.3H222.2L222.2,215.9z"/>
<path id="path275_7_" opacity="0.27" fill="#D11209" d="M242.9,215.9v-10.3h-10.4v10.3H242.9z"/>
<path id="path277_7_" opacity="0.27" fill="#D11209" d="M217,214.3l-3.9-3.8l3.9-3.8l3.9,3.8L217,214.3"/>
<path id="path279_7_" fill="#FFFFFF" d="M237.7,214.3l-3.9-3.8l3.9-3.8l3.9,3.8L237.7,214.3"/>
<path id="path281_7_" fill="#FFFFFF" d="M242.9,235.9v-10.3h-10.4v10.3H242.9z"/>
<path id="path283_7_" opacity="0.27" fill="#D11209" d="M222.2,235.9v-10.3h-10.4v10.3H222.2L222.2,235.9z"/>
<path id="path285_7_" opacity="0.27" fill="#D11209" d="M237.7,234.3l3.9-3.8l-3.9-3.8l-3.9,3.8L237.7,234.3"/>
<path id="path287_7_" fill="#FFFFFF" d="M217,234.3l3.9-3.8l-3.9-3.8l-3.9,3.8L217,234.3"/>
<path id="path289_7_" opacity="0.27" fill="#D11209" d="M168,220.6l-2.6-2.5l18.1-17.5l2.6,2.5L168,220.6z"/>
<path id="path291_7_" fill="#FFFFFF" d="M180.9,215.9v-10.3h-10.4v10.3H180.9z"/>
<path id="path293_7_" opacity="0.27" fill="#D11209" d="M175.7,214.3l-3.9-3.8l3.9-3.8l3.9,3.8L175.7,214.3"/>
</svg>
