<?xml version="1.0" encoding="utf-8"?>
<!-- Generator: Adobe Illustrator 17.1.0, SVG Export Plug-In . SVG Version: 6.00 Build 0)  -->
<!DOCTYPE svg PUBLIC "-//W3C//DTD SVG 1.1//EN" "http://www.w3.org/Graphics/SVG/1.1/DTD/svg11.dtd">
<svg version="1.1"
	 id="svg2" xmlns:cc="http://creativecommons.org/ns#" xmlns:dc="http://purl.org/dc/elements/1.1/" xmlns:sodipodi="http://sodipodi.sourceforge.net/DTD/sodipodi-0.dtd" xmlns:rdf="http://www.w3.org/1999/02/22-rdf-syntax-ns#" xmlns:svg="http://www.w3.org/2000/svg" xmlns:inkscape="http://www.inkscape.org/namespaces/inkscape" inkscape:output_extension="org.inkscape.output.svg.inkscape" sodipodi:version="0.32" sodipodi:docname="Card_back_blue_diamond.svg" inkscape:version="0.47 r22583"
	 xmlns="http://www.w3.org/2000/svg" xmlns:xlink="http://www.w3.org/1999/xlink" x="0px" y="0px" viewBox="68.1 100.8 72.3 100.9"
	 enable-background="new 68.1 100.8 72.3 100.9" xml:space="preserve">
<defs>
	
	
		<inkscape:perspective  id="perspective3945" sodipodi:type="inkscape:persp3d" inkscape:vp_x="0 : 151.5 : 1" inkscape:vp_z="208 : 151.5 : 1" inkscape:vp_y="0 : 1000 : 0" inkscape:persp3d-origin="104 : 101 : 1">
		</inkscape:perspective>
</defs>
<sodipodi:namedview  width="208px" height="303px" guidetolerance="10.0" objecttolerance="10.0" id="base" bordercolor="#666666" inkscape:zoom="1.7576631" inkscape:cy="168.79141" inkscape:cx="92.715986" borderopacity="1.0" pagecolor="#ffffff" showgrid="false" gridtolerance="10.0" inkscape:window-y="-4" inkscape:pageshadow="2" inkscape:window-height="742" inkscape:pageopacity="0.0" inkscape:window-x="-4" inkscape:current-layer="svg2" inkscape:showpageshadow="false" inkscape:window-maximized="1" inkscape:window-width="1024">
	</sodipodi:namedview>
<g id="Layer_x0020_1" transform="matrix(1,0,0,1.0030266,0,-0.367228)">
	<path id="path5" fill="#FFFFFF" stroke="#000000" stroke-width="0.4992" d="M140.2,198.3c0,1.6-1.3,2.8-3,2.8H71.3
		c-1.6,0-3-1.3-3-2.8v-94.4c0-1.6,1.3-2.8,3-2.8h65.9c1.6,0,3,1.3,3,2.8V198.3L140.2,198.3z"/>
	<path id="path7" fill="#FFFFFF" d="M119.9,120.3v-15.4h-16v15.4H119.9L119.9,120.3z"/>
	<path id="path9" fill="#D11209" d="M135.9,120.3v-15.4h-15.9v15.4H135.9z"/>
	<path id="path11" fill="#FFFFFF" d="M135.9,135.7v-15.4h-15.9v15.4H135.9z"/>
	<path id="path13" fill="#D11209" d="M119.9,135.7v-15.4h-16v15.4H119.9L119.9,135.7z"/>
	<path id="path15" fill="#FFFFFF" d="M88,151.1v-15.4H72.1v15.4H88L88,151.1z"/>
	<path id="path17" fill="#D11209" d="M104,151.1v-15.4H88v15.4H104L104,151.1z"/>
	<path id="path19" fill="#FFFFFF" d="M119.9,151.1v-15.4h-16v15.4H119.9L119.9,151.1z"/>
	<path id="path21" fill="#D11209" d="M135.9,151.1v-15.4h-15.9v15.4H135.9L135.9,151.1z"/>
	<path id="path23" fill="#FFFFFF" d="M104,135.7v-15.4H88v15.4H104L104,135.7z"/>
	<path id="path25" fill="#D11209" d="M88,135.7v-15.4H72.1v15.4H88z"/>
	<path id="path27" fill="#FFFFFF" d="M88,120.3v-15.4H72.1v15.4H88z"/>
	<path id="path29" fill="#D11209" d="M104,120.3v-15.4H88v15.4H104L104,120.3z"/>
	<path id="path31" fill="#FFFFFF" d="M104,197.3v-15.4H88v15.4H104L104,197.3z"/>
	<path id="path33" fill="#D11209" d="M88,197.3v-15.4H72.1v15.4H88z"/>
	<path id="path35" fill="#FFFFFF" d="M88,181.9v-15.4H72.1v15.4H88z"/>
	<path id="path37" fill="#D11209" d="M104,181.9v-15.4H88v15.4H104L104,181.9z"/>
	<path id="path39" fill="#FFFFFF" d="M135.9,166.5v-15.4h-15.9v15.4H135.9z"/>
	<path id="path41" fill="#D11209" d="M119.9,166.5v-15.4h-16v15.4H119.9L119.9,166.5z"/>
	<path id="path43" fill="#FFFFFF" d="M104,166.5v-15.4H88v15.4H104L104,166.5z"/>
	<path id="path45" fill="#D11209" d="M88,166.5v-15.4H72.1v15.4H88z"/>
	<path id="path47" fill="#FFFFFF" d="M119.9,181.9v-15.4h-16v15.4H119.9L119.9,181.9z"/>
	<path id="path49" fill="#D11209" d="M135.9,181.9v-15.4h-15.9v15.4H135.9z"/>
	<path id="path51" fill="#FFFFFF" d="M135.9,197.3v-15.4h-15.9v15.4H135.9z"/>
	<path id="path53" fill="#D11209" d="M119.9,197.3v-15.4h-16v15.4H119.9L119.9,197.3z"/>
	<path id="path55" fill="#D11209" d="M117.9,104.8l2,1.9l-14,13.5l-2-1.9L117.9,104.8L117.9,104.8z"/>
	<path id="path57" fill="#FFFFFF" d="M133.9,104.8l2,1.9l-14,13.5l-2-1.9L133.9,104.8"/>
	<path id="path59" fill="#D11209" d="M121.9,120.3l-2,1.9l14,13.5l2-1.9L121.9,120.3L121.9,120.3z"/>
	<path id="path61" fill="#FFFFFF" d="M105.9,120.3l-2,1.9l14,13.5l2-1.9L105.9,120.3"/>
	<path id="path63" fill="#D11209" d="M86,135.7l2,1.9l-14,13.5l-2-1.9L86,135.7L86,135.7z"/>
	<path id="path65" fill="#FFFFFF" d="M102,135.7l2,1.9l-14,13.5l-2-1.9L102,135.7"/>
	<path id="path67" fill="#D11209" d="M117.9,135.7l2,1.9l-14,13.5l-2-1.9L117.9,135.7L117.9,135.7z"/>
	<path id="path69" fill="#FFFFFF" d="M133.9,135.7l2,1.9l-14,13.5l-2-1.9L133.9,135.7"/>
	<path id="path71" fill="#D11209" d="M90,120.3l-2,1.9l14,13.5l2-1.9L90,120.3z"/>
	<path id="path73" fill="#FFFFFF" d="M74,120.3l-2,1.9l14,13.5l2-1.9L74,120.3"/>
	<path id="path75" fill="#D11209" d="M86,104.8l2,1.9l-14,13.5l-2-1.9L86,104.8L86,104.8z"/>
	<path id="path77" fill="#FFFFFF" d="M102,104.8l2,1.9l-14,13.5l-2-1.9L102,104.8"/>
	<path id="path79" fill="#D11209" d="M90,197.3l-2-1.9l14-13.5l2,1.9L90,197.3L90,197.3z"/>
	<path id="path81" fill="#FFFFFF" d="M74,197.3l-2-1.9l14-13.5l2,1.9L74,197.3"/>
	<path id="path83" fill="#D11209" d="M86,181.9l2-1.9l-14-13.5l-2,1.9L86,181.9z"/>
	<path id="path85" fill="#FFFFFF" d="M102,181.9l2-1.9l-14-13.5l-2,1.9L102,181.9"/>
	<path id="path87" fill="#D11209" d="M121.9,166.5l-2-1.9l14-13.5l2,1.9L121.9,166.5L121.9,166.5z"/>
	<path id="path89" fill="#FFFFFF" d="M105.9,166.5l-2-1.9l14-13.5l2,1.9L105.9,166.5"/>
	<path id="path91" fill="#D11209" d="M90,166.5l-2-1.9l14-13.5l2,1.9L90,166.5z"/>
	<path id="path93" fill="#FFFFFF" d="M74,166.5l-2-1.9l14-13.5l2,1.9L74,166.5"/>
	<path id="path95" fill="#D11209" d="M117.9,181.9l2-1.9l-14-13.5l-2,1.9L117.9,181.9z"/>
	<path id="path97" fill="#FFFFFF" d="M133.9,181.9l2-1.9l-14-13.5l-2,1.9L133.9,181.9"/>
	<path id="path99" fill="#D11209" d="M121.9,197.3l-2-1.9l14-13.5l2,1.9L121.9,197.3L121.9,197.3z"/>
	<path id="path101" fill="#FFFFFF" d="M105.9,197.3l-2-1.9l14-13.5l2,1.9L105.9,197.3"/>
	<path id="path103" fill="#D11209" d="M105.9,104.8l-2,1.9l14,13.5l2-1.9L105.9,104.8z"/>
	<path id="path105" fill="#D11209" d="M111.9,104.8l-8,7.7l8,7.7l8-7.7L111.9,104.8z"/>
	<path id="path107" fill="#FFFFFF" d="M121.9,104.8l-2,1.9l14,13.5l2-1.9L121.9,104.8"/>
	<path id="path109" fill="#FFFFFF" d="M127.9,104.8l-8,7.7l8,7.7l8-7.7L127.9,104.8"/>
	<path id="path111" fill="#D11209" d="M133.9,120.3l2,1.9l-14,13.5l-2-1.9L133.9,120.3L133.9,120.3z"/>
	<path id="path113" fill="#D11209" d="M127.9,120.3l8,7.7l-8,7.7l-8-7.7L127.9,120.3z"/>
	<path id="path115" fill="#FFFFFF" d="M117.9,120.3l2,1.9l-14,13.5l-2-1.9L117.9,120.3"/>
	<path id="path117" fill="#FFFFFF" d="M111.9,120.3l8,7.7l-8,7.7l-8-7.7L111.9,120.3"/>
	<path id="path119" fill="#D11209" d="M74,135.7l-2,1.9l14,13.5l2-1.9L74,135.7z"/>
	<path id="path121" fill="#D11209" d="M80,135.7l-8,7.7l8,7.7l8-7.7L80,135.7z"/>
	<path id="path123" fill="#FFFFFF" d="M90,135.7l-2,1.9l14,13.5l2-1.9L90,135.7"/>
	<path id="path125" fill="#FFFFFF" d="M96,135.7l-8,7.7l8,7.7l8-7.7L96,135.7"/>
	<path id="path127" fill="#D11209" d="M105.9,135.7l-2,1.9l14,13.5l2-1.9L105.9,135.7z"/>
	<path id="path129" fill="#D11209" d="M111.9,135.7l-8,7.7l8,7.7l8-7.7L111.9,135.7z"/>
	<path id="path131" fill="#FFFFFF" d="M121.9,135.7l-2,1.9l14,13.5l2-1.9L121.9,135.7"/>
	<path id="path133" fill="#FFFFFF" d="M127.9,135.7l-8,7.7l8,7.7l8-7.7L127.9,135.7"/>
	<path id="path135" fill="#D11209" d="M102,120.3l2,1.9l-14,13.5l-2-1.9L102,120.3L102,120.3z"/>
	<path id="path137" fill="#D11209" d="M96,120.3l8,7.7l-8,7.7l-8-7.7L96,120.3z"/>
	<path id="path139" fill="#FFFFFF" d="M86,120.3l2,1.9l-14,13.5l-2-1.9L86,120.3"/>
	<path id="path141" fill="#FFFFFF" d="M80,120.3l8,7.7l-8,7.7l-8-7.7L80,120.3"/>
	<path id="path143" fill="#D11209" d="M74,104.8l-2,1.9l14,13.5l2-1.9L74,104.8z"/>
	<path id="path145" fill="#D11209" d="M80,104.8l-8,7.7l8,7.7l8-7.7L80,104.8z"/>
	<path id="path147" fill="#FFFFFF" d="M90,104.8l-2,1.9l14,13.5l2-1.9L90,104.8"/>
	<path id="path149" fill="#FFFFFF" d="M96,104.8l-8,7.7l8,7.7l8-7.7L96,104.8"/>
	<path id="path151" fill="#D11209" d="M102,197.3l2-1.9l-14-13.5l-2,1.9L102,197.3L102,197.3z"/>
	<path id="path153" fill="#D11209" d="M96,197.3l8-7.7l-8-7.7l-8,7.7L96,197.3z"/>
	<path id="path155" fill="#FFFFFF" d="M86,197.3l2-1.9l-14-13.5l-2,1.9L86,197.3"/>
	<path id="path157" fill="#FFFFFF" d="M80,197.3l8-7.7l-8-7.7l-8,7.7L80,197.3"/>
	<path id="path159" fill="#D11209" d="M80,181.9l-8-7.7l8-7.7l8,7.7L80,181.9z"/>
	<path id="path161" fill="#FFFFFF" d="M90,181.9l-2-1.9l14-13.5l2,1.9L90,181.9"/>
	<path id="path163" fill="#FFFFFF" d="M96,181.9l-8-7.7l8-7.7l8,7.7L96,181.9"/>
	<path id="path165" fill="#D11209" d="M133.9,166.5l2-1.9l-14-13.5l-2,1.9L133.9,166.5L133.9,166.5z"/>
	<path id="path167" fill="#D11209" d="M127.9,166.5l8-7.7l-8-7.7l-8,7.7L127.9,166.5z"/>
	<path id="path169" fill="#FFFFFF" d="M117.9,166.5l2-1.9l-14-13.5l-2,1.9L117.9,166.5"/>
	<path id="path171" fill="#FFFFFF" d="M111.9,166.5l8-7.7l-8-7.7l-8,7.7L111.9,166.5"/>
	<path id="path173" fill="#D11209" d="M102,166.5l2-1.9l-14-13.5l-2,1.9L102,166.5L102,166.5z"/>
	<path id="path175" fill="#D11209" d="M96,166.5l8-7.7l-8-7.7l-8,7.7L96,166.5z"/>
	<path id="path177" fill="#FFFFFF" d="M86,166.5l2-1.9l-14-13.5l-2,1.9L86,166.5"/>
	<path id="path179" fill="#FFFFFF" d="M80,166.5l8-7.7l-8-7.7l-8,7.7L80,166.5"/>
	<path id="path181" fill="#D11209" d="M105.9,181.9l-2-1.9l14-13.5l2,1.9L105.9,181.9z"/>
	<path id="path183" fill="#D11209" d="M111.9,181.9l-8-7.7l8-7.7l8,7.7L111.9,181.9z"/>
	<path id="path185" fill="#FFFFFF" d="M121.9,181.9l-2-1.9l14-13.5l2,1.9L121.9,181.9"/>
	<path id="path187" fill="#FFFFFF" d="M127.9,181.9l-8-7.7l8-7.7l8,7.7L127.9,181.9"/>
	<path id="path189" fill="#D11209" d="M133.9,197.3l2-1.9l-14-13.5l-2,1.9L133.9,197.3L133.9,197.3z"/>
	<path id="path191" fill="#D11209" d="M127.9,197.3l8-7.7l-8-7.7l-8,7.7L127.9,197.3z"/>
	<path id="path193" fill="#FFFFFF" d="M117.9,197.3l2-1.9l-14-13.5l-2,1.9L117.9,197.3"/>
	<path id="path195" fill="#FFFFFF" d="M111.9,197.3l8-7.7l-8-7.7l-8,7.7L111.9,197.3"/>
	<path id="path197" fill="#FFFFFF" d="M115.9,116.4v-7.9h-8v7.9H115.9L115.9,116.4z"/>
	<path id="path199" fill="#D11209" d="M131.9,116.4v-7.9h-8v7.9H131.9z"/>
	<path id="path201" fill="#D11209" d="M111.9,109.7l-3,2.9l3,2.9l3-2.9L111.9,109.7"/>
	<path id="path203" fill="#FFFFFF" d="M127.9,109.7l-3,2.9l3,2.9l3-2.9L127.9,109.7"/>
	<path id="path205" fill="#FFFFFF" d="M131.9,131.8v-7.9h-8v7.9H131.9z"/>
	<path id="path207" fill="#D11209" d="M115.9,131.8v-7.9h-8v7.9H115.9L115.9,131.8z"/>
	<path id="path209" fill="#D11209" d="M127.9,125.1l3,2.9l-3,2.9l-3-2.9L127.9,125.1"/>
	<path id="path211" fill="#FFFFFF" d="M111.9,125.1l3,2.9l-3,2.9l-3-2.9L111.9,125.1"/>
	<path id="path213" fill="#FFFFFF" d="M84,147.2v-7.9h-8v7.9H84L84,147.2z"/>
	<path id="path215" fill="#D11209" d="M100,147.2v-7.9h-8v7.9H100L100,147.2z"/>
	<path id="path217" fill="#D11209" d="M80,140.5l-3,2.9l3,2.9l3-2.9L80,140.5"/>
	<path id="path219" fill="#FFFFFF" d="M96,140.5l-3,2.9l3,2.9l3-2.9L96,140.5"/>
	<path id="path221" fill="#FFFFFF" d="M115.9,147.2v-7.9h-8v7.9H115.9L115.9,147.2z"/>
	<path id="path223" fill="#D11209" d="M131.9,147.2v-7.9h-8v7.9H131.9L131.9,147.2z"/>
	<path id="path225" fill="#D11209" d="M111.9,140.5l-3,2.9l3,2.9l3-2.9L111.9,140.5"/>
	<path id="path227" fill="#FFFFFF" d="M127.9,140.5l-3,2.9l3,2.9l3-2.9L127.9,140.5"/>
	<path id="path229" fill="#FFFFFF" d="M100,131.8v-7.9h-8v7.9H100L100,131.8z"/>
	<path id="path231" fill="#D11209" d="M84,131.8v-7.9h-8v7.9H84z"/>
	<path id="path233" fill="#D11209" d="M96,125.1l3,2.9l-3,2.9l-3-2.9L96,125.1"/>
	<path id="path235" fill="#FFFFFF" d="M80,125.1l3,2.9l-3,2.9l-3-2.9L80,125.1"/>
	<path id="path237" fill="#FFFFFF" d="M84,116.4v-7.9h-8v7.9H84z"/>
	<path id="path239" fill="#D11209" d="M100,116.4v-7.9h-8v7.9H100L100,116.4z"/>
	<path id="path241" fill="#D11209" d="M80,109.7l-3,2.9l3,2.9l3-2.9L80,109.7"/>
	<path id="path243" fill="#FFFFFF" d="M96,109.7l-3,2.9l3,2.9l3-2.9L96,109.7"/>
	<path id="path245" fill="#FFFFFF" d="M100,193.7v-7.9h-8v7.9H100L100,193.7z"/>
	<path id="path247" fill="#D11209" d="M84,193.7v-7.9h-8v7.9H84z"/>
	<path id="path249" fill="#D11209" d="M96,192.5l3-2.9l-3-2.9l-3,2.9L96,192.5"/>
	<path id="path251" fill="#FFFFFF" d="M80,192.5l3-2.9l-3-2.9l-3,2.9L80,192.5"/>
	<path id="path253" fill="#D11209" d="M100,178.3v-7.9h-8v7.9H100L100,178.3z"/>
	<path id="path255" fill="#FFFFFF" d="M96,177.1l-3-2.9l3-2.9l3,2.9L96,177.1"/>
	<path id="path257" fill="#FFFFFF" d="M131.9,162.9v-8h-8v8H131.9z"/>
	<path id="path259" fill="#D11209" d="M115.9,162.9v-8h-8v8H115.9L115.9,162.9z"/>
	<path id="path261" fill="#D11209" d="M127.9,161.7l3-2.9l-3-2.9l-3,2.9L127.9,161.7"/>
	<path id="path263" fill="#FFFFFF" d="M111.9,161.7l3-2.9l-3-2.9l-3,2.9L111.9,161.7"/>
	<path id="path265" fill="#FFFFFF" d="M100,162.9v-8h-8v8H100L100,162.9z"/>
	<path id="path267" fill="#D11209" d="M84,162.9v-8h-8v8H84z"/>
	<path id="path269" fill="#D11209" d="M96,161.7l3-2.9l-3-2.9l-3,2.9L96,161.7"/>
	<path id="path271" fill="#FFFFFF" d="M80,161.7l3-2.9l-3-2.9l-3,2.9L80,161.7"/>
	<path id="path273" fill="#FFFFFF" d="M115.9,178.3v-7.9h-8v7.9H115.9L115.9,178.3z"/>
	<path id="path275" fill="#D11209" d="M131.9,178.3v-7.9h-8v7.9H131.9z"/>
	<path id="path277" fill="#D11209" d="M111.9,177.1l-3-2.9l3-2.9l3,2.9L111.9,177.1"/>
	<path id="path279" fill="#FFFFFF" d="M127.9,177.1l-3-2.9l3-2.9l3,2.9L127.9,177.1"/>
	<path id="path281" fill="#FFFFFF" d="M131.9,193.7v-7.9h-8v7.9H131.9z"/>
	<path id="path283" fill="#D11209" d="M115.9,193.7v-7.9h-8v7.9H115.9L115.9,193.7z"/>
	<path id="path285" fill="#D11209" d="M127.9,192.5l3-2.9l-3-2.9l-3,2.9L127.9,192.5"/>
	<path id="path287" fill="#FFFFFF" d="M111.9,192.5l3-2.9l-3-2.9l-3,2.9L111.9,192.5"/>
	<path id="path289" fill="#D11209" d="M74,181.9l-2-1.9l14-13.5l2,1.9L74,181.9z"/>
	<path id="path291" fill="#FFFFFF" d="M84,178.3v-7.9h-8v7.9H84z"/>
	<path id="path293" fill="#D11209" d="M80,177.1l-3-2.9l3-2.9l3,2.9L80,177.1"/>
	<path id="path295" fill="none" stroke="#D11209" stroke-width="2.9955" stroke-linejoin="round" stroke-miterlimit="10" d="
		M138.2,198.8h-68v-95.9h68V198.8z"/>
</g>
</svg>
