<?xml version="1.0" encoding="utf-8"?>
<!-- Generator: Adobe Illustrator 17.1.0, SVG Export Plug-In . SVG Version: 6.00 Build 0)  -->
<!DOCTYPE svg PUBLIC "-//W3C//DTD SVG 1.1//EN" "http://www.w3.org/Graphics/SVG/1.1/DTD/svg11.dtd">
<svg version="1.1"
	 id="svg2" sodipodi:docname="Card_back_blue_diamond.svg" inkscape:version="0.47 r22583" sodipodi:version="0.32" inkscape:output_extension="org.inkscape.output.svg.inkscape" xmlns:dc="http://purl.org/dc/elements/1.1/" xmlns:cc="http://creativecommons.org/ns#" xmlns:sodipodi="http://sodipodi.sourceforge.net/DTD/sodipodi-0.dtd" xmlns:rdf="http://www.w3.org/1999/02/22-rdf-syntax-ns#" xmlns:inkscape="http://www.inkscape.org/namespaces/inkscape" xmlns:svg="http://www.w3.org/2000/svg"
	 xmlns="http://www.w3.org/2000/svg" xmlns:xlink="http://www.w3.org/1999/xlink" x="0px" y="0px"
	 viewBox="489.3 403.8 115.2 154.8" enable-background="new 489.3 403.8 115.2 154.8" xml:space="preserve">
<defs>
	
	
		<inkscape:perspective  inkscape:persp3d-origin="104 : 101 : 1" inkscape:vp_y="0 : 1000 : 0" inkscape:vp_z="208 : 151.5 : 1" inkscape:vp_x="0 : 151.5 : 1" sodipodi:type="inkscape:persp3d" id="perspective3945">
		</inkscape:perspective>
</defs>
<sodipodi:namedview  width="208px" height="303px" inkscape:window-width="1024" inkscape:window-maximized="1" inkscape:pageopacity="0.0" inkscape:showpageshadow="false" inkscape:window-height="742" inkscape:window-y="-4" inkscape:pageshadow="2" inkscape:current-layer="svg2" inkscape:window-x="-4" borderopacity="1.0" objecttolerance="10.0" showgrid="false" inkscape:zoom="1.7576631" gridtolerance="10.0" inkscape:cy="168.79141" inkscape:cx="92.715986" guidetolerance="10.0" pagecolor="#ffffff" bordercolor="#666666" id="base">
	</sodipodi:namedview>
<g id="Layer_x0020_1" transform="matrix(1,0,0,1.0030266,0,-0.367228)">
	<path id="path5" fill="#FFFFFF" stroke="#000000" stroke-width="0.4992" d="M604.2,552.7c0,2.5-2.1,4.3-4.8,4.3H494.4
		c-2.6,0-4.8-2-4.8-4.3V407.5c0-2.5,2.1-4.3,4.8-4.3h105.1c2.6,0,4.8,2,4.8,4.3V552.7L604.2,552.7z"/>
	<path id="path7" fill="#FFFFFF" d="M571.9,432.7V409h-25.5v23.7H571.9L571.9,432.7z"/>
	<path id="path9" fill="#D11209" d="M597.4,432.7V409H572v23.7H597.4z"/>
	<path id="path11" fill="#FFFFFF" d="M597.4,456.4v-23.7H572v23.7H597.4z"/>
	<path id="path13" fill="#D11209" d="M571.9,456.4v-23.7h-25.5v23.7H571.9L571.9,456.4z"/>
	<path id="path15" fill="#FFFFFF" d="M521,480.1v-23.7h-25.4v23.7H521L521,480.1z"/>
	<path id="path17" fill="#D11209" d="M546.5,480.1v-23.7H521v23.7H546.5L546.5,480.1z"/>
	<path id="path19" fill="#FFFFFF" d="M571.9,480.1v-23.7h-25.5v23.7H571.9L571.9,480.1z"/>
	<path id="path21" fill="#D11209" d="M597.4,480.1v-23.7H572v23.7H597.4L597.4,480.1z"/>
	<path id="path23" fill="#FFFFFF" d="M546.5,456.4v-23.7H521v23.7H546.5L546.5,456.4z"/>
	<path id="path25" fill="#D11209" d="M521,456.4v-23.7h-25.4v23.7H521z"/>
	<path id="path27" fill="#FFFFFF" d="M521,432.7V409h-25.4v23.7H521z"/>
	<path id="path29" fill="#D11209" d="M546.5,432.7V409H521v23.7H546.5L546.5,432.7z"/>
	<path id="path31" fill="#FFFFFF" d="M546.5,551.2v-23.7H521v23.7H546.5L546.5,551.2z"/>
	<path id="path33" fill="#D11209" d="M521,551.2v-23.7h-25.4v23.7H521z"/>
	<path id="path35" fill="#FFFFFF" d="M521,527.5v-23.7h-25.4v23.7H521z"/>
	<path id="path37" fill="#D11209" d="M546.5,527.5v-23.7H521v23.7H546.5L546.5,527.5z"/>
	<path id="path39" fill="#FFFFFF" d="M597.4,503.8v-23.7H572v23.7H597.4z"/>
	<path id="path41" fill="#D11209" d="M571.9,503.8v-23.7h-25.5v23.7H571.9L571.9,503.8z"/>
	<path id="path43" fill="#FFFFFF" d="M546.5,503.8v-23.7H521v23.7H546.5L546.5,503.8z"/>
	<path id="path45" fill="#D11209" d="M521,503.8v-23.7h-25.4v23.7H521z"/>
	<path id="path47" fill="#FFFFFF" d="M571.9,527.5v-23.7h-25.5v23.7H571.9L571.9,527.5z"/>
	<path id="path49" fill="#D11209" d="M597.4,527.5v-23.7H572v23.7H597.4z"/>
	<path id="path51" fill="#FFFFFF" d="M597.4,551.2v-23.7H572v23.7H597.4z"/>
	<path id="path53" fill="#D11209" d="M571.9,551.2v-23.7h-25.5v23.7H571.9L571.9,551.2z"/>
	<path id="path55" fill="#D11209" d="M568.7,408.8l3.2,2.9l-22.3,20.8l-3.2-2.9L568.7,408.8L568.7,408.8z"/>
	<path id="path57" fill="#FFFFFF" d="M594.2,408.8l3.2,2.9l-22.3,20.8l-3.2-2.9L594.2,408.8"/>
	<path id="path59" fill="#D11209" d="M575.1,432.7l-3.2,2.9l22.3,20.8l3.2-2.9L575.1,432.7L575.1,432.7z"/>
	<path id="path61" fill="#FFFFFF" d="M549.6,432.7l-3.2,2.9l22.3,20.8l3.2-2.9L549.6,432.7"/>
	<path id="path63" fill="#D11209" d="M517.8,456.4l3.2,2.9l-22.3,20.8l-3.2-2.9L517.8,456.4L517.8,456.4z"/>
	<path id="path65" fill="#FFFFFF" d="M543.3,456.4l3.2,2.9l-22.3,20.8l-3.2-2.9L543.3,456.4"/>
	<path id="path67" fill="#D11209" d="M568.7,456.4l3.2,2.9l-22.3,20.8l-3.2-2.9L568.7,456.4L568.7,456.4z"/>
	<path id="path69" fill="#FFFFFF" d="M594.2,456.4l3.2,2.9l-22.3,20.8l-3.2-2.9L594.2,456.4"/>
	<path id="path71" fill="#D11209" d="M524.2,432.7l-3.2,2.9l22.3,20.8l3.2-2.9L524.2,432.7z"/>
	<path id="path73" fill="#FFFFFF" d="M498.7,432.7l-3.2,2.9l22.3,20.8l3.2-2.9L498.7,432.7"/>
	<path id="path75" fill="#D11209" d="M517.8,408.8l3.2,2.9l-22.3,20.8l-3.2-2.9L517.8,408.8L517.8,408.8z"/>
	<path id="path77" fill="#FFFFFF" d="M543.3,408.8l3.2,2.9l-22.3,20.8l-3.2-2.9L543.3,408.8"/>
	<path id="path79" fill="#D11209" d="M524.2,551.2l-3.2-2.9l22.3-20.8l3.2,2.9L524.2,551.2L524.2,551.2z"/>
	<path id="path81" fill="#FFFFFF" d="M498.7,551.2l-3.2-2.9l22.3-20.8l3.2,2.9L498.7,551.2"/>
	<path id="path83" fill="#D11209" d="M517.8,527.5l3.2-2.9l-22.3-20.8l-3.2,2.9L517.8,527.5z"/>
	<path id="path85" fill="#FFFFFF" d="M543.3,527.5l3.2-2.9l-22.3-20.8l-3.2,2.9L543.3,527.5"/>
	<path id="path87" fill="#D11209" d="M575.1,503.8l-3.2-2.9l22.3-20.8l3.2,2.9L575.1,503.8L575.1,503.8z"/>
	<path id="path89" fill="#FFFFFF" d="M549.6,503.8l-3.2-2.9l22.3-20.8l3.2,2.9L549.6,503.8"/>
	<path id="path91" fill="#D11209" d="M524.2,503.8l-3.2-2.9l22.3-20.8l3.2,2.9L524.2,503.8z"/>
	<path id="path93" fill="#FFFFFF" d="M498.7,503.8l-3.2-2.9l22.3-20.8l3.2,2.9L498.7,503.8"/>
	<path id="path95" fill="#D11209" d="M568.7,527.5l3.2-2.9l-22.3-20.8l-3.2,2.9L568.7,527.5z"/>
	<path id="path97" fill="#FFFFFF" d="M594.2,527.5l3.2-2.9l-22.3-20.8l-3.2,2.9L594.2,527.5"/>
	<path id="path99" fill="#D11209" d="M575.1,551.2l-3.2-2.9l22.3-20.8l3.2,2.9L575.1,551.2L575.1,551.2z"/>
	<path id="path101" fill="#FFFFFF" d="M549.6,551.2l-3.2-2.9l22.3-20.8l3.2,2.9L549.6,551.2"/>
	<path id="path103" fill="#D11209" d="M549.6,408.8l-3.2,2.9l22.3,20.8l3.2-2.9L549.6,408.8z"/>
	<path id="path105" fill="#D11209" d="M559.1,408.8l-12.8,11.8l12.8,11.8l12.8-11.8L559.1,408.8z"/>
	<path id="path107" fill="#FFFFFF" d="M575.1,408.8l-3.2,2.9l22.3,20.8l3.2-2.9L575.1,408.8"/>
	<path id="path109" fill="#FFFFFF" d="M584.6,408.8l-12.8,11.8l12.8,11.8l12.8-11.8L584.6,408.8"/>
	<path id="path111" fill="#D11209" d="M594.2,432.7l3.2,2.9l-22.3,20.8l-3.2-2.9L594.2,432.7L594.2,432.7z"/>
	<path id="path113" fill="#D11209" d="M584.6,432.7l12.8,11.8l-12.8,11.8l-12.8-11.8L584.6,432.7z"/>
	<path id="path115" fill="#FFFFFF" d="M568.7,432.7l3.2,2.9l-22.3,20.8l-3.2-2.9L568.7,432.7"/>
	<path id="path117" fill="#FFFFFF" d="M559.1,432.7l12.8,11.8l-12.8,11.8l-12.8-11.8L559.1,432.7"/>
	<path id="path119" fill="#D11209" d="M498.7,456.4l-3.2,2.9l22.3,20.8l3.2-2.9L498.7,456.4z"/>
	<path id="path121" fill="#D11209" d="M508.2,456.4l-12.8,11.8l12.8,11.8l12.8-11.8L508.2,456.4z"/>
	<path id="path123" fill="#FFFFFF" d="M524.2,456.4l-3.2,2.9l22.3,20.8l3.2-2.9L524.2,456.4"/>
	<path id="path125" fill="#FFFFFF" d="M533.8,456.4L521,468.2l12.8,11.8l12.8-11.8L533.8,456.4"/>
	<path id="path127" fill="#D11209" d="M549.6,456.4l-3.2,2.9l22.3,20.8l3.2-2.9L549.6,456.4z"/>
	<path id="path129" fill="#D11209" d="M559.1,456.4l-12.8,11.8l12.8,11.8l12.8-11.8L559.1,456.4z"/>
	<path id="path131" fill="#FFFFFF" d="M575.1,456.4l-3.2,2.9l22.3,20.8l3.2-2.9L575.1,456.4"/>
	<path id="path133" fill="#FFFFFF" d="M584.6,456.4l-12.8,11.8l12.8,11.8l12.8-11.8L584.6,456.4"/>
	<path id="path135" fill="#D11209" d="M543.3,432.7l3.2,2.9l-22.3,20.8l-3.2-2.9L543.3,432.7L543.3,432.7z"/>
	<path id="path137" fill="#D11209" d="M533.8,432.7l12.8,11.8l-12.8,11.8L521,444.5L533.8,432.7z"/>
	<path id="path139" fill="#FFFFFF" d="M517.8,432.7l3.2,2.9l-22.3,20.8l-3.2-2.9L517.8,432.7"/>
	<path id="path141" fill="#FFFFFF" d="M508.2,432.7l12.8,11.8l-12.8,11.8l-12.8-11.8L508.2,432.7"/>
	<path id="path143" fill="#D11209" d="M498.7,408.8l-3.2,2.9l22.3,20.8l3.2-2.9L498.7,408.8z"/>
	<path id="path145" fill="#D11209" d="M508.2,408.8l-12.8,11.8l12.8,11.8l12.8-11.8L508.2,408.8z"/>
	<path id="path147" fill="#FFFFFF" d="M524.2,408.8l-3.2,2.9l22.3,20.8l3.2-2.9L524.2,408.8"/>
	<path id="path149" fill="#FFFFFF" d="M533.8,408.8L521,420.7l12.8,11.8l12.8-11.8L533.8,408.8"/>
	<path id="path151" fill="#D11209" d="M543.3,551.2l3.2-2.9l-22.3-20.8l-3.2,2.9L543.3,551.2L543.3,551.2z"/>
	<path id="path153" fill="#D11209" d="M533.8,551.2l12.8-11.8l-12.8-11.8L521,539.3L533.8,551.2z"/>
	<path id="path155" fill="#FFFFFF" d="M517.8,551.2l3.2-2.9l-22.3-20.8l-3.2,2.9L517.8,551.2"/>
	<path id="path157" fill="#FFFFFF" d="M508.2,551.2l12.8-11.8l-12.8-11.8l-12.8,11.8L508.2,551.2"/>
	<path id="path159" fill="#D11209" d="M508.2,527.5l-12.8-11.8l12.8-11.8l12.8,11.8L508.2,527.5z"/>
	<path id="path161" fill="#FFFFFF" d="M524.2,527.5l-3.2-2.9l22.3-20.8l3.2,2.9L524.2,527.5"/>
	<path id="path163" fill="#FFFFFF" d="M533.8,527.5L521,515.6l12.8-11.8l12.8,11.8L533.8,527.5"/>
	<path id="path165" fill="#D11209" d="M594.2,503.8l3.2-2.9l-22.3-20.8l-3.2,2.9L594.2,503.8L594.2,503.8z"/>
	<path id="path167" fill="#D11209" d="M584.6,503.8l12.8-11.8l-12.8-11.8l-12.8,11.8L584.6,503.8z"/>
	<path id="path169" fill="#FFFFFF" d="M568.7,503.8l3.2-2.9l-22.3-20.8l-3.2,2.9L568.7,503.8"/>
	<path id="path171" fill="#FFFFFF" d="M559.1,503.8l12.8-11.8l-12.8-11.8l-12.8,11.8L559.1,503.8"/>
	<path id="path173" fill="#D11209" d="M543.3,503.8l3.2-2.9l-22.3-20.8L521,483L543.3,503.8L543.3,503.8z"/>
	<path id="path175" fill="#D11209" d="M533.8,503.8l12.8-11.8l-12.8-11.8L521,491.9L533.8,503.8z"/>
	<path id="path177" fill="#FFFFFF" d="M517.8,503.8l3.2-2.9l-22.3-20.8l-3.2,2.9L517.8,503.8"/>
	<path id="path179" fill="#FFFFFF" d="M508.2,503.8l12.8-11.8l-12.8-11.8l-12.8,11.8L508.2,503.8"/>
	<path id="path181" fill="#D11209" d="M549.6,527.5l-3.2-2.9l22.3-20.8l3.2,2.9L549.6,527.5z"/>
	<path id="path183" fill="#D11209" d="M559.1,527.5l-12.8-11.8l12.8-11.8l12.8,11.8L559.1,527.5z"/>
	<path id="path185" fill="#FFFFFF" d="M575.1,527.5l-3.2-2.9l22.3-20.8l3.2,2.9L575.1,527.5"/>
	<path id="path187" fill="#FFFFFF" d="M584.6,527.5l-12.8-11.8l12.8-11.8l12.8,11.8L584.6,527.5"/>
	<path id="path189" fill="#D11209" d="M594.2,551.2l3.2-2.9l-22.3-20.8l-3.2,2.9L594.2,551.2L594.2,551.2z"/>
	<path id="path191" fill="#D11209" d="M584.6,551.2l12.8-11.8l-12.8-11.8l-12.8,11.8L584.6,551.2z"/>
	<path id="path193" fill="#FFFFFF" d="M568.7,551.2l3.2-2.9l-22.3-20.8l-3.2,2.9L568.7,551.2"/>
	<path id="path195" fill="#FFFFFF" d="M559.1,551.2l12.8-11.8l-12.8-11.8l-12.8,11.8L559.1,551.2"/>
	<path id="path197" fill="#FFFFFF" d="M565.5,426.7v-12.2h-12.8v12.2H565.5L565.5,426.7z"/>
	<path id="path199" fill="#D11209" d="M591,426.7v-12.2h-12.8v12.2H591z"/>
	<path id="path201" fill="#D11209" d="M559.1,416.4l-4.8,4.5l4.8,4.5l4.8-4.5L559.1,416.4"/>
	<path id="path203" fill="#FFFFFF" d="M584.6,416.4l-4.8,4.5l4.8,4.5l4.8-4.5L584.6,416.4"/>
	<path id="path205" fill="#FFFFFF" d="M591,450.4v-12.2h-12.8v12.2H591z"/>
	<path id="path207" fill="#D11209" d="M565.5,450.4v-12.2h-12.8v12.2H565.5L565.5,450.4z"/>
	<path id="path209" fill="#D11209" d="M584.6,440.1l4.8,4.5l-4.8,4.5l-4.8-4.5L584.6,440.1"/>
	<path id="path211" fill="#FFFFFF" d="M559.1,440.1l4.8,4.5l-4.8,4.5l-4.8-4.5L559.1,440.1"/>
	<path id="path213" fill="#FFFFFF" d="M514.6,474.1v-12.2h-12.8v12.2H514.6L514.6,474.1z"/>
	<path id="path215" fill="#D11209" d="M540.1,474.1v-12.2h-12.8v12.2H540.1L540.1,474.1z"/>
	<path id="path217" fill="#D11209" d="M508.2,463.8l-4.8,4.5l4.8,4.5l4.8-4.5L508.2,463.8"/>
	<path id="path219" fill="#FFFFFF" d="M533.8,463.8l-4.8,4.5l4.8,4.5l4.8-4.5L533.8,463.8"/>
	<path id="path221" fill="#FFFFFF" d="M565.5,474.1v-12.2h-12.8v12.2H565.5L565.5,474.1z"/>
	<path id="path223" fill="#D11209" d="M591,474.1v-12.2h-12.8v12.2H591L591,474.1z"/>
	<path id="path225" fill="#D11209" d="M559.1,463.8l-4.8,4.5l4.8,4.5l4.8-4.5L559.1,463.8"/>
	<path id="path227" fill="#FFFFFF" d="M584.6,463.8l-4.8,4.5l4.8,4.5l4.8-4.5L584.6,463.8"/>
	<path id="path229" fill="#FFFFFF" d="M540.1,450.4v-12.2h-12.8v12.2H540.1L540.1,450.4z"/>
	<path id="path231" fill="#D11209" d="M514.6,450.4v-12.2h-12.8v12.2H514.6z"/>
	<path id="path233" fill="#D11209" d="M533.8,440.1l4.8,4.5l-4.8,4.5l-4.8-4.5L533.8,440.1"/>
	<path id="path235" fill="#FFFFFF" d="M508.2,440.1l4.8,4.5l-4.8,4.5l-4.8-4.5L508.2,440.1"/>
	<path id="path237" fill="#FFFFFF" d="M514.6,426.7v-12.2h-12.8v12.2H514.6z"/>
	<path id="path239" fill="#D11209" d="M540.1,426.7v-12.2h-12.8v12.2H540.1L540.1,426.7z"/>
	<path id="path241" fill="#D11209" d="M508.2,416.4l-4.8,4.5l4.8,4.5l4.8-4.5L508.2,416.4"/>
	<path id="path243" fill="#FFFFFF" d="M533.8,416.4l-4.8,4.5l4.8,4.5l4.8-4.5L533.8,416.4"/>
	<path id="path245" fill="#FFFFFF" d="M540.1,545.6v-12.2h-12.8v12.2H540.1L540.1,545.6z"/>
	<path id="path247" fill="#D11209" d="M514.6,545.6v-12.2h-12.8v12.2H514.6z"/>
	<path id="path249" fill="#D11209" d="M533.8,543.8l4.8-4.5l-4.8-4.5l-4.8,4.5L533.8,543.8"/>
	<path id="path251" fill="#FFFFFF" d="M508.2,543.8l4.8-4.5l-4.8-4.5l-4.8,4.5L508.2,543.8"/>
	<path id="path253" fill="#D11209" d="M540.1,521.9v-12.2h-12.8v12.2H540.1L540.1,521.9z"/>
	<path id="path255" fill="#FFFFFF" d="M533.8,520.1l-4.8-4.5l4.8-4.5l4.8,4.5L533.8,520.1"/>
	<path id="path257" fill="#FFFFFF" d="M591,498.2v-12.3h-12.8v12.3H591z"/>
	<path id="path259" fill="#D11209" d="M565.5,498.2v-12.3h-12.8v12.3H565.5L565.5,498.2z"/>
	<path id="path261" fill="#D11209" d="M584.6,496.4l4.8-4.5l-4.8-4.5l-4.8,4.5L584.6,496.4"/>
	<path id="path263" fill="#FFFFFF" d="M559.1,496.4l4.8-4.5l-4.8-4.5l-4.8,4.5L559.1,496.4"/>
	<path id="path265" fill="#FFFFFF" d="M540.1,498.2v-12.3h-12.8v12.3H540.1L540.1,498.2z"/>
	<path id="path267" fill="#D11209" d="M514.6,498.2v-12.3h-12.8v12.3H514.6z"/>
	<path id="path269" fill="#D11209" d="M533.8,496.4l4.8-4.5l-4.8-4.5l-4.8,4.5L533.8,496.4"/>
	<path id="path271" fill="#FFFFFF" d="M508.2,496.4l4.8-4.5l-4.8-4.5l-4.8,4.5L508.2,496.4"/>
	<path id="path273" fill="#FFFFFF" d="M565.5,521.9v-12.2h-12.8v12.2H565.5L565.5,521.9z"/>
	<path id="path275" fill="#D11209" d="M591,521.9v-12.2h-12.8v12.2H591z"/>
	<path id="path277" fill="#D11209" d="M559.1,520.1l-4.8-4.5l4.8-4.5l4.8,4.5L559.1,520.1"/>
	<path id="path279" fill="#FFFFFF" d="M584.6,520.1l-4.8-4.5l4.8-4.5l4.8,4.5L584.6,520.1"/>
	<path id="path281" fill="#FFFFFF" d="M591,545.6v-12.2h-12.8v12.2H591z"/>
	<path id="path283" fill="#D11209" d="M565.5,545.6v-12.2h-12.8v12.2H565.5L565.5,545.6z"/>
	<path id="path285" fill="#D11209" d="M584.6,543.8l4.8-4.5l-4.8-4.5l-4.8,4.5L584.6,543.8"/>
	<path id="path287" fill="#FFFFFF" d="M559.1,543.8l4.8-4.5l-4.8-4.5l-4.8,4.5L559.1,543.8"/>
	<path id="path289" fill="#D11209" d="M498.7,527.5l-3.2-2.9l22.3-20.8l3.2,2.9L498.7,527.5z"/>
	<path id="path291" fill="#FFFFFF" d="M514.6,521.9v-12.2h-12.8v12.2H514.6z"/>
	<path id="path293" fill="#D11209" d="M508.2,520.1l-4.8-4.5l4.8-4.5l4.8,4.5L508.2,520.1"/>
	<path id="path295" fill="none" stroke="#D11209" stroke-width="2.9955" stroke-linejoin="round" stroke-miterlimit="10" d="
		M601.1,553.5H492.6V405.9h108.4V553.5z"/>
</g>
</svg>
