<?xml version="1.0" encoding="utf-8"?>
<!-- Generator: Adobe Illustrator 17.1.0, SVG Export Plug-In . SVG Version: 6.00 Build 0)  -->
<!DOCTYPE svg PUBLIC "-//W3C//DTD SVG 1.1//EN" "http://www.w3.org/Graphics/SVG/1.1/DTD/svg11.dtd">
<svg version="1.1" id="Layer_1" xmlns="http://www.w3.org/2000/svg" xmlns:xlink="http://www.w3.org/1999/xlink" x="0px" y="0px"
	 viewBox="0 0 960 560" enable-background="new 0 0 960 560" xml:space="preserve">
<rect x="464.6" y="190.2" fill="none" width="503.6" height="282.2"/>
<g enable-background="new    ">
	<path fill="#001F0A" d="M475.6,392.4c7.9-9.7,16.4-19,25.4-28.1c11.2,4.5,22.6,8.9,34.2,13c11.5,4.1,23.3,7.8,35.3,10.9
		c0-11.8,0.1-23.6,0.3-35.2c0.2-11.6,0.1-23.3-0.3-34.9c-1.6-1.6-3.3-2.9-5-3.8c-1.8-1-3.5-2.1-5-3.3c-2.8,1-5.2,2.3-7.4,4
		c-2.2,1.7-4.1,3.7-5.9,5.9c-1.8,2.3-3.5,4.6-5.2,7c-1.7,2.4-3.4,4.6-5.2,6.8c-4.9,0.2-9.5-0.8-13.8-3c-4.2-2.2-8.6-4.1-13.2-5.9
		c-3.9-1.8-7.9-3.4-11.8-4.9c-3.9-1.5-7.7-3.3-11.2-5.5c-1.2-1.8-1.8-3.6-1.8-5.5c0-1.9,0-3.9,0-6.1c0-12.6,0-25.2,0.1-37.9
		c0.1-12.6,0-25.2-0.1-37.9c0-2.2-0.1-4.3-0.1-6.4c-0.1-2.1,0.3-4,1.3-5.8c6.3-4.5,13-8.2,20.1-11.1c7.1-2.9,14-6.3,20.7-10.2
		c2-0.8,3.9-1.8,5.9-3c2-1.2,4-2.2,6.1-3.1c2.1-0.9,4.1-1.5,6.2-1.8c2.1-0.3,4.3-0.1,6.7,0.4c10.2,2.4,20.3,5.1,30.2,8.1
		c9.9,3.1,19.9,5.8,30.2,8.1c0.4,3-0.1,5.6-1.5,8c-1.4,2.4-2.8,4.6-4.1,6.8c-2.8,3.9-5.4,7.9-7.8,11.8c-2.5,3.9-5.7,7.5-9.6,10.6
		c-9.5-3.4-19-6.6-28.5-9.6c-9.6-3.1-19.1-6.1-28.5-9c-1.2,2.2-2,4.5-2.5,7c-0.5,2.5-0.7,4.9-0.7,7.2c0.4,8.1,0.5,16.1,0.3,24
		c-0.2,7.9-0.1,15.9,0.3,24c1,2.6,3,4.2,5.9,5c3,0.8,5.5,1.7,7.7,2.7c4.5-3.2,8.4-7,11.5-11.7c3.2-4.6,6.3-9,9.5-13.2
		c4.5,1,8.9,2.3,13.2,4c4.2,1.7,8.5,3.5,12.7,5.3c4.2,1.9,8.4,3.7,12.6,5.6c4.1,1.9,8.5,3.5,13,4.9c0.4,35.3,0.4,70.7,0,106.2
		c-9.5,5.3-19.1,10.2-28.8,14.6c-9.8,4.4-19.6,9.1-29.4,14c-2.8,1.6-5.5,2.3-8.3,2.1c-2.8-0.2-5.6-0.7-8.4-1.6
		c-2.9-0.9-5.7-2-8.6-3.3c-2.9-1.3-5.7-2.2-8.4-2.8c-8.7-3.2-17.4-6-26.2-8.6c-8.8-2.6-17.2-6.1-25.3-10.6L475.6,392.4z"/>
</g>
<g enable-background="new    ">
	<path fill="none" stroke="#C0392B" stroke-width="3" stroke-miterlimit="10" d="M475.6,392.4c7.9-9.7,16.4-19,25.4-28.1
		c11.2,4.5,22.6,8.9,34.2,13c11.5,4.1,23.3,7.8,35.3,10.9c0-11.8,0.1-23.6,0.3-35.2c0.2-11.6,0.1-23.3-0.3-34.9
		c-1.6-1.6-3.3-2.9-5-3.8c-1.8-1-3.5-2.1-5-3.3c-2.8,1-5.2,2.3-7.4,4c-2.2,1.7-4.1,3.7-5.9,5.9c-1.8,2.3-3.5,4.6-5.2,7
		c-1.7,2.4-3.4,4.6-5.2,6.8c-4.9,0.2-9.5-0.8-13.8-3c-4.2-2.2-8.6-4.1-13.2-5.9c-3.9-1.8-7.9-3.4-11.8-4.9
		c-3.9-1.5-7.7-3.3-11.2-5.5c-1.2-1.8-1.8-3.6-1.8-5.5c0-1.9,0-3.9,0-6.1c0-12.6,0-25.2,0.1-37.9c0.1-12.6,0-25.2-0.1-37.9
		c0-2.2-0.1-4.3-0.1-6.4c-0.1-2.1,0.3-4,1.3-5.8c6.3-4.5,13-8.2,20.1-11.1c7.1-2.9,14-6.3,20.7-10.2c2-0.8,3.9-1.8,5.9-3
		c2-1.2,4-2.2,6.1-3.1c2.1-0.9,4.1-1.5,6.2-1.8c2.1-0.3,4.3-0.1,6.7,0.4c10.2,2.4,20.3,5.1,30.2,8.1c9.9,3.1,19.9,5.8,30.2,8.1
		c0.4,3-0.1,5.6-1.5,8c-1.4,2.4-2.8,4.6-4.1,6.8c-2.8,3.9-5.4,7.9-7.8,11.8c-2.5,3.9-5.7,7.5-9.6,10.6c-9.5-3.4-19-6.6-28.5-9.6
		c-9.6-3.1-19.1-6.1-28.5-9c-1.2,2.2-2,4.5-2.5,7c-0.5,2.5-0.7,4.9-0.7,7.2c0.4,8.1,0.5,16.1,0.3,24c-0.2,7.9-0.1,15.9,0.3,24
		c1,2.6,3,4.2,5.9,5c3,0.8,5.5,1.7,7.7,2.7c4.5-3.2,8.4-7,11.5-11.7c3.2-4.6,6.3-9,9.5-13.2c4.5,1,8.9,2.3,13.2,4
		c4.2,1.7,8.5,3.5,12.7,5.3c4.2,1.9,8.4,3.7,12.6,5.6c4.1,1.9,8.5,3.5,13,4.9c0.4,35.3,0.4,70.7,0,106.2
		c-9.5,5.3-19.1,10.2-28.8,14.6c-9.8,4.4-19.6,9.1-29.4,14c-2.8,1.6-5.5,2.3-8.3,2.1c-2.8-0.2-5.6-0.7-8.4-1.6
		c-2.9-0.9-5.7-2-8.6-3.3c-2.9-1.3-5.7-2.2-8.4-2.8c-8.7-3.2-17.4-6-26.2-8.6c-8.8-2.6-17.2-6.1-25.3-10.6L475.6,392.4z"/>
</g>
<g enable-background="new    ">
	<path fill="#001F0A" d="M641,277.5c1.1-0.7,2.2-1.1,3.2-1.5c5.1,1.2,10.1,2.5,14.9,3.9c4.8,1.5,9.7,3,14.4,4.4
		c0.2,1,0.3,2.3,0.5,3.9c0.2,1.6,0.3,3,0.5,4.2c3.3-2.6,6.4-5.3,9.2-8.1c2.9-2.8,6.1-5.3,9.7-7.6c0.8-0.5,2.6-0.3,5.5,0.5
		c2.8,0.8,6,2,9.7,3.6c3.6,1.6,7.4,3.2,11.3,4.9c3.9,1.7,7.2,3.2,10.1,4.3c0.2,10.4,0.3,20.7,0.5,31.1c0.2,10.4,0.2,20.8,0.2,31.3
		c0,8.5-0.1,17-0.2,25.5c-0.2,8.5-0.3,17-0.5,25.5c-2.8,3-6,5.3-9.7,7.1c-3.6,1.8-7.1,3.8-10.4,5.9c-3.3,1.8-6.4,3.7-9.3,5.7
		c-2.9,2-6,3.4-9.3,4.2c-3-0.8-5.9-1.9-8.7-3.2c-2.8-1.3-5.6-2.5-8.4-3.7c-0.3,2-0.5,4-0.5,6.2s0,4.3,0,6.4v13.3
		c0,1.8,0.1,3.8,0.2,5.9c0.2,2.1,0.1,4.2-0.1,6.2s-0.8,3.7-1.7,5.3c-0.9,1.6-2.3,2.5-4.3,2.8c-4.1,0.8-8.2,1.4-12.3,1.8
		c-4.1,0.4-8.2,1-12.3,1.8c-0.7-0.2-1.5-0.5-2.5-1c-1-0.5-1.9-0.9-2.7-1.2v-39.2v-19.5c-2.1-1.1-4.2-2.3-6.2-3.3
		c-2-1.1-4-2.1-6.2-3.1c0-2.5,0.7-4.6,2-6.3c1.3-1.7,2.7-3.4,4.3-4.9c1.6-1.6,3-3.2,4.3-4.9c1.3-1.7,2-3.8,2-6.3v-16.3v-28.8
		c0-4.3,0-8.6,0-13.1s-0.1-8.9-0.2-13.3c-2.1-0.8-4.2-1.7-6.2-2.6c-2-0.9-4-1.8-6.2-2.6c2.1-4.6,4.5-9,7.1-13.1
		C635.5,285.7,638.2,281.6,641,277.5z M679.7,309.3c-2.3,0.8-3.6,2.4-3.9,4.8c-0.3,2.4-0.8,4.5-1.5,6.3c0.2,5.3,0.2,11,0,17.3
		c-0.2,6.2-0.3,12.5-0.4,18.7c-0.1,6.2,0,12.2,0.1,17.7c0.2,5.6,0.7,10.2,1.7,13.8c3,1.3,5.9,2.6,8.9,3.9c3,1.3,5.9,2.6,8.9,3.9
		c0.8-11.8,1.1-23.6,0.7-35.2c-0.3-11.7-0.5-23.5-0.5-35.5v-2.5l-3.2-11.6c-1.3-0.3-2.6-0.8-3.9-1.5c-1.3-0.7-2.6-1-3.9-1
		c-0.5,0-0.9,0-1.4,0.1C680.9,308.8,680.4,309,679.7,309.3z"/>
	<path fill="#001F0A" d="M751,275c5.4,0,10.6,1.1,15.7,3.3c5,2.2,10.1,4.2,15.4,6c0.8,2.8,1.2,5.3,1.2,7.6v5.2v2.7v17.7
		c0,11.8,0,23.7,0.1,35.6c0.1,11.9,0.1,23.8,0.1,35.6v1.2c0,1.5,0.5,2.6,1.6,3.5c1.1,0.8,2.3,1.5,3.6,2.1c1.3,0.6,2.5,1.1,3.6,1.6
		c1.1,0.5,1.6,1.2,1.6,2c0,1.6-0.6,3.7-1.8,6c-1.2,2.4-2.7,4.8-4.4,7.4c-1.7,2.5-3.6,5-5.5,7.3c-2,2.3-3.7,4.2-5.2,5.7
		c-2.5-0.2-4.9-0.6-7.3-1.4c-2.4-0.7-4.7-1.5-7-2.3c-2.3-0.8-4.6-1.6-6.9-2.5c-2.3-0.8-4.7-1.4-7.1-1.7c-1.3-3.5-2-6.7-2-9.9v-17.7
		v-33c0-5.9,0.2-11.8,0.6-17.7c0.4-5.9,0.6-11.8,0.6-17.7c0-2.3-0.2-4.7-0.7-7.1s-1-4.8-1.5-7.1c-2.1-0.8-4-2-5.5-3.6
		c-1.6-1.6-2.3-3.3-2.3-5.3c0-1.5,0.5-3.2,1.5-5.3c1-2.1,2.2-4.1,3.7-6.3c1.5-2.1,3-4.2,4.4-6.3C748.7,278.5,750,276.7,751,275z
		 M753.7,232.1c5.8,0.8,11.3,2.3,16.8,4.3c5.4,2.1,10.8,4,16,5.8c-0.3,4.8-1.3,9.5-3,14c-1.6,4.6-3.5,9.1-5.4,13.6
		c-5.6-0.2-11.1-1.3-16.5-3.5c-5.4-2.1-10.8-3.9-16-5.4c0.5-3.1,0.9-5.8,1.4-8c0.4-2.2,0.9-4.3,1.5-6.3c0.6-2,1.3-4.1,2.1-6.3
		C751.3,238.2,752.4,235.4,753.7,232.1z"/>
	<path fill="#001F0A" d="M800.5,291.8c7.7-3.3,15.3-7,22.8-11.1c7.5-4.1,15.2-7.3,23-9.6c7.1,2.6,14,5.5,20.8,8.5
		c6.8,3,13.6,6.2,20.3,9.5c0.8,3.6,1.4,8.1,1.7,13.3c0.3,5.3,0.5,10.7,0.5,16.3c0,5.3-0.1,10.3-0.2,15.2c-0.2,4.8-0.3,8.9-0.5,12.2
		c-0.7,1.6-2.9,3.6-6.8,5.8c-3.9,2.2-8.3,4.5-13.4,6.8c-5.1,2.3-10.4,4.6-15.9,6.9c-5.5,2.3-10.2,4.4-14.2,6.2
		c-0.7,1.6-1,3.5-1.1,5.4c-0.1,2-0.1,3.9-0.1,5.7c4.9,2.1,9.6,3.8,13.9,5.1c4.4,1.2,8.5,2.3,12.6,3.3c4,1,8,1.9,12.1,2.8
		c4,0.9,8.2,2.1,12.4,3.6c-2.6,5.3-5.5,10.2-8.5,14.9c-3,4.7-6.6,8.9-10.7,12.7c-2.8-0.2-7.4-1.1-13.8-2.7
		c-6.4-1.6-13.2-3.5-20.3-5.7c-7.1-2.1-14-4.2-20.5-6.3c-6.5-2.1-11.2-3.7-14.2-4.8V291.8z M839.7,302.4c-0.3,0.3-0.9,0.8-1.6,1.5
		c-0.7,0.7-1.3,1.2-1.6,1.5v11.1v19.7c0,3.1,0,6.2,0,9.1c0,3,0.1,5.9,0.2,8.9c2.8-1.1,5.6-2.2,8.4-3.2c2.8-1,5.2-2.5,7.1-4.4
		c0.3-1.8,0.5-3.7,0.5-5.5c0-1.9,0-3.7,0-5.5c0-3.8-0.1-7.5-0.2-11.1c-0.2-3.6-0.2-7.3-0.2-11.1c0-1.6-0.4-3-1.2-4.1
		c-0.8-1.1-1.9-2-3.2-2.8c-1.3-0.8-2.7-1.5-4.2-2.1C842.1,303.7,840.8,303,839.7,302.4z"/>
</g>
<g enable-background="new    ">
	<path fill="none" stroke="#C0392B" stroke-width="2" stroke-miterlimit="10" d="M641,277.5c1.1-0.7,2.2-1.1,3.2-1.5
		c5.1,1.2,10.1,2.5,14.9,3.9c4.8,1.5,9.7,3,14.4,4.4c0.2,1,0.3,2.3,0.5,3.9c0.2,1.6,0.3,3,0.5,4.2c3.3-2.6,6.4-5.3,9.2-8.1
		c2.9-2.8,6.1-5.3,9.7-7.6c0.8-0.5,2.6-0.3,5.5,0.5c2.8,0.8,6,2,9.7,3.6c3.6,1.6,7.4,3.2,11.3,4.9c3.9,1.7,7.2,3.2,10.1,4.3
		c0.2,10.4,0.3,20.7,0.5,31.1c0.2,10.4,0.2,20.8,0.2,31.3c0,8.5-0.1,17-0.2,25.5c-0.2,8.5-0.3,17-0.5,25.5c-2.8,3-6,5.3-9.7,7.1
		c-3.6,1.8-7.1,3.8-10.4,5.9c-3.3,1.8-6.4,3.7-9.3,5.7c-2.9,2-6,3.4-9.3,4.2c-3-0.8-5.9-1.9-8.7-3.2c-2.8-1.3-5.6-2.5-8.4-3.7
		c-0.3,2-0.5,4-0.5,6.2s0,4.3,0,6.4v13.3c0,1.8,0.1,3.8,0.2,5.9c0.2,2.1,0.1,4.2-0.1,6.2s-0.8,3.7-1.7,5.3c-0.9,1.6-2.3,2.5-4.3,2.8
		c-4.1,0.8-8.2,1.4-12.3,1.8c-4.1,0.4-8.2,1-12.3,1.8c-0.7-0.2-1.5-0.5-2.5-1c-1-0.5-1.9-0.9-2.7-1.2v-39.2v-19.5
		c-2.1-1.1-4.2-2.3-6.2-3.3c-2-1.1-4-2.1-6.2-3.1c0-2.5,0.7-4.6,2-6.3c1.3-1.7,2.7-3.4,4.3-4.9c1.6-1.6,3-3.2,4.3-4.9
		c1.3-1.7,2-3.8,2-6.3v-16.3v-28.8c0-4.3,0-8.6,0-13.1s-0.1-8.9-0.2-13.3c-2.1-0.8-4.2-1.7-6.2-2.6c-2-0.9-4-1.8-6.2-2.6
		c2.1-4.6,4.5-9,7.1-13.1C635.5,285.7,638.2,281.6,641,277.5z M679.7,309.3c-2.3,0.8-3.6,2.4-3.9,4.8c-0.3,2.4-0.8,4.5-1.5,6.3
		c0.2,5.3,0.2,11,0,17.3c-0.2,6.2-0.3,12.5-0.4,18.7c-0.1,6.2,0,12.2,0.1,17.7c0.2,5.6,0.7,10.2,1.7,13.8c3,1.3,5.9,2.6,8.9,3.9
		c3,1.3,5.9,2.6,8.9,3.9c0.8-11.8,1.1-23.6,0.7-35.2c-0.3-11.7-0.5-23.5-0.5-35.5v-2.5l-3.2-11.6c-1.3-0.3-2.6-0.8-3.9-1.5
		c-1.3-0.7-2.6-1-3.9-1c-0.5,0-0.9,0-1.4,0.1C680.9,308.8,680.4,309,679.7,309.3z"/>
	<path fill="none" stroke="#C0392B" stroke-width="2" stroke-miterlimit="10" d="M751,275c5.4,0,10.6,1.1,15.7,3.3
		c5,2.2,10.1,4.2,15.4,6c0.8,2.8,1.2,5.3,1.2,7.6v5.2v2.7v17.7c0,11.8,0,23.7,0.1,35.6c0.1,11.9,0.1,23.8,0.1,35.6v1.2
		c0,1.5,0.5,2.6,1.6,3.5c1.1,0.8,2.3,1.5,3.6,2.1c1.3,0.6,2.5,1.1,3.6,1.6c1.1,0.5,1.6,1.2,1.6,2c0,1.6-0.6,3.7-1.8,6
		c-1.2,2.4-2.7,4.8-4.4,7.4c-1.7,2.5-3.6,5-5.5,7.3c-2,2.3-3.7,4.2-5.2,5.7c-2.5-0.2-4.9-0.6-7.3-1.4c-2.4-0.7-4.7-1.5-7-2.3
		c-2.3-0.8-4.6-1.6-6.9-2.5c-2.3-0.8-4.7-1.4-7.1-1.7c-1.3-3.5-2-6.7-2-9.9v-17.7v-33c0-5.9,0.2-11.8,0.6-17.7
		c0.4-5.9,0.6-11.8,0.6-17.7c0-2.3-0.2-4.7-0.7-7.1s-1-4.8-1.5-7.1c-2.1-0.8-4-2-5.5-3.6c-1.6-1.6-2.3-3.3-2.3-5.3
		c0-1.5,0.5-3.2,1.5-5.3c1-2.1,2.2-4.1,3.7-6.3c1.5-2.1,3-4.2,4.4-6.3C748.7,278.5,750,276.7,751,275z M753.7,232.1
		c5.8,0.8,11.3,2.3,16.8,4.3c5.4,2.1,10.8,4,16,5.8c-0.3,4.8-1.3,9.5-3,14c-1.6,4.6-3.5,9.1-5.4,13.6c-5.6-0.2-11.1-1.3-16.5-3.5
		c-5.4-2.1-10.8-3.9-16-5.4c0.5-3.1,0.9-5.8,1.4-8c0.4-2.2,0.9-4.3,1.5-6.3c0.6-2,1.3-4.1,2.1-6.3
		C751.3,238.2,752.4,235.4,753.7,232.1z"/>
	<path fill="none" stroke="#C0392B" stroke-width="2" stroke-miterlimit="10" d="M800.5,291.8c7.7-3.3,15.3-7,22.8-11.1
		c7.5-4.1,15.2-7.3,23-9.6c7.1,2.6,14,5.5,20.8,8.5c6.8,3,13.6,6.2,20.3,9.5c0.8,3.6,1.4,8.1,1.7,13.3c0.3,5.3,0.5,10.7,0.5,16.3
		c0,5.3-0.1,10.3-0.2,15.2c-0.2,4.8-0.3,8.9-0.5,12.2c-0.7,1.6-2.9,3.6-6.8,5.8c-3.9,2.2-8.3,4.5-13.4,6.8
		c-5.1,2.3-10.4,4.6-15.9,6.9c-5.5,2.3-10.2,4.4-14.2,6.2c-0.7,1.6-1,3.5-1.1,5.4c-0.1,2-0.1,3.9-0.1,5.7c4.9,2.1,9.6,3.8,13.9,5.1
		c4.4,1.2,8.5,2.3,12.6,3.3c4,1,8,1.9,12.1,2.8c4,0.9,8.2,2.1,12.4,3.6c-2.6,5.3-5.5,10.2-8.5,14.9c-3,4.7-6.6,8.9-10.7,12.7
		c-2.8-0.2-7.4-1.1-13.8-2.7c-6.4-1.6-13.2-3.5-20.3-5.7c-7.1-2.1-14-4.2-20.5-6.3c-6.5-2.1-11.2-3.7-14.2-4.8V291.8z M839.7,302.4
		c-0.3,0.3-0.9,0.8-1.6,1.5c-0.7,0.7-1.3,1.2-1.6,1.5v11.1v19.7c0,3.1,0,6.2,0,9.1c0,3,0.1,5.9,0.2,8.9c2.8-1.1,5.6-2.2,8.4-3.2
		c2.8-1,5.2-2.5,7.1-4.4c0.3-1.8,0.5-3.7,0.5-5.5c0-1.9,0-3.7,0-5.5c0-3.8-0.1-7.5-0.2-11.1c-0.2-3.6-0.2-7.3-0.2-11.1
		c0-1.6-0.4-3-1.2-4.1c-0.8-1.1-1.9-2-3.2-2.8c-1.3-0.8-2.7-1.5-4.2-2.1C842.1,303.7,840.8,303,839.7,302.4z"/>
</g>
<g enable-background="new    ">
	<path fill="#001F0A" d="M922.4,231.4c1.6,0,3.6-0.3,5.9-0.9c2.3-0.6,4.5-0.9,6.7-0.9c1.6,0,3,0.4,4.2,1.2c1.1,0.8,1.7,2.4,1.7,4.7
		c0,8.7-0.1,17.4-0.2,26.1c-0.2,8.7-0.2,17.5-0.2,26.4c0,17.6,0.1,35,0.2,52.4c0.2,17.3,0.2,34.9,0.2,52.6c1.8,0.5,3.6,1,5.3,1.6
		c1.7,0.6,3.5,1.3,5.3,2.1c-0.2,2.8-0.8,5.4-1.8,7.9c-1.1,2.5-2.4,4.8-3.9,7.1c-1.6,2.3-3.2,4.6-4.9,6.8c-1.7,2.2-3.3,4.4-4.8,6.5
		c-5.3-1.5-10.4-2.9-15.5-4.3c-5.1-1.4-10.1-3-15-4.8c-0.3-3.3-0.6-6.4-0.9-9.5c-0.2-3-0.4-6.2-0.4-9.5c0-3.8,0.1-7.6,0.2-11.3
		c0.2-3.8,0.2-7.6,0.2-11.6v-25.4c0-36,0.2-72.1,0.7-108.4c0-0.3-0.1-0.6-0.2-0.9c-0.2-0.2-0.2-0.5-0.2-0.9c0-1.8,0.7-3.1,2-3.9
		c1.3-0.8,2.9-1.4,4.7-1.8c1.8-0.4,3.7-0.7,5.7-0.7C919.2,231.9,920.9,231.7,922.4,231.4z"/>
</g>
<g enable-background="new    ">
	<path fill="none" stroke="#C0392B" stroke-width="2" stroke-miterlimit="10" d="M922.4,231.4c1.6,0,3.6-0.3,5.9-0.9
		c2.3-0.6,4.5-0.9,6.7-0.9c1.6,0,3,0.4,4.2,1.2c1.1,0.8,1.7,2.4,1.7,4.7c0,8.7-0.1,17.4-0.2,26.1c-0.2,8.7-0.2,17.5-0.2,26.4
		c0,17.6,0.1,35,0.2,52.4c0.2,17.3,0.2,34.9,0.2,52.6c1.8,0.5,3.6,1,5.3,1.6c1.7,0.6,3.5,1.3,5.3,2.1c-0.2,2.8-0.8,5.4-1.8,7.9
		c-1.1,2.5-2.4,4.8-3.9,7.1c-1.6,2.3-3.2,4.6-4.9,6.8c-1.7,2.2-3.3,4.4-4.8,6.5c-5.3-1.5-10.4-2.9-15.5-4.3c-5.1-1.4-10.1-3-15-4.8
		c-0.3-3.3-0.6-6.4-0.9-9.5c-0.2-3-0.4-6.2-0.4-9.5c0-3.8,0.1-7.6,0.2-11.3c0.2-3.8,0.2-7.6,0.2-11.6v-25.4c0-36,0.2-72.1,0.7-108.4
		c0-0.3-0.1-0.6-0.2-0.9c-0.2-0.2-0.2-0.5-0.2-0.9c0-1.8,0.7-3.1,2-3.9c1.3-0.8,2.9-1.4,4.7-1.8c1.8-0.4,3.7-0.7,5.7-0.7
		C919.2,231.9,920.9,231.7,922.4,231.4z"/>
</g>
<rect y="83.9" fill="none" width="681.5" height="290"/>
<g enable-background="new    ">
	<path fill="#C0392B" d="M198.1,403.7c-14.8,0-30.4-6.6-46.9-19.8c-7.5-5.9-15.5-13-24.2-21.3c-8.6-8.2-14.2-13.5-16.7-15.8
		c-12.8,11.3-27.1,17-42.8,17c-10.2,0-18.5-2.6-25.2-7.8c-6.6-5.2-9.9-11.9-9.9-20.1c0-8.2,3.4-15.2,10.2-20.8
		c6.8-5.7,16.1-8.5,27.7-8.5c6.9,0,14.1,1.1,21.6,3.2c2.9-8.6,5-19.4,6.3-32.2c-7.1,3.8-15.1,5.8-24.2,5.8
		c-17.8,0-32.3-6.8-43.4-20.3c-11.1-13.5-16.7-31.5-16.7-53.9c0-15,2.6-29.6,7.9-44c5.3-14.4,12.4-27,21.4-38
		c9-10.9,20-19.7,32.9-26.3c12.9-6.6,26.5-9.9,40.7-9.9c6.7,0,12.7,0.9,18.1,2.6c13.2-8.8,26.9-13.2,41.1-13.2c7.1,0,13.7,1,19.7,3
		c6,2,10.5,4.5,13.4,7.3c-1.5,7.3-3.6,13.5-6.3,18.7l-1.1,2.6c-9-6.7-18.7-10.1-29-10.1c-6.1,0-12.1,1.2-17.8,3.5
		c9,9.2,13.5,22.5,13.5,39.8c0,17.4-4.5,33.3-13.5,47.9c-9,14.6-20.6,21.9-34.8,21.9c-9.6,0-17.2-3.7-22.7-11.1
		c-5.6-7.4-8.3-17.3-8.3-29.8c0-21.3,8.1-41.6,24.4-61c-12.7,1.3-23,10.1-30.9,26.3c-8,16.2-11.9,34.9-11.9,56.2s2.7,35.9,8.2,44
		c5.5,8.1,11.8,12.1,19,12.1s14.2-2.5,21-7.6c6.8-5.1,12.5-11.8,17.1-20.3l21,4.3c-5.4,40.8-15.1,73-29,96.6c3.3,1.7,8.9,4.7,17,9.1
		s14.2,7.5,18.5,9.6c4.3,2.1,9.8,4.6,16.5,7.5c12.5,5.4,24.5,8.1,36.2,8.1l15.2-0.9c5.8,6.5,10,12.8,12.7,19
		c-3.6,6.9-9.7,13.1-18.1,18.5C217.6,401,208.3,403.7,198.1,403.7z M64.4,339.9c7.9,0,14.5-4.3,19.8-12.9
		c-5.2-2.9-10.1-4.3-14.8-4.3c-4.7,0-8.3,1-10.9,2.9c-2.6,1.9-3.9,4.1-3.9,6.6c0,2.5,1,4.4,3,5.8C59.7,339.2,61.9,339.9,64.4,339.9z
		 M135.1,178.9c3.8-9.6,5.8-20.4,5.8-32.5c0-12.1-2.6-21-7.8-26.7c-7.3,7.1-13.1,15.5-17.4,25.2c-4.3,9.7-6.5,19-6.5,28
		c0,13.6,3.5,20.4,10.6,20.4C126.2,193.3,131.3,188.5,135.1,178.9z"/>
</g>
<rect x="160.6" y="79.7" fill="none" width="795.7" height="364.4"/>
<g enable-background="new    ">
	<path fill="#C0392B" d="M214.6,294.1c-15,0-26.7-4.7-35.4-14.2c-8.6-9.5-12.9-22.9-12.9-40.1c0-21.1,6.2-39,18.7-53.6
		c12.5-14.7,28.8-22,49.2-22l12.9,1.1c4.6-1.3,8.9-2,12.9-2c9.6,0,16.4,3.3,20.6,9.8c4.1,6.5,6.5,15.8,7,27.9
		c8.1-0.4,15.7-1.6,23-3.7l4-1.2c1.3,1.3,2.3,5.4,2.9,12.1l0.3,3.2c-8.6,4.4-19.2,7.9-31.6,10.4c-4.2,20.3-12.6,37.5-25,51.5
		C248.7,287.1,233.2,294.1,214.6,294.1z M220.3,238.6c0,17.8,4.5,26.7,13.5,26.7c6.3,0,12.8-4,19.4-12.1
		c6.6-8.1,11.2-17.8,13.7-29.3c-19.6,0-29.3-9.4-29.3-28.2c0-3.3,0.3-6.6,0.9-10.1c-1.9,0-3.4,0.3-4.3,0.9
		c-3.3,3.5-6.4,10.4-9.3,20.8C221.8,217.9,220.3,228.3,220.3,238.6z"/>
	<path fill="#C0392B" d="M345.7,294.1c-15,0-26.7-4.7-35.4-14.2c-8.6-9.5-12.9-22.9-12.9-40.1c0-21.1,6.2-39,18.7-53.6
		c12.5-14.7,28.8-22,49.2-22l12.9,1.1c4.6-1.3,8.9-2,12.9-2c9.6,0,16.4,3.3,20.6,9.8c4.1,6.5,6.5,15.8,7,27.9
		c8.1-0.4,15.7-1.6,23-3.7l4-1.2c1.3,1.3,2.3,5.4,2.9,12.1l0.3,3.2c-8.6,4.4-19.2,7.9-31.6,10.4c-4.2,20.3-12.6,37.5-25,51.5
		C379.8,287.1,364.3,294.1,345.7,294.1z M351.5,238.6c0,17.8,4.5,26.7,13.5,26.7c6.3,0,12.8-4,19.4-12.1
		c6.6-8.1,11.2-17.8,13.7-29.3c-19.6,0-29.3-9.4-29.3-28.2c0-3.3,0.3-6.6,0.9-10.1c-1.9,0-3.4,0.3-4.3,0.9
		c-3.3,3.5-6.4,10.4-9.3,20.8C352.9,217.9,351.5,228.3,351.5,238.6z"/>
	<path fill="#C0392B" d="M522.8,188.9l-25.3-2c-1.7,32.4-5.5,63.4-11.4,92.9c-5.8,29.5-11.6,48-17.4,55.5
		c-9.6-0.2-18.9-1.3-27.9-3.3c-9-2-15.1-4-18.4-5.9c7.3-24.5,12.5-45.8,15.5-63.7c3.1-17.9,6.1-42.7,9.2-74.3l-19,2
		c-0.8-3.6-1.2-7.3-1.2-11.1s0.5-7.8,1.4-12.2h20.7c2.9-28.6,6.9-47.8,12.1-57.8c6.7-13.2,14.8-21.7,24.2-25.3
		c5.8-2.5,13-3.7,21.9-3.7c8.8,0,16.2,2.5,22.3,7.6c6,5.1,9.1,11.9,9.1,20.4c0,8.5-3.9,18.4-11.8,29.5
		c-7.9,11.1-17.4,20.9-28.5,29.3h29C527.4,175.3,525.9,182.7,522.8,188.9z M514.5,101.4c-8.1,0-13.1,14.1-15.2,42.3
		c6.7-5.4,12.1-11.3,16.2-17.7c4.1-6.4,6.2-12.1,6.2-17.1C521.7,103.9,519.3,101.4,514.5,101.4z"/>
</g>
</svg>
