<?xml version="1.0" encoding="utf-8"?>
<!-- Generator: Adobe Illustrator 17.1.0, SVG Export Plug-In . SVG Version: 6.00 Build 0)  -->
<!DOCTYPE svg PUBLIC "-//W3C//DTD SVG 1.1//EN" "http://www.w3.org/Graphics/SVG/1.1/DTD/svg11.dtd">
<svg version="1.1" id="Layer_1" xmlns="http://www.w3.org/2000/svg" xmlns:xlink="http://www.w3.org/1999/xlink" x="0px" y="0px"
	 viewBox="0 0 960 560" enable-background="new 0 0 960 560" xml:space="preserve">
<rect x="456.4" y="173.8" fill="none" width="503.6" height="282.2"/>
<text transform="matrix(1 0 0 1 456.4276 407.9578)" fill="#001F0A" font-family="'GrobeDeutschmeister'" font-size="295.7638">S</text>
<text transform="matrix(1 0 0 1 456.4276 407.9578)" fill="none" stroke="#15BAFF" stroke-width="7" stroke-miterlimit="10" font-family="'GrobeDeutschmeister'" font-size="295.7638">S</text>
<text transform="matrix(1 0 0 1 615.8102 407.9578)" fill="#001F0A" font-family="'GrobeDeutschmeister'" font-size="246.4698">pie</text>
<text transform="matrix(1 0 0 1 615.8102 407.9578)" fill="none" stroke="#15BAFF" stroke-width="4" stroke-miterlimit="10" font-family="'GrobeDeutschmeister'" font-size="246.4698">pie</text>
<text transform="matrix(1 0 0 1 889.8035 407.9578)" fill="#001F0A" font-family="'GrobeDeutschmeister'" font-size="246.4698" letter-spacing="-12">l</text>
<text transform="matrix(1 0 0 1 889.8035 407.9578)" fill="none" stroke="#15BAFF" stroke-width="4" stroke-miterlimit="10" font-family="'GrobeDeutschmeister'" font-size="246.4698" letter-spacing="-12">l</text>
<rect y="96.2" fill="none" width="681.5" height="290"/>
<text transform="matrix(1 0 0 1 2.557112e-03 307.0861)" fill="#15BAFF" font-family="'OleoScriptSwashCaps-Bold'" font-size="287.5481">G</text>
<rect x="95.7" y="416.2" fill="none" width="564" height="87.9"/>
<text transform="matrix(1 0 0 1 95.6538 447.4637)" fill="#001F0A" font-family="'OpenSans'" font-size="41.0783">the game of pure strategy</text>
<rect x="164.7" y="88" fill="none" width="795.7" height="364.4"/>
<text transform="matrix(1 0 0 1 164.6398 298.8701)" fill="#15BAFF" font-family="'OleoScriptSwashCaps-Bold'" font-size="287.5481">oof</text>
</svg>
